<svg width="26" height="40" viewBox="0 0 26 40" fill="none" xmlns="http://www.w3.org/2000/svg">
<path d="M23.7398 2.4844C23.0698 2.13697 22.1798 2.24387 21.2898 2.69821L7.43977 9.82506C5.51977 10.805 3.96977 13.2014 3.96977 15.1702V36.5507C3.96977 37.4594 4.30977 38.1988 4.98977 38.5463L1.51977 36.7645C0.849766 36.4171 0.509766 35.6777 0.509766 34.769V13.3885C0.509766 11.4197 2.05977 9.02329 3.96977 8.04335L17.8298 0.916498C18.7198 0.462161 19.5998 0.355258 20.2798 0.702692L23.7398 2.4844Z" fill="#E4E4E4"/>
<mask id="path-2-inside-1_1287_418" fill="white">
<path d="M3.95996 15.3859C3.95996 13.1767 5.55252 10.5668 7.51704 9.55633L21.2654 2.48504C23.23 1.47461 24.8225 2.44636 24.8225 4.6555V25.1996C24.8225 27.4087 23.23 30.0187 21.2654 31.0291L7.51704 38.1004C5.55252 39.1108 3.95996 38.1391 3.95996 35.9299V15.3859Z"/>
</mask>
<path d="M3.95996 15.3859C3.95996 13.1767 5.55252 10.5668 7.51704 9.55633L21.2654 2.48504C23.23 1.47461 24.8225 2.44636 24.8225 4.6555V25.1996C24.8225 27.4087 23.23 30.0187 21.2654 31.0291L7.51704 38.1004C5.55252 39.1108 3.95996 38.1391 3.95996 35.9299V15.3859Z" fill="white"/>
<path d="M3.07069 15.8432C3.07069 13.0818 5.06139 9.81936 7.51704 8.55633L20.3762 1.94242C22.8318 0.67939 24.8225 1.89408 24.8225 4.6555C24.8225 2.99865 23.23 2.47461 21.2654 3.48504L7.51704 10.5563C6.04365 11.3141 4.84923 13.2716 4.84923 14.9285L3.07069 15.8432ZM24.8225 29.1996L3.95996 39.9299L24.8225 29.1996ZM7.51704 38.1004C5.06139 39.3634 3.07069 38.1487 3.07069 35.3873V15.8432C3.07069 13.0818 5.06139 9.81936 7.51704 8.55633V10.5563C6.04365 11.3141 4.84923 13.2716 4.84923 14.9285V35.4725C4.84923 37.6817 6.04365 38.8582 7.51704 38.1004ZM24.8225 0.655502V29.1996V0.655502Z" fill="#EEEEEE" mask="url(#path-2-inside-1_1287_418)"/>
<path d="M5 38.5551L1.65 36.8269C0.94 36.4616 0.5 35.7846 0.5 35.0541V13.6914C0.5 11.295 1.94 9.07672 4.27 7.88297L18.11 0.773938C18.83 0.408687 19.71 0.408687 20.43 0.773938L23.62 2.42202C24.32 2.78727 24.76 3.45542 24.76 4.18592V25.5665C24.76 27.954 23.33 30.1633 21.01 31.357L7.09 38.5106C6.45 38.8402 5.67 38.858 5.01 38.5551H5Z" stroke="#828282" stroke-linecap="round" stroke-linejoin="round"/>
<path d="M15.3037 26.2094L19.716 18.5671L21.607 19.6588L17.1947 27.3012L15.3037 26.2094Z" stroke="#C9C9C9" stroke-width="1.5" stroke-linecap="round" stroke-linejoin="round"/>
<path d="M19.0858 19.6589L18.1403 14.746L9.00049 17.4754L11.2066 26.7554L15.9341 25.1177L19.0858 19.6589Z" stroke="#C9C9C9" stroke-width="1.5" stroke-linecap="round" stroke-linejoin="round"/>
<path d="M9.00049 17.4754L13.7822 20.2361" stroke="#C9C9C9" stroke-width="1.5" stroke-linecap="round" stroke-linejoin="round"/>
<path d="M14.6733 22.2063C15.3695 21.8043 15.9339 20.8267 15.9339 20.0228C15.9339 19.2188 15.3695 18.8929 14.6733 19.2949C13.977 19.6969 13.4126 20.6745 13.4126 21.4785C13.4126 22.2824 13.977 22.6083 14.6733 22.2063Z" stroke="#C9C9C9" stroke-width="1.5" stroke-linecap="round" stroke-linejoin="round"/>
</svg>
