<svg width="295" height="295" viewBox="0 0 295 295" fill="none" xmlns="http://www.w3.org/2000/svg">
<mask id="mask0_1280_591" style="mask-type:alpha" maskUnits="userSpaceOnUse" x="51" y="47" width="209" height="208">
<path d="M254.376 182.03C254.18 182.676 253.958 183.314 253.71 183.942C253.587 184.253 253.196 184.347 252.939 184.134C246.818 179.06 240.559 174.129 234.299 169.41C234.14 169.29 234.067 169.087 234.113 168.893C238.002 152.464 236.624 135.226 230.169 119.62C223.672 103.914 212.367 90.6687 197.875 81.7862C183.384 72.9037 166.451 68.8401 149.506 70.1788C132.668 71.509 116.679 78.1058 103.803 89.0296C103.655 89.1558 103.446 89.1849 103.269 89.1033C95.9256 85.7224 88.9947 82.4137 81.6657 79.3122C81.3425 79.1755 81.2563 78.7569 81.5011 78.5055C97.6283 61.9435 118.84 51.2496 141.761 48.14C164.923 44.9978 188.466 49.785 208.561 61.7229C228.656 73.6608 244.121 92.0469 252.439 113.89C260.757 135.734 261.44 159.749 254.376 182.03Z" fill="#2D2D2F"/>
<path d="M234.442 216.154C234.856 216.511 234.906 217.135 234.551 217.55C219.171 235.529 198.092 247.711 174.814 252.053C151.213 256.456 126.816 252.526 105.791 240.935C84.7659 229.344 68.4185 210.812 59.5421 188.505C50.6657 166.197 49.8112 141.5 57.1246 118.633C58.0097 115.757 59.0547 112.934 60.2545 110.175C60.4733 109.672 61.0597 109.446 61.5613 109.668C67.8128 112.436 74.3601 115.607 80.7394 118.312C81.2572 118.531 81.4946 119.133 81.2742 119.65C80.4507 121.584 79.7247 123.582 78.9987 125.694C73.2689 143.502 73.9128 162.749 80.82 180.134C87.7272 197.519 100.467 211.959 116.856 220.98C133.245 230 152.261 233.037 170.644 229.572C188.702 226.167 205.044 216.696 216.971 202.743C217.328 202.326 217.954 202.266 218.378 202.615C223.842 207.108 229.235 211.66 234.442 216.154Z" fill="url(#paint0_linear_1280_591)" shape-rendering="crispEdges"/>
<path d="M234.442 216.154C234.856 216.511 234.906 217.135 234.551 217.55C219.171 235.529 198.092 247.711 174.814 252.053C151.213 256.456 126.816 252.526 105.791 240.935C84.7659 229.344 68.4185 210.812 59.5421 188.505C50.6657 166.197 49.8112 141.5 57.1246 118.633C58.0097 115.757 59.0547 112.934 60.2545 110.175C60.4733 109.672 61.0597 109.446 61.5613 109.668C67.8128 112.436 74.3601 115.607 80.7394 118.312C81.2572 118.531 81.4946 119.133 81.2742 119.65C80.4507 121.584 79.7247 123.582 78.9987 125.694C73.2689 143.502 73.9128 162.749 80.82 180.134C87.7272 197.519 100.467 211.959 116.856 220.98C133.245 230 152.261 233.037 170.644 229.572C188.702 226.167 205.044 216.696 216.971 202.743C217.328 202.326 217.954 202.266 218.378 202.615C223.842 207.108 229.235 211.66 234.442 216.154Z" stroke="url(#paint1_linear_1280_591)" shape-rendering="crispEdges"/>
<path d="M234.442 216.154C234.856 216.511 234.906 217.135 234.551 217.55C219.171 235.529 198.092 247.711 174.814 252.053C151.213 256.456 126.816 252.526 105.791 240.935C84.7659 229.344 68.4185 210.812 59.5421 188.505C50.6657 166.197 49.8112 141.5 57.1246 118.633C58.0097 115.757 59.0547 112.934 60.2545 110.175C60.4733 109.672 61.0597 109.446 61.5613 109.668C67.8128 112.436 74.3601 115.607 80.7394 118.312C81.2572 118.531 81.4946 119.133 81.2742 119.65C80.4507 121.584 79.7247 123.582 78.9987 125.694C73.2689 143.502 73.9128 162.749 80.82 180.134C87.7272 197.519 100.467 211.959 116.856 220.98C133.245 230 152.261 233.037 170.644 229.572C188.702 226.167 205.044 216.696 216.971 202.743C217.328 202.326 217.954 202.266 218.378 202.615C223.842 207.108 229.235 211.66 234.442 216.154Z" stroke="url(#paint2_linear_1280_591)" stroke-opacity="0.2" shape-rendering="crispEdges"/>
<path d="M171.254 108.118C185.837 108.118 195.585 117.942 195.585 137.437V157.239C195.585 164.622 195.585 174.899 195.755 183.098L204.411 184.869V192.545H196.112C196.115 192.596 196.118 192.647 196.122 192.698H168.184C168.184 192.647 168.185 192.596 168.185 192.545H159.588V184.869L168.297 182.953C168.433 174.772 168.645 164.589 168.645 157.239V139.356C168.645 128.534 165.958 124.696 159.204 124.696C155.081 125.24 151.111 126.616 147.536 128.74C146.581 129.307 145.659 129.925 144.775 130.59V156.855C144.775 164.141 144.776 174.83 144.932 183.205L152.91 184.869V192.545H108.472V184.869L117.426 182.899C117.585 174.6 117.835 164.227 117.835 157.086V147.338C117.835 138.051 117.835 134.521 117.298 127.767L107.013 126.231V119.554L140.323 108.118L143.163 109.96L144.232 122.383C153.207 111.851 161.423 108.118 171.254 108.118Z" fill="#232326"/>
</mask>
<g mask="url(#mask0_1280_591)">
<g filter="url(#filter0_d_1280_591)">
<path d="M234.442 216.154C234.856 216.511 234.906 217.135 234.551 217.55C219.171 235.529 198.092 247.711 174.814 252.053C151.213 256.456 126.816 252.526 105.791 240.935C84.7659 229.344 68.4185 210.812 59.5421 188.505C50.6657 166.197 49.8112 141.5 57.1246 118.633C58.0097 115.757 59.0547 112.934 60.2545 110.175C60.4733 109.672 61.0597 109.446 61.5613 109.668C67.8128 112.436 74.3601 115.607 80.7394 118.312C81.2572 118.531 81.4946 119.133 81.2742 119.65C80.4507 121.584 79.7247 123.582 78.9987 125.694C73.2689 143.502 73.9128 162.749 80.82 180.134C87.7272 197.519 100.467 211.959 116.856 220.98C133.245 230 152.261 233.037 170.644 229.572C188.702 226.167 205.044 216.696 216.971 202.743C217.328 202.326 217.954 202.266 218.378 202.615C223.842 207.108 229.235 211.66 234.442 216.154Z" fill="url(#paint3_linear_1280_591)" shape-rendering="crispEdges"/>
<path d="M234.442 216.154C234.856 216.511 234.906 217.135 234.551 217.55C219.171 235.529 198.092 247.711 174.814 252.053C151.213 256.456 126.816 252.526 105.791 240.935C84.7659 229.344 68.4185 210.812 59.5421 188.505C50.6657 166.197 49.8112 141.5 57.1246 118.633C58.0097 115.757 59.0547 112.934 60.2545 110.175C60.4733 109.672 61.0597 109.446 61.5613 109.668C67.8128 112.436 74.3601 115.607 80.7394 118.312C81.2572 118.531 81.4946 119.133 81.2742 119.65C80.4507 121.584 79.7247 123.582 78.9987 125.694C73.2689 143.502 73.9128 162.749 80.82 180.134C87.7272 197.519 100.467 211.959 116.856 220.98C133.245 230 152.261 233.037 170.644 229.572C188.702 226.167 205.044 216.696 216.971 202.743C217.328 202.326 217.954 202.266 218.378 202.615C223.842 207.108 229.235 211.66 234.442 216.154Z" stroke="url(#paint4_linear_1280_591)" shape-rendering="crispEdges"/>
<path d="M234.442 216.154C234.856 216.511 234.906 217.135 234.551 217.55C219.171 235.529 198.092 247.711 174.814 252.053C151.213 256.456 126.816 252.526 105.791 240.935C84.7659 229.344 68.4185 210.812 59.5421 188.505C50.6657 166.197 49.8112 141.5 57.1246 118.633C58.0097 115.757 59.0547 112.934 60.2545 110.175C60.4733 109.672 61.0597 109.446 61.5613 109.668C67.8128 112.436 74.3601 115.607 80.7394 118.312C81.2572 118.531 81.4946 119.133 81.2742 119.65C80.4507 121.584 79.7247 123.582 78.9987 125.694C73.2689 143.502 73.9128 162.749 80.82 180.134C87.7272 197.519 100.467 211.959 116.856 220.98C133.245 230 152.261 233.037 170.644 229.572C188.702 226.167 205.044 216.696 216.971 202.743C217.328 202.326 217.954 202.266 218.378 202.615C223.842 207.108 229.235 211.66 234.442 216.154Z" stroke="url(#paint5_linear_1280_591)" stroke-opacity="0.2" shape-rendering="crispEdges"/>
</g>
<g filter="url(#filter1_d_1280_591)">
<path d="M254.376 182.03C254.18 182.676 253.958 183.314 253.71 183.942C253.587 184.253 253.196 184.347 252.939 184.134C246.818 179.06 240.559 174.129 234.299 169.41C234.14 169.29 234.067 169.087 234.113 168.893C238.002 152.464 236.624 135.226 230.169 119.62C223.672 103.914 212.367 90.6687 197.875 81.7862C183.384 72.9037 166.451 68.8401 149.506 70.1788C132.668 71.509 116.679 78.1058 103.803 89.0296C103.655 89.1558 103.446 89.1849 103.269 89.1033C95.9256 85.7224 88.9947 82.4137 81.6657 79.3122C81.3425 79.1755 81.2563 78.7569 81.5011 78.5055C97.6283 61.9435 118.84 51.2496 141.761 48.14C164.923 44.9978 188.466 49.785 208.561 61.7229C228.656 73.6608 244.121 92.0469 252.439 113.89C260.757 135.734 261.44 159.749 254.376 182.03Z" fill="#2D2D2F"/>
</g>
<path d="M171.253 108.118C185.836 108.118 195.584 117.942 195.584 137.437V157.239C195.584 164.622 195.585 174.899 195.755 183.098L204.411 184.869V192.544H196.111C196.114 192.596 196.118 192.648 196.122 192.698H168.184C168.184 192.648 168.184 192.596 168.184 192.544H159.587V184.869L168.296 182.953C168.433 174.772 168.644 164.589 168.644 157.239V139.356C168.644 128.534 165.958 124.697 159.204 124.697C155.081 125.24 151.111 126.615 147.536 128.74C146.581 129.307 145.659 129.925 144.775 130.59V156.856C144.775 164.142 144.776 174.83 144.932 183.205L152.91 184.869V192.544H108.471V184.869L117.425 182.899C117.584 174.6 117.835 164.226 117.835 157.085V147.338C117.835 138.052 117.835 134.521 117.297 127.767L107.013 126.232V119.554L140.323 108.118L143.163 109.96L144.232 122.383C153.206 111.851 161.423 108.119 171.253 108.118Z" fill="#232326"/>
<mask id="mask1_1280_591" style="mask-type:alpha" maskUnits="userSpaceOnUse" x="51" y="47" width="209" height="208">
<path d="M234.442 216.154C234.856 216.511 234.906 217.135 234.551 217.55C219.171 235.529 198.092 247.711 174.814 252.053C151.213 256.456 126.816 252.526 105.791 240.935C84.7659 229.344 68.4185 210.812 59.5421 188.505C50.6657 166.197 49.8112 141.5 57.1246 118.633C58.0097 115.757 59.0547 112.934 60.2545 110.175C60.4733 109.672 61.0597 109.446 61.5613 109.668C67.8128 112.436 74.3601 115.607 80.7394 118.312C81.2572 118.531 81.4946 119.133 81.2742 119.65C80.4507 121.584 79.7247 123.582 78.9987 125.694C73.2689 143.502 73.9128 162.749 80.82 180.134C87.7272 197.519 100.467 211.959 116.856 220.98C133.245 230 152.261 233.037 170.644 229.572C188.702 226.167 205.044 216.696 216.971 202.743C217.328 202.326 217.954 202.266 218.378 202.615C223.842 207.108 229.235 211.66 234.442 216.154Z" fill="url(#paint6_linear_1280_591)" shape-rendering="crispEdges"/>
<path d="M234.442 216.154C234.856 216.511 234.906 217.135 234.551 217.55C219.171 235.529 198.092 247.711 174.814 252.053C151.213 256.456 126.816 252.526 105.791 240.935C84.7659 229.344 68.4185 210.812 59.5421 188.505C50.6657 166.197 49.8112 141.5 57.1246 118.633C58.0097 115.757 59.0547 112.934 60.2545 110.175C60.4733 109.672 61.0597 109.446 61.5613 109.668C67.8128 112.436 74.3601 115.607 80.7394 118.312C81.2572 118.531 81.4946 119.133 81.2742 119.65C80.4507 121.584 79.7247 123.582 78.9987 125.694C73.2689 143.502 73.9128 162.749 80.82 180.134C87.7272 197.519 100.467 211.959 116.856 220.98C133.245 230 152.261 233.037 170.644 229.572C188.702 226.167 205.044 216.696 216.971 202.743C217.328 202.326 217.954 202.266 218.378 202.615C223.842 207.108 229.235 211.66 234.442 216.154Z" stroke="url(#paint7_linear_1280_591)" shape-rendering="crispEdges"/>
<path d="M234.442 216.154C234.856 216.511 234.906 217.135 234.551 217.55C219.171 235.529 198.092 247.711 174.814 252.053C151.213 256.456 126.816 252.526 105.791 240.935C84.7659 229.344 68.4185 210.812 59.5421 188.505C50.6657 166.197 49.8112 141.5 57.1246 118.633C58.0097 115.757 59.0547 112.934 60.2545 110.175C60.4733 109.672 61.0597 109.446 61.5613 109.668C67.8128 112.436 74.3601 115.607 80.7394 118.312C81.2572 118.531 81.4946 119.133 81.2742 119.65C80.4507 121.584 79.7247 123.582 78.9987 125.694C73.2689 143.502 73.9128 162.749 80.82 180.134C87.7272 197.519 100.467 211.959 116.856 220.98C133.245 230 152.261 233.037 170.644 229.572C188.702 226.167 205.044 216.696 216.971 202.743C217.328 202.326 217.954 202.266 218.378 202.615C223.842 207.108 229.235 211.66 234.442 216.154Z" stroke="url(#paint8_linear_1280_591)" stroke-opacity="0.2" shape-rendering="crispEdges"/>
<path d="M254.376 182.03C254.18 182.676 253.958 183.314 253.71 183.942C253.587 184.253 253.196 184.347 252.939 184.134C246.818 179.06 240.559 174.129 234.299 169.41C234.14 169.29 234.067 169.087 234.113 168.893C238.002 152.464 236.624 135.226 230.169 119.62C223.672 103.914 212.367 90.6687 197.875 81.7862C183.384 72.9037 166.451 68.8401 149.506 70.1788C132.668 71.509 116.679 78.1058 103.803 89.0296C103.655 89.1558 103.446 89.1849 103.269 89.1033C95.9256 85.7224 88.9947 82.4137 81.6657 79.3122C81.3425 79.1755 81.2563 78.7569 81.5011 78.5055C97.6283 61.9435 118.84 51.2496 141.761 48.14C164.923 44.9978 188.466 49.785 208.561 61.7229C228.656 73.6608 244.121 92.0469 252.439 113.89C260.757 135.734 261.44 159.749 254.376 182.03Z" fill="#2D2D2F"/>
</mask>
<g mask="url(#mask1_1280_591)">
<g style="mix-blend-mode:color-dodge" filter="url(#filter2_f_1280_591)">
<path d="M45.6927 137.818L55.4771 145.025C56.7745 145.981 58.5953 145.741 59.6007 144.482L94.6936 100.529C95.0577 100.073 95.2809 99.5205 95.3358 98.9396L98.962 60.6262C99.2275 57.8201 95.8272 56.2298 93.8438 58.2325L48.0694 104.452C47.6238 104.901 47.332 105.481 47.2358 106.107L45.5183 117.272L44.477 135.229C44.4182 136.242 44.8756 137.216 45.6927 137.818Z" fill="#D9D9D9"/>
</g>
</g>
<g filter="url(#filter3_f_1280_591)">
<path d="M74.8502 58.6418C51.44 61.8332 28.4526 116.471 39.2228 134.846C49.9931 153.221 137.163 153.381 147.344 130.215C157.525 107.05 98.2604 55.4504 74.8502 58.6418Z" fill="#59C0F7" fill-opacity="0.63"/>
</g>
</g>
<mask id="mask2_1280_591" style="mask-type:alpha" maskUnits="userSpaceOnUse" x="107" y="108" width="98" height="85">
<path d="M171.254 108.118C185.837 108.118 195.585 117.942 195.585 137.437V157.239C195.585 164.622 195.585 174.899 195.755 183.098L204.411 184.869V192.545H196.112C196.115 192.596 196.118 192.647 196.122 192.698H168.184C168.184 192.647 168.185 192.596 168.185 192.545H159.588V184.869L168.297 182.953C168.433 174.772 168.645 164.589 168.645 157.239V139.356C168.645 128.534 165.958 124.696 159.204 124.696C155.081 125.24 151.111 126.616 147.536 128.74C146.581 129.307 145.659 129.925 144.775 130.59V156.855C144.775 164.141 144.776 174.83 144.932 183.205L152.91 184.869V192.545H108.472V184.869L117.426 182.899C117.585 174.6 117.835 164.227 117.835 157.086V147.338C117.835 138.051 117.835 134.521 117.298 127.767L107.013 126.231V119.554L140.323 108.118L143.163 109.96L144.232 122.383C153.207 111.851 161.423 108.118 171.254 108.118Z" fill="#232326"/>
</mask>
<g mask="url(#mask2_1280_591)">
<g filter="url(#filter4_f_1280_591)">
<path d="M95.9228 122.751L104.611 127.459C105.377 127.874 106.285 127.935 107.099 127.628L137.931 115.993C138.861 115.642 139.557 114.853 139.789 113.887L142.726 101.669C143.257 99.4574 141.231 97.4819 139.034 98.0697L98.5314 108.905C97.6031 109.153 96.8499 109.831 96.5057 110.728L95.3899 113.637C95.3138 113.835 95.259 114.041 95.2264 114.251L94.3875 119.653C94.1929 120.906 94.8076 122.147 95.9228 122.751Z" fill="#D9D9D9"/>
</g>
<g filter="url(#filter5_dd_1280_591)">
<path d="M171.254 108.118C185.837 108.118 195.585 117.942 195.585 137.437V157.239C195.585 164.622 195.585 174.899 195.755 183.098L204.411 184.869V192.545H196.112C196.115 192.596 196.118 192.647 196.122 192.698H168.184C168.184 192.647 168.185 192.596 168.185 192.545H159.588V184.869L168.297 182.953C168.433 174.772 168.645 164.589 168.645 157.239V139.356C168.645 128.534 165.958 124.696 159.204 124.696C155.081 125.24 151.111 126.616 147.536 128.74C146.581 129.307 145.659 129.925 144.775 130.59V156.855C144.775 164.141 144.776 174.83 144.932 183.205L152.91 184.869V192.545H108.472V184.869L117.426 182.899C117.585 174.6 117.835 164.227 117.835 157.086V147.338C117.835 138.051 117.835 134.521 117.298 127.767L107.013 126.231V119.554L140.323 108.118L143.163 109.96L144.232 122.383C153.207 111.851 161.423 108.118 171.254 108.118Z" fill="#232326" fill-opacity="0.04" shape-rendering="crispEdges"/>
</g>
</g>
<defs>
<filter id="filter0_d_1280_591" x="0.00019455" y="61.883" width="270.987" height="232.628" filterUnits="userSpaceOnUse" color-interpolation-filters="sRGB">
<feFlood flood-opacity="0" result="BackgroundImageFix"/>
<feColorMatrix in="SourceAlpha" type="matrix" values="0 0 0 0 0 0 0 0 0 0 0 0 0 0 0 0 0 0 127 0" result="hardAlpha"/>
<feOffset dx="-8" dy="-3.5"/>
<feGaussianBlur stdDeviation="21.85"/>
<feComposite in2="hardAlpha" operator="out"/>
<feColorMatrix type="matrix" values="0 0 0 0 0 0 0 0 0 0 0 0 0 0 0 0 0 0 1 0"/>
<feBlend mode="normal" in2="BackgroundImageFix" result="effect1_dropShadow_1280_591"/>
<feBlend mode="normal" in="SourceGraphic" in2="effect1_dropShadow_1280_591" result="shape"/>
</filter>
<filter id="filter1_d_1280_591" x="29.6604" y="-4.95911e-05" width="265.257" height="224.449" filterUnits="userSpaceOnUse" color-interpolation-filters="sRGB">
<feFlood flood-opacity="0" result="BackgroundImageFix"/>
<feColorMatrix in="SourceAlpha" type="matrix" values="0 0 0 0 0 0 0 0 0 0 0 0 0 0 0 0 0 0 127 0" result="hardAlpha"/>
<feOffset dx="-8" dy="-3.5"/>
<feGaussianBlur stdDeviation="21.85"/>
<feComposite in2="hardAlpha" operator="out"/>
<feColorMatrix type="matrix" values="0 0 0 0 0 0 0 0 0 0 0 0 0 0 0 0 0 0 1 0"/>
<feBlend mode="normal" in2="BackgroundImageFix" result="effect1_dropShadow_1280_591"/>
<feBlend mode="normal" in="SourceGraphic" in2="effect1_dropShadow_1280_591" result="shape"/>
</filter>
<filter id="filter2_f_1280_591" x="18.5717" y="31.435" width="106.305" height="140.075" filterUnits="userSpaceOnUse" color-interpolation-filters="sRGB">
<feFlood flood-opacity="0" result="BackgroundImageFix"/>
<feBlend mode="normal" in="SourceGraphic" in2="BackgroundImageFix" result="shape"/>
<feGaussianBlur stdDeviation="12.95" result="effect1_foregroundBlur_1280_591"/>
</filter>
<filter id="filter3_f_1280_591" x="-34.5088" y="-12.4998" width="254.018" height="231.654" filterUnits="userSpaceOnUse" color-interpolation-filters="sRGB">
<feFlood flood-opacity="0" result="BackgroundImageFix"/>
<feBlend mode="normal" in="SourceGraphic" in2="BackgroundImageFix" result="shape"/>
<feGaussianBlur stdDeviation="35.5" result="effect1_foregroundBlur_1280_591"/>
</filter>
<filter id="filter4_f_1280_591" x="68.4521" y="72.0648" width="100.259" height="81.6562" filterUnits="userSpaceOnUse" color-interpolation-filters="sRGB">
<feFlood flood-opacity="0" result="BackgroundImageFix"/>
<feBlend mode="normal" in="SourceGraphic" in2="BackgroundImageFix" result="shape"/>
<feGaussianBlur stdDeviation="12.95" result="effect1_foregroundBlur_1280_591"/>
</filter>
<filter id="filter5_dd_1280_591" x="86.0132" y="94.6184" width="139.397" height="145.18" filterUnits="userSpaceOnUse" color-interpolation-filters="sRGB">
<feFlood flood-opacity="0" result="BackgroundImageFix"/>
<feColorMatrix in="SourceAlpha" type="matrix" values="0 0 0 0 0 0 0 0 0 0 0 0 0 0 0 0 0 0 127 0" result="hardAlpha"/>
<feOffset dy="7.5"/>
<feGaussianBlur stdDeviation="10.5"/>
<feComposite in2="hardAlpha" operator="out"/>
<feColorMatrix type="matrix" values="0 0 0 0 0 0 0 0 0 0 0 0 0 0 0 0 0 0 1 0"/>
<feBlend mode="normal" in2="BackgroundImageFix" result="effect1_dropShadow_1280_591"/>
<feColorMatrix in="SourceAlpha" type="matrix" values="0 0 0 0 0 0 0 0 0 0 0 0 0 0 0 0 0 0 127 0" result="hardAlpha"/>
<feOffset dy="27"/>
<feGaussianBlur stdDeviation="10.05"/>
<feComposite in2="hardAlpha" operator="out"/>
<feColorMatrix type="matrix" values="0 0 0 0 0 0 0 0 0 0 0 0 0 0 0 0 0 0 0.14 0"/>
<feBlend mode="normal" in2="effect1_dropShadow_1280_591" result="effect2_dropShadow_1280_591"/>
<feBlend mode="normal" in="SourceGraphic" in2="effect2_dropShadow_1280_591" result="shape"/>
</filter>
<linearGradient id="paint0_linear_1280_591" x1="144.928" y1="137.36" x2="139.709" y2="320.259" gradientUnits="userSpaceOnUse">
<stop stop-color="#333333" stop-opacity="0.8"/>
<stop offset="0.14" stop-color="#222222" stop-opacity="0.87"/>
<stop offset="0.36" stop-color="#0F0F0F" stop-opacity="0.94"/>
<stop offset="0.63" stop-color="#040404" stop-opacity="0.99"/>
<stop offset="1" stop-color="#131316"/>
</linearGradient>
<linearGradient id="paint1_linear_1280_591" x1="130.741" y1="225.363" x2="109.304" y2="243.227" gradientUnits="userSpaceOnUse">
<stop stop-opacity="0"/>
<stop offset="1" stop-color="#666666"/>
</linearGradient>
<linearGradient id="paint2_linear_1280_591" x1="209.408" y1="236.565" x2="205.835" y2="215.127" gradientUnits="userSpaceOnUse">
<stop stop-color="#00F7FB"/>
<stop offset="1" stop-opacity="0"/>
</linearGradient>
<linearGradient id="paint3_linear_1280_591" x1="144.928" y1="137.36" x2="139.709" y2="320.259" gradientUnits="userSpaceOnUse">
<stop stop-color="#333333" stop-opacity="0.8"/>
<stop offset="0.14" stop-color="#222222" stop-opacity="0.87"/>
<stop offset="0.36" stop-color="#0F0F0F" stop-opacity="0.94"/>
<stop offset="0.63" stop-color="#040404" stop-opacity="0.99"/>
<stop offset="1" stop-color="#131316"/>
</linearGradient>
<linearGradient id="paint4_linear_1280_591" x1="130.741" y1="225.363" x2="109.304" y2="243.227" gradientUnits="userSpaceOnUse">
<stop stop-opacity="0"/>
<stop offset="1" stop-color="#666666"/>
</linearGradient>
<linearGradient id="paint5_linear_1280_591" x1="209.408" y1="236.565" x2="205.835" y2="215.127" gradientUnits="userSpaceOnUse">
<stop stop-color="#00F7FB"/>
<stop offset="1" stop-opacity="0"/>
</linearGradient>
<linearGradient id="paint6_linear_1280_591" x1="144.928" y1="137.36" x2="139.709" y2="320.259" gradientUnits="userSpaceOnUse">
<stop stop-color="#333333" stop-opacity="0.8"/>
<stop offset="0.14" stop-color="#222222" stop-opacity="0.87"/>
<stop offset="0.36" stop-color="#0F0F0F" stop-opacity="0.94"/>
<stop offset="0.63" stop-color="#040404" stop-opacity="0.99"/>
<stop offset="1" stop-color="#131316"/>
</linearGradient>
<linearGradient id="paint7_linear_1280_591" x1="130.741" y1="225.363" x2="109.304" y2="243.227" gradientUnits="userSpaceOnUse">
<stop stop-opacity="0"/>
<stop offset="1" stop-color="#666666"/>
</linearGradient>
<linearGradient id="paint8_linear_1280_591" x1="209.408" y1="236.565" x2="205.835" y2="215.127" gradientUnits="userSpaceOnUse">
<stop stop-color="#00F7FB"/>
<stop offset="1" stop-opacity="0"/>
</linearGradient>
</defs>
</svg>
