<svg width="188" height="94" viewBox="0 0 188 94" fill="none" xmlns="http://www.w3.org/2000/svg">
<g filter="url(#filter0_d_1247_222)">
<path d="M162.477 2.84398C169.484 1.27301 176.435 5.67836 178.006 12.6851L183.256 36.1037C184.827 43.1105 180.422 50.0619 173.415 51.6328L25.0971 84.8855C18.0904 86.4564 11.1389 82.0512 9.56804 75.0444L4.31761 51.6258C2.74671 44.619 7.15199 37.6676 14.1587 36.0967L162.477 2.84398Z" fill="white"/>
</g>
<path d="M35.4564 40.8353C39.2293 39.9894 42.9723 42.3615 43.8182 46.1343L47.259 61.4814C48.1049 65.2544 45.7329 68.9974 41.9599 69.8432L26.6128 73.2841C22.8399 74.1299 19.0969 71.7579 18.251 67.985L14.8102 52.6379C13.9643 48.865 16.3364 45.1219 20.1092 44.2761L35.4564 40.8353Z" fill="black"/>
<path d="M28.3691 64.5081L35.8394 62.8332" stroke="white" stroke-width="2"/>
<path d="M36.3926 51.6945L38.049 59.0826" stroke="white" stroke-width="2"/>
<path d="M25.4443 51.461L32.9146 49.7862" stroke="white" stroke-width="2"/>
<path d="M23.8999 54.4963L25.5563 61.8844" stroke="white" stroke-width="2"/>
<path fill-rule="evenodd" clip-rule="evenodd" d="M21.7698 47.6096C19.6821 48.0776 18.3832 50.2121 18.8686 52.377C19.354 54.542 21.4398 55.9176 23.5275 55.4496C25.6151 54.9815 26.914 52.847 26.4286 50.6821C25.9432 48.5171 23.8574 47.1415 21.7698 47.6096ZM21.6983 53.2311C21.2378 52.9274 20.9451 52.4969 20.8202 51.9395C20.6622 51.235 20.7223 50.6803 21.0004 50.2752C21.2404 49.9257 21.6427 49.6877 22.2073 49.5611C23.4263 49.2878 24.1828 49.8073 24.4771 51.1196C24.7713 52.4319 24.3089 53.2247 23.0899 53.498C22.5989 53.6081 22.135 53.5191 21.6983 53.2311Z" fill="white"/>
<path fill-rule="evenodd" clip-rule="evenodd" d="M35.3781 44.5586C33.2905 45.0266 31.9916 47.1611 32.477 49.3261C32.9624 51.491 35.0482 52.8666 37.1359 52.3986C39.2235 51.9306 40.5224 49.7961 40.037 47.6311C39.5516 45.4662 37.4658 44.0905 35.3781 44.5586ZM35.3067 50.1801C34.8462 49.8764 34.5535 49.4459 34.4286 48.8885C34.2706 48.1841 34.3307 47.6293 34.6088 47.2242C34.8488 46.8748 35.2511 46.6367 35.8157 46.5101C37.0346 46.2369 37.7912 46.7564 38.0854 48.0687C38.3797 49.381 37.9173 50.1738 36.6983 50.447C36.2073 50.5571 35.7434 50.4681 35.3067 50.1801Z" fill="white"/>
<path fill-rule="evenodd" clip-rule="evenodd" d="M38.5417 58.6703C36.4541 59.1383 35.1552 61.2728 35.6406 63.4378C36.126 65.6027 38.2118 66.9783 40.2994 66.5103C42.3871 66.0422 43.686 63.9078 43.2006 61.7428C42.7152 59.5779 40.6294 58.2022 38.5417 58.6703ZM38.4703 64.2918C38.0098 63.9881 37.7171 63.5576 37.5921 63.0002C37.4342 62.2957 37.4943 61.741 37.7724 61.3359C38.0124 60.9865 38.4147 60.7484 38.9793 60.6218C40.1982 60.3486 40.9548 60.8681 41.249 62.1804C41.5432 63.4927 41.0809 64.2854 39.8619 64.5587C39.3709 64.6688 38.907 64.5798 38.4703 64.2918Z" fill="white"/>
<path fill-rule="evenodd" clip-rule="evenodd" d="M24.9338 61.7212C22.8462 62.1893 21.5473 64.3238 22.0327 66.4887C22.518 68.6537 24.6039 70.0293 26.6915 69.5613C28.7792 69.0932 30.0781 66.9587 29.5927 64.7938C29.1073 62.6288 27.0214 61.2532 24.9338 61.7212ZM24.8624 67.3428C24.4019 67.0391 24.1092 66.6086 23.9842 66.0512C23.69 64.7389 24.1524 63.9461 25.3713 63.6728C26.5903 63.3995 27.3469 63.919 27.6411 65.2313C27.9353 66.5436 27.473 67.3364 26.254 67.6097C25.763 67.7198 25.2991 67.6308 24.8624 67.3428Z" fill="white"/>
<path fill-rule="evenodd" clip-rule="evenodd" d="M64.0242 47.2052L62.2082 50.0707L65.0738 51.8866L66.8898 49.0211L64.0242 47.2052ZM67.9604 47.3318L69.6497 48.4023L68.5791 50.0916L65.6925 54.6464L61.1376 51.76L59.4482 50.6895L60.5188 49.0001L63.4054 44.4453L67.9604 47.3318Z" fill="black"/>
<path fill-rule="evenodd" clip-rule="evenodd" d="M71.5173 51.9539L69.7014 54.8194L72.5669 56.6353L74.3829 53.7698L71.5173 51.9539ZM75.4535 52.0805L77.1429 53.151L76.0723 54.8404L73.1857 59.3952L68.6308 56.5087L66.9414 55.4382L68.012 53.7489L70.8986 49.194L75.4535 52.0805Z" fill="black"/>
<path fill-rule="evenodd" clip-rule="evenodd" d="M76.2649 44.4607L74.4489 47.3262L77.3145 49.1421L79.1305 46.2766L76.2649 44.4607ZM80.2011 44.5873L81.8904 45.6579L80.8198 47.3472L77.9332 51.902L73.3783 49.0156L71.689 47.945L75.6461 41.7008L80.2011 44.5873Z" fill="black"/>
<path fill-rule="evenodd" clip-rule="evenodd" d="M68.7727 39.7118L66.9567 42.5773L69.8223 44.3932L71.6383 41.5277L68.7727 39.7118ZM72.7089 39.8384L74.3982 40.909L73.3276 42.5983L70.441 47.1531L65.8861 44.2667L64.1968 43.1961L65.2674 41.5068L68.154 36.9519L72.7089 39.8384Z" fill="black"/>
<path d="M147.032 20.8049L150.094 34.4658C150.336 35.5436 151.406 36.2215 152.484 35.9798L166.144 32.9171" stroke="black" stroke-width="2" stroke-linecap="round" stroke-linejoin="round"/>
<path d="M163.117 37.6952L160.054 24.0343C159.812 22.9565 158.743 22.2787 157.665 22.5203L144.004 25.5831" stroke="black" stroke-width="2" stroke-linecap="round" stroke-linejoin="round"/>
<path d="M150.598 35.3555L161.729 17.7916" stroke="black" stroke-width="2" stroke-linecap="round" stroke-linejoin="round"/>
<path fill-rule="evenodd" clip-rule="evenodd" d="M110.71 27.9235C104.782 29.2525 101.053 35.1355 102.383 41.0635C103.712 46.9914 109.595 50.7196 115.523 49.3906C121.45 48.0616 125.179 42.1785 123.85 36.2506C122.521 30.3226 116.638 26.5945 110.71 27.9235ZM108.298 46.2591C106.199 44.9288 104.878 43.051 104.334 40.626C103.79 38.2009 104.184 35.9387 105.514 33.8395C106.844 31.7402 108.722 30.4188 111.147 29.8751C113.572 29.3314 115.834 29.7247 117.934 31.055C120.033 32.3854 121.354 34.2631 121.898 36.6881C122.442 39.1132 122.048 41.3754 120.718 43.4747C119.388 45.5739 117.51 46.8953 115.085 47.439C112.66 47.9827 110.398 47.5894 108.298 46.2591Z" fill="black"/>
<defs>
<filter id="filter0_d_1247_222" x="0" y="2.52612" width="187.574" height="90.6772" filterUnits="userSpaceOnUse" color-interpolation-filters="sRGB">
<feFlood flood-opacity="0" result="BackgroundImageFix"/>
<feColorMatrix in="SourceAlpha" type="matrix" values="0 0 0 0 0 0 0 0 0 0 0 0 0 0 0 0 0 0 127 0" result="hardAlpha"/>
<feOffset dy="4"/>
<feGaussianBlur stdDeviation="2"/>
<feColorMatrix type="matrix" values="0 0 0 0 0 0 0 0 0 0 0 0 0 0 0 0 0 0 0.04 0"/>
<feBlend mode="normal" in2="BackgroundImageFix" result="effect1_dropShadow_1247_222"/>
<feBlend mode="normal" in="SourceGraphic" in2="effect1_dropShadow_1247_222" result="shape"/>
</filter>
</defs>
</svg>
