<svg width="79" height="47" viewBox="0 0 79 47" fill="none" xmlns="http://www.w3.org/2000/svg">
<g clip-path="url(#clip0_1247_270)">
<path fill-rule="evenodd" clip-rule="evenodd" d="M39.1327 23.2591C37.7731 13.1327 44.88 3.82141 55.0064 2.4618C65.1328 1.10218 74.444 8.20907 75.8036 18.3355C77.1633 28.4619 70.0564 37.7731 59.93 39.1327C49.8036 40.4924 40.4923 33.3855 39.1327 23.2591Z" fill="#E8E5E2"/>
<path fill-rule="evenodd" clip-rule="evenodd" d="M20.7972 25.7209C19.4376 15.5945 26.5445 6.2832 36.6709 4.92359C46.7974 3.56398 56.1086 10.6709 57.4682 20.7973C58.8278 30.9237 51.7209 40.2349 41.5945 41.5945C31.4681 42.9541 22.1569 35.8473 20.7972 25.7209Z" fill="#B7F790"/>
<path fill-rule="evenodd" clip-rule="evenodd" d="M2.46179 28.1826C1.10218 18.0562 8.20907 8.74499 18.3355 7.38538C28.4619 6.02577 37.7731 13.1327 39.1327 23.2591C40.4924 33.3855 33.3855 42.6967 23.2591 44.0563C13.1327 45.4159 3.82141 38.3091 2.46179 28.1826Z" fill="#036417"/>
</g>
<defs>
<clipPath id="clip0_1247_270">
<rect width="74" height="37" fill="white" transform="translate(0 9.84718) rotate(-7.64703)"/>
</clipPath>
</defs>
</svg>
