<?xml version="1.0" encoding="utf-8"?>
<svg width="121.479" height="14" viewBox="0 0 121.479 14" fill="none" xmlns="http://www.w3.org/2000/svg">
  <defs>
    <path id="path_1" d="M1.16807 0C1.81326 0 2.33613 0.522874 2.33613 1.16807L2.33613 12.8319C2.33613 13.4771 1.81326 14 1.16807 14L1.16807 14C0.522874 14 0 13.4771 0 12.8319L0 1.16807C0 0.522874 0.522874 0 1.16807 0ZM4.67227 0C5.31746 0 5.84034 0.522874 5.84034 1.16807L5.84034 12.8319C5.84034 13.4771 5.31746 14 4.67227 14L4.67227 14C4.02708 14 3.5042 13.4771 3.5042 12.8319L3.5042 1.16807C3.5042 0.522874 4.02708 0 4.67227 0ZM8.17647 0C8.82166 0 9.34454 0.522874 9.34454 1.16807L9.34454 12.8319C9.34454 13.4771 8.82166 14 8.17647 14L8.17647 14C7.53128 14 7.0084 13.4771 7.0084 12.8319L7.0084 1.16807C7.0084 0.522874 7.53128 0 8.17647 0ZM11.6807 0C12.3259 0 12.8487 0.522874 12.8487 1.16807L12.8487 12.8319C12.8487 13.4771 12.3259 14 11.6807 14L11.6807 14C11.0355 14 10.5126 13.4771 10.5126 12.8319L10.5126 1.16807C10.5126 0.522874 11.0355 0 11.6807 0ZM15.1849 0C15.8301 0 16.3529 0.522874 16.3529 1.16807L16.3529 12.8319C16.3529 13.4771 15.8301 14 15.1849 14L15.1849 14C14.5397 14 14.0168 13.4771 14.0168 12.8319L14.0168 1.16807C14.0168 0.522874 14.5397 0 15.1849 0ZM18.6891 0C19.3343 0 19.8571 0.522874 19.8571 1.16807L19.8571 12.8319C19.8571 13.4771 19.3343 14 18.6891 14L18.6891 14C18.0439 14 17.521 13.4771 17.521 12.8319L17.521 1.16807C17.521 0.522874 18.0439 0 18.6891 0ZM22.1933 0C22.8385 0 23.3613 0.522874 23.3613 1.16807L23.3613 12.8319C23.3613 13.4771 22.8385 14 22.1933 14L22.1933 14C21.5481 14 21.0252 13.4771 21.0252 12.8319L21.0252 1.16807C21.0252 0.522874 21.5481 0 22.1933 0ZM25.6975 0C26.3427 0 26.8655 0.522874 26.8655 1.16807L26.8655 12.8319C26.8655 13.4771 26.3427 14 25.6975 14L25.6975 14C25.0523 14 24.5294 13.4771 24.5294 12.8319L24.5294 1.16807C24.5294 0.522874 25.0523 0 25.6975 0ZM29.2017 0C29.8469 0 30.3697 0.522874 30.3697 1.16807L30.3697 12.8319C30.3697 13.4771 29.8469 14 29.2017 14L29.2017 14C28.5565 14 28.0336 13.4771 28.0336 12.8319L28.0336 1.16807C28.0336 0.522874 28.5565 0 29.2017 0ZM32.7059 0C33.3511 0 33.874 0.522874 33.874 1.16807L33.874 12.8319C33.874 13.4771 33.3511 14 32.7059 14L32.7059 14C32.0607 14 31.5378 13.4771 31.5378 12.8319L31.5378 1.16807C31.5378 0.522874 32.0607 0 32.7059 0ZM36.2101 0C36.8553 0 37.3782 0.522874 37.3782 1.16807L37.3782 12.8319C37.3782 13.4771 36.8553 14 36.2101 14L36.2101 14C35.5649 14 35.042 13.4771 35.042 12.8319L35.042 1.16807C35.042 0.522874 35.5649 0 36.2101 0ZM39.7143 0C40.3595 0 40.8824 0.522874 40.8824 1.16807L40.8824 12.8319C40.8824 13.4771 40.3595 14 39.7143 14L39.7143 14C39.0691 14 38.5462 13.4771 38.5462 12.8319L38.5462 1.16807C38.5462 0.522874 39.0691 0 39.7143 0ZM43.2185 0C43.8637 0 44.3866 0.522874 44.3866 1.16807L44.3866 12.8319C44.3866 13.4771 43.8637 14 43.2185 14L43.2185 14C42.5733 14 42.0504 13.4771 42.0504 12.8319L42.0504 1.16807C42.0504 0.522874 42.5733 0 43.2185 0ZM46.7227 0C47.3679 0 47.8908 0.522874 47.8908 1.16807L47.8908 12.8319C47.8908 13.4771 47.3679 14 46.7227 14L46.7227 14C46.0775 14 45.5546 13.4771 45.5546 12.8319L45.5546 1.16807C45.5546 0.522874 46.0775 0 46.7227 0ZM50.2269 0C50.8721 0 51.395 0.522874 51.395 1.16807L51.395 12.8319C51.395 13.4771 50.8721 14 50.2269 14L50.2269 14C49.5817 14 49.0589 13.4771 49.0589 12.8319L49.0589 1.16807C49.0589 0.522874 49.5817 0 50.2269 0ZM53.7311 0C54.3763 0 54.8992 0.522874 54.8992 1.16807L54.8992 12.8319C54.8992 13.4771 54.3763 14 53.7311 14L53.7311 14C53.0859 14 52.5631 13.4771 52.5631 12.8319L52.5631 1.16807C52.5631 0.522874 53.0859 0 53.7311 0ZM57.2353 0C57.8805 0 58.4034 0.522874 58.4034 1.16807L58.4034 12.8319C58.4034 13.4771 57.8805 14 57.2353 14L57.2353 14C56.5901 14 56.0673 13.4771 56.0673 12.8319L56.0673 1.16807C56.0673 0.522874 56.5901 0 57.2353 0ZM60.7395 0C61.3847 0 61.9076 0.522874 61.9076 1.16807L61.9076 12.8319C61.9076 13.4771 61.3847 14 60.7395 14L60.7395 14C60.0943 14 59.5715 13.4771 59.5715 12.8319L59.5715 1.16807C59.5715 0.522874 60.0943 0 60.7395 0ZM64.2437 0C64.8889 0 65.4118 0.522874 65.4118 1.16807L65.4118 12.8319C65.4118 13.4771 64.8889 14 64.2437 14L64.2437 14C63.5985 14 63.0757 13.4771 63.0757 12.8319L63.0757 1.16807C63.0757 0.522874 63.5985 0 64.2437 0ZM67.7479 0C68.3931 0 68.916 0.522874 68.916 1.16807L68.916 12.8319C68.916 13.4771 68.3931 14 67.7479 14L67.7479 14C67.1027 14 66.5799 13.4771 66.5799 12.8319L66.5799 1.16807C66.5799 0.522874 67.1027 0 67.7479 0ZM71.2521 0C71.8973 0 72.4202 0.522874 72.4202 1.16807L72.4202 12.8319C72.4202 13.4771 71.8973 14 71.2521 14L71.2521 14C70.6069 14 70.0841 13.4771 70.0841 12.8319L70.0841 1.16807C70.0841 0.522874 70.6069 0 71.2521 0ZM74.7563 0C75.4015 0 75.9244 0.522874 75.9244 1.16807L75.9244 12.8319C75.9244 13.4771 75.4015 14 74.7563 14L74.7563 14C74.1112 14 73.5883 13.4771 73.5883 12.8319L73.5883 1.16807C73.5883 0.522874 74.1112 0 74.7563 0ZM78.2606 0C78.9057 0 79.4286 0.522874 79.4286 1.16807L79.4286 12.8319C79.4286 13.4771 78.9057 14 78.2606 14L78.2606 14C77.6154 14 77.0925 13.4771 77.0925 12.8319L77.0925 1.16807C77.0925 0.522874 77.6154 0 78.2606 0ZM81.7648 0C82.41 0 82.9328 0.522874 82.9328 1.16807L82.9328 12.8319C82.9328 13.4771 82.41 14 81.7648 14L81.7648 14C81.1196 14 80.5967 13.4771 80.5967 12.8319L80.5967 1.16807C80.5967 0.522874 81.1196 0 81.7648 0ZM85.269 0C85.9142 0 86.437 0.522874 86.437 1.16807L86.437 12.8319C86.437 13.4771 85.9142 14 85.269 14L85.269 14C84.6238 14 84.1009 13.4771 84.1009 12.8319L84.1009 1.16807C84.1009 0.522874 84.6238 0 85.269 0ZM88.7732 0C89.4184 0 89.9412 0.522874 89.9412 1.16807L89.9412 12.8319C89.9412 13.4771 89.4184 14 88.7732 14L88.7732 14C88.128 14 87.6051 13.4771 87.6051 12.8319L87.6051 1.16807C87.6051 0.522874 88.128 0 88.7732 0ZM92.2774 0C92.9226 0 93.4454 0.522874 93.4454 1.16807L93.4454 12.8319C93.4454 13.4771 92.9226 14 92.2774 14L92.2774 14C91.6322 14 91.1093 13.4771 91.1093 12.8319L91.1093 1.16807C91.1093 0.522874 91.6322 0 92.2774 0ZM95.7816 0C96.4268 0 96.9496 0.522874 96.9496 1.16807L96.9496 12.8319C96.9496 13.4771 96.4268 14 95.7816 14L95.7816 14C95.1364 14 94.6135 13.4771 94.6135 12.8319L94.6135 1.16807C94.6135 0.522874 95.1364 0 95.7816 0ZM99.2858 0C99.931 0 100.454 0.522874 100.454 1.16807L100.454 12.8319C100.454 13.4771 99.931 14 99.2858 14L99.2858 14C98.6406 14 98.1177 13.4771 98.1177 12.8319L98.1177 1.16807C98.1177 0.522874 98.6406 0 99.2858 0ZM102.79 0C103.435 0 103.958 0.522874 103.958 1.16807L103.958 12.8319C103.958 13.4771 103.435 14 102.79 14L102.79 14C102.145 14 101.622 13.4771 101.622 12.8319L101.622 1.16807C101.622 0.522874 102.145 0 102.79 0ZM106.294 0C106.939 0 107.462 0.522874 107.462 1.16807L107.462 12.8319C107.462 13.4771 106.939 14 106.294 14L106.294 14C105.649 14 105.126 13.4771 105.126 12.8319L105.126 1.16807C105.126 0.522874 105.649 0 106.294 0ZM109.798 0C110.444 0 110.966 0.522874 110.966 1.16807L110.966 12.8319C110.966 13.4771 110.444 14 109.798 14L109.798 14C109.153 14 108.63 13.4771 108.63 12.8319L108.63 1.16807C108.63 0.522874 109.153 0 109.798 0ZM113.303 0C113.948 0 114.471 0.522874 114.471 1.16807L114.471 12.8319C114.471 13.4771 113.948 14 113.303 14L113.303 14C112.657 14 112.135 13.4771 112.135 12.8319L112.135 1.16807C112.135 0.522874 112.657 0 113.303 0ZM116.807 0C117.452 0 117.975 0.522874 117.975 1.16807L117.975 12.8319C117.975 13.4771 117.452 14 116.807 14L116.807 14C116.162 14 115.639 13.4771 115.639 12.8319L115.639 1.16807C115.639 0.522874 116.162 0 116.807 0ZM120.311 0C120.956 0 121.479 0.522874 121.479 1.16807L121.479 12.8319C121.479 13.4771 120.956 14 120.311 14L120.311 14C119.666 14 119.143 13.4771 119.143 12.8319L119.143 1.16807C119.143 0.522874 119.666 0 120.311 0Z" />
    <clipPath id="clip_path_2">
      <use p4:href="#path_1" xmlns:p4="http://www.w3.org/1999/xlink" />
    </clipPath>
    <linearGradient id="gradient_3" gradientUnits="userSpaceOnUse" x1="29" y1="8.581" x2="0" y2="8.581">
      <stop offset="0" stop-color="#81ADFF" />
      <stop offset="0.32" stop-color="#65D8FF" />
      <stop offset="0.807" stop-color="#6BF057" />
      <stop offset="1" stop-color="#E1FF4B" />
    </linearGradient>
  </defs>
  <g id="gradient-scale">
    <g id="lines">
      <path id="Rectangle" d="M1.16807 0C1.81326 0 2.33613 0.522874 2.33613 1.16807L2.33613 12.8319C2.33613 13.4771 1.81326 14 1.16807 14L1.16807 14C0.522874 14 0 13.4771 0 12.8319L0 1.16807C0 0.522874 0.522874 0 1.16807 0Z" fill="#DEDEDE" />
      <path id="Rectangle" d="M1.16807 0C1.81326 0 2.33613 0.522874 2.33613 1.16807L2.33613 12.8319C2.33613 13.4771 1.81326 14 1.16807 14L1.16807 14C0.522874 14 0 13.4771 0 12.8319L0 1.16807C0 0.522874 0.522874 0 1.16807 0Z" fill="#DEDEDE" transform="translate(3.504 0)" />
      <path id="Rectangle" d="M1.16807 0C1.81326 0 2.33613 0.522874 2.33613 1.16807L2.33613 12.8319C2.33613 13.4771 1.81326 14 1.16807 14L1.16807 14C0.522874 14 0 13.4771 0 12.8319L0 1.16807C0 0.522874 0.522874 0 1.16807 0Z" fill="#DEDEDE" transform="translate(7.008 0)" />
      <path id="Rectangle" d="M1.16807 0C1.81326 0 2.33613 0.522874 2.33613 1.16807L2.33613 12.8319C2.33613 13.4771 1.81326 14 1.16807 14L1.16807 14C0.522874 14 0 13.4771 0 12.8319L0 1.16807C0 0.522874 0.522874 0 1.16807 0Z" fill="#DEDEDE" transform="translate(10.513 0)" />
      <path id="Rectangle" d="M1.16807 0C1.81326 0 2.33613 0.522874 2.33613 1.16807L2.33613 12.8319C2.33613 13.4771 1.81326 14 1.16807 14L1.16807 14C0.522874 14 0 13.4771 0 12.8319L0 1.16807C0 0.522874 0.522874 0 1.16807 0Z" fill="#DEDEDE" transform="translate(14.017 0)" />
      <path id="Rectangle" d="M1.16807 0C1.81326 0 2.33613 0.522874 2.33613 1.16807L2.33613 12.8319C2.33613 13.4771 1.81326 14 1.16807 14L1.16807 14C0.522873 14 0 13.4771 0 12.8319L0 1.16807C0 0.522874 0.522873 0 1.16807 0Z" fill="#DEDEDE" transform="translate(17.521 0)" />
      <path id="Rectangle" d="M1.16807 0C1.81326 0 2.33613 0.522874 2.33613 1.16807L2.33613 12.8319C2.33613 13.4771 1.81326 14 1.16807 14L1.16807 14C0.522873 14 0 13.4771 0 12.8319L0 1.16807C0 0.522874 0.522873 0 1.16807 0Z" fill="#DEDEDE" transform="translate(21.025 0)" />
      <path id="Rectangle" d="M1.16807 0C1.81326 0 2.33613 0.522874 2.33613 1.16807L2.33613 12.8319C2.33613 13.4771 1.81326 14 1.16807 14L1.16807 14C0.522873 14 0 13.4771 0 12.8319L0 1.16807C0 0.522874 0.522873 0 1.16807 0Z" fill="#DEDEDE" transform="translate(24.529 0)" />
      <path id="Rectangle" d="M1.16807 0C1.81326 0 2.33613 0.522874 2.33613 1.16807L2.33613 12.8319C2.33613 13.4771 1.81326 14 1.16807 14L1.16807 14C0.522873 14 0 13.4771 0 12.8319L0 1.16807C0 0.522874 0.522873 0 1.16807 0Z" fill="#DEDEDE" transform="translate(28.034 0)" />
      <path id="Rectangle" d="M1.16807 0C1.81326 0 2.33614 0.522874 2.33614 1.16807L2.33614 12.8319C2.33614 13.4771 1.81326 14 1.16807 14L1.16807 14C0.522873 14 0 13.4771 0 12.8319L0 1.16807C0 0.522874 0.522873 0 1.16807 0Z" fill="#DEDEDE" transform="translate(31.538 0)" />
      <path id="Rectangle" d="M1.16807 0C1.81326 0 2.33614 0.522874 2.33614 1.16807L2.33614 12.8319C2.33614 13.4771 1.81326 14 1.16807 14L1.16807 14C0.522873 14 0 13.4771 0 12.8319L0 1.16807C0 0.522874 0.522873 0 1.16807 0Z" fill="#DEDEDE" transform="translate(35.042 0)" />
      <path id="Rectangle" d="M1.16807 0C1.81326 0 2.33614 0.522874 2.33614 1.16807L2.33614 12.8319C2.33614 13.4771 1.81326 14 1.16807 14L1.16807 14C0.522873 14 0 13.4771 0 12.8319L0 1.16807C0 0.522874 0.522873 0 1.16807 0Z" fill="#DEDEDE" transform="translate(38.546 0)" />
      <path id="Rectangle" d="M1.16807 0C1.81326 0 2.33614 0.522874 2.33614 1.16807L2.33614 12.8319C2.33614 13.4771 1.81326 14 1.16807 14L1.16807 14C0.522873 14 0 13.4771 0 12.8319L0 1.16807C0 0.522874 0.522873 0 1.16807 0Z" fill="#DEDEDE" transform="translate(42.05 0)" />
      <path id="Rectangle" d="M1.16807 0C1.81326 0 2.33614 0.522874 2.33614 1.16807L2.33614 12.8319C2.33614 13.4771 1.81326 14 1.16807 14L1.16807 14C0.522873 14 0 13.4771 0 12.8319L0 1.16807C0 0.522874 0.522873 0 1.16807 0Z" fill="#DEDEDE" transform="translate(45.555 0)" />
      <path id="Rectangle" d="M1.16807 0C1.81326 0 2.33614 0.522874 2.33614 1.16807L2.33614 12.8319C2.33614 13.4771 1.81326 14 1.16807 14L1.16807 14C0.522873 14 0 13.4771 0 12.8319L0 1.16807C0 0.522874 0.522873 0 1.16807 0Z" fill="#DEDEDE" transform="translate(49.059 0)" />
      <path id="Rectangle" d="M1.16807 0C1.81326 0 2.33614 0.522874 2.33614 1.16807L2.33614 12.8319C2.33614 13.4771 1.81326 14 1.16807 14L1.16807 14C0.522873 14 0 13.4771 0 12.8319L0 1.16807C0 0.522874 0.522873 0 1.16807 0Z" fill="#DEDEDE" transform="translate(52.563 0)" />
      <path id="Rectangle" d="M1.16807 0C1.81326 0 2.33614 0.522874 2.33614 1.16807L2.33614 12.8319C2.33614 13.4771 1.81326 14 1.16807 14L1.16807 14C0.522873 14 0 13.4771 0 12.8319L0 1.16807C0 0.522874 0.522873 0 1.16807 0Z" fill="#DEDEDE" transform="translate(56.067 0)" />
      <path id="Rectangle" d="M1.16807 0C1.81326 0 2.33614 0.522874 2.33614 1.16807L2.33614 12.8319C2.33614 13.4771 1.81326 14 1.16807 14L1.16807 14C0.522873 14 0 13.4771 0 12.8319L0 1.16807C0 0.522874 0.522873 0 1.16807 0Z" fill="#DEDEDE" transform="translate(59.571 0)" />
      <path id="Rectangle" d="M1.16807 0C1.81326 0 2.33614 0.522874 2.33614 1.16807L2.33614 12.8319C2.33614 13.4771 1.81326 14 1.16807 14L1.16807 14C0.522873 14 0 13.4771 0 12.8319L0 1.16807C0 0.522874 0.522873 0 1.16807 0Z" fill="#DEDEDE" transform="translate(63.076 0)" />
      <path id="Rectangle" d="M1.16807 0C1.81326 0 2.33614 0.522874 2.33614 1.16807L2.33614 12.8319C2.33614 13.4771 1.81326 14 1.16807 14L1.16807 14C0.522873 14 0 13.4771 0 12.8319L0 1.16807C0 0.522874 0.522873 0 1.16807 0Z" fill="#DEDEDE" transform="translate(66.58 0)" />
      <path id="Rectangle" d="M1.16807 0C1.81326 0 2.33614 0.522874 2.33614 1.16807L2.33614 12.8319C2.33614 13.4771 1.81326 14 1.16807 14L1.16807 14C0.522873 14 0 13.4771 0 12.8319L0 1.16807C0 0.522874 0.522873 0 1.16807 0Z" fill="#DEDEDE" transform="translate(70.084 0)" />
      <path id="Rectangle" d="M1.16807 0C1.81326 0 2.33614 0.522874 2.33614 1.16807L2.33614 12.8319C2.33614 13.4771 1.81326 14 1.16807 14L1.16807 14C0.522873 14 0 13.4771 0 12.8319L0 1.16807C0 0.522874 0.522873 0 1.16807 0Z" fill="#DEDEDE" transform="translate(73.588 0)" />
      <path id="Rectangle" d="M1.16807 0C1.81326 0 2.33614 0.522874 2.33614 1.16807L2.33614 12.8319C2.33614 13.4771 1.81326 14 1.16807 14L1.16807 14C0.522873 14 0 13.4771 0 12.8319L0 1.16807C0 0.522874 0.522873 0 1.16807 0Z" fill="#DEDEDE" transform="translate(77.092 0)" />
      <path id="Rectangle" d="M1.16807 0C1.81326 0 2.33614 0.522874 2.33614 1.16807L2.33614 12.8319C2.33614 13.4771 1.81326 14 1.16807 14L1.16807 14C0.522873 14 0 13.4771 0 12.8319L0 1.16807C0 0.522874 0.522873 0 1.16807 0Z" fill="#DEDEDE" transform="translate(80.597 0)" />
      <path id="Rectangle" d="M1.16807 0C1.81326 0 2.33614 0.522874 2.33614 1.16807L2.33614 12.8319C2.33614 13.4771 1.81326 14 1.16807 14L1.16807 14C0.522873 14 0 13.4771 0 12.8319L0 1.16807C0 0.522874 0.522873 0 1.16807 0Z" fill="#DEDEDE" transform="translate(84.101 0)" />
      <path id="Rectangle" d="M1.16807 0C1.81326 0 2.33614 0.522874 2.33614 1.16807L2.33614 12.8319C2.33614 13.4771 1.81326 14 1.16807 14L1.16807 14C0.522873 14 0 13.4771 0 12.8319L0 1.16807C0 0.522874 0.522873 0 1.16807 0Z" fill="#DEDEDE" transform="translate(87.605 0)" />
      <path id="Rectangle" d="M1.16807 0C1.81326 0 2.33614 0.522874 2.33614 1.16807L2.33614 12.8319C2.33614 13.4771 1.81326 14 1.16807 14L1.16807 14C0.522873 14 0 13.4771 0 12.8319L0 1.16807C0 0.522874 0.522873 0 1.16807 0Z" fill="#DEDEDE" transform="translate(91.109 0)" />
      <path id="Rectangle" d="M1.16807 0C1.81326 0 2.33614 0.522874 2.33614 1.16807L2.33614 12.8319C2.33614 13.4771 1.81326 14 1.16807 14L1.16807 14C0.522873 14 0 13.4771 0 12.8319L0 1.16807C0 0.522874 0.522873 0 1.16807 0Z" fill="#DEDEDE" transform="translate(94.614 0)" />
      <path id="Rectangle" d="M1.16807 0C1.81326 0 2.33614 0.522874 2.33614 1.16807L2.33614 12.8319C2.33614 13.4771 1.81326 14 1.16807 14L1.16807 14C0.522873 14 0 13.4771 0 12.8319L0 1.16807C0 0.522874 0.522873 0 1.16807 0Z" fill="#DEDEDE" transform="translate(98.118 0)" />
      <path id="Rectangle" d="M1.16807 0C1.81326 0 2.33614 0.522874 2.33614 1.16807L2.33614 12.8319C2.33614 13.4771 1.81326 14 1.16807 14L1.16807 14C0.522873 14 0 13.4771 0 12.8319L0 1.16807C0 0.522874 0.522873 0 1.16807 0Z" fill="#DEDEDE" transform="translate(101.622 0)" />
      <path id="Rectangle" d="M1.16807 0C1.81326 0 2.33614 0.522874 2.33614 1.16807L2.33614 12.8319C2.33614 13.4771 1.81326 14 1.16807 14L1.16807 14C0.522873 14 0 13.4771 0 12.8319L0 1.16807C0 0.522874 0.522873 0 1.16807 0Z" fill="#DEDEDE" transform="translate(105.126 0)" />
      <path id="Rectangle" d="M1.16807 0C1.81326 0 2.33614 0.522874 2.33614 1.16807L2.33614 12.8319C2.33614 13.4771 1.81326 14 1.16807 14L1.16807 14C0.522873 14 0 13.4771 0 12.8319L0 1.16807C0 0.522874 0.522873 0 1.16807 0Z" fill="#DEDEDE" transform="translate(108.63 0)" />
      <path id="Rectangle" d="M1.16807 0C1.81326 0 2.33614 0.522874 2.33614 1.16807L2.33614 12.8319C2.33614 13.4771 1.81326 14 1.16807 14L1.16807 14C0.522873 14 0 13.4771 0 12.8319L0 1.16807C0 0.522874 0.522873 0 1.16807 0Z" fill="#DEDEDE" transform="translate(112.135 0)" />
      <path id="Rectangle" d="M1.16807 0C1.81326 0 2.33614 0.522874 2.33614 1.16807L2.33614 12.8319C2.33614 13.4771 1.81326 14 1.16807 14L1.16807 14C0.522873 14 0 13.4771 0 12.8319L0 1.16807C0 0.522874 0.522873 0 1.16807 0Z" fill="#DEDEDE" transform="translate(115.639 0)" />
      <path id="Rectangle" d="M1.16807 0C1.81326 0 2.33614 0.522874 2.33614 1.16807L2.33614 12.8319C2.33614 13.4771 1.81326 14 1.16807 14L1.16807 14C0.522873 14 0 13.4771 0 12.8319L0 1.16807C0 0.522874 0.522873 0 1.16807 0Z" fill="#DEDEDE" transform="translate(119.143 0)" />
    </g>
    <g clip-path="url(#clip_path_2)">
      <rect id="gradient-bar" width="29" height="14" fill="url(#gradient_3)" fill-rule="evenodd" />
    </g>
  </g>
</svg>