<?xml version="1.0" encoding="utf-8"?>
<svg width="121.479" height="20" viewBox="0 0 121.479 20" fill="none" xmlns="http://www.w3.org/2000/svg">
  <defs>
    <path id="path_1"
      d="M1.16807 3C1.81326 3 2.33613 3.52287 2.33613 4.16807L2.33613 15.8319C2.33613 16.4771 1.81326 17 1.16807 17L1.16807 17C0.522874 17 0 16.4771 0 15.8319L0 4.16807C0 3.52287 0.522874 3 1.16807 3ZM4.67227 3C5.31746 3 5.84034 3.52287 5.84034 4.16807L5.84034 15.8319C5.84034 16.4771 5.31746 17 4.67227 17L4.67227 17C4.02708 17 3.5042 16.4771 3.5042 15.8319L3.5042 4.16807C3.5042 3.52287 4.02708 3 4.67227 3ZM8.17647 3C8.82166 3 9.34454 3.52287 9.34454 4.16807L9.34454 15.8319C9.34454 16.4771 8.82166 17 8.17647 17L8.17647 17C7.53128 17 7.0084 16.4771 7.0084 15.8319L7.0084 4.16807C7.0084 3.52287 7.53128 3 8.17647 3ZM11.6807 3C12.3259 3 12.8487 3.52287 12.8487 4.16807L12.8487 15.8319C12.8487 16.4771 12.3259 17 11.6807 17L11.6807 17C11.0355 17 10.5126 16.4771 10.5126 15.8319L10.5126 4.16807C10.5126 3.52287 11.0355 3 11.6807 3ZM15.1849 3C15.8301 3 16.3529 3.52287 16.3529 4.16807L16.3529 15.8319C16.3529 16.4771 15.8301 17 15.1849 17L15.1849 17C14.5397 17 14.0168 16.4771 14.0168 15.8319L14.0168 4.16807C14.0168 3.52287 14.5397 3 15.1849 3ZM18.6891 3C19.3343 3 19.8571 3.52287 19.8571 4.16807L19.8571 15.8319C19.8571 16.4771 19.3343 17 18.6891 17L18.6891 17C18.0439 17 17.521 16.4771 17.521 15.8319L17.521 4.16807C17.521 3.52287 18.0439 3 18.6891 3ZM22.1933 3C22.8385 3 23.3613 3.52287 23.3613 4.16807L23.3613 15.8319C23.3613 16.4771 22.8385 17 22.1933 17L22.1933 17C21.5481 17 21.0252 16.4771 21.0252 15.8319L21.0252 4.16807C21.0252 3.52287 21.5481 3 22.1933 3ZM25.6975 3C26.3427 3 26.8655 3.52287 26.8655 4.16807L26.8655 15.8319C26.8655 16.4771 26.3427 17 25.6975 17L25.6975 17C25.0523 17 24.5294 16.4771 24.5294 15.8319L24.5294 4.16807C24.5294 3.52287 25.0523 3 25.6975 3ZM29.2017 3C29.8469 3 30.3697 3.52287 30.3697 4.16807L30.3697 15.8319C30.3697 16.4771 29.8469 17 29.2017 17L29.2017 17C28.5565 17 28.0336 16.4771 28.0336 15.8319L28.0336 4.16807C28.0336 3.52287 28.5565 3 29.2017 3ZM32.7059 3C33.3511 3 33.874 3.52287 33.874 4.16807L33.874 15.8319C33.874 16.4771 33.3511 17 32.7059 17L32.7059 17C32.0607 17 31.5378 16.4771 31.5378 15.8319L31.5378 4.16807C31.5378 3.52287 32.0607 3 32.7059 3ZM36.2101 3C36.8553 3 37.3782 3.52287 37.3782 4.16807L37.3782 15.8319C37.3782 16.4771 36.8553 17 36.2101 17L36.2101 17C35.5649 17 35.042 16.4771 35.042 15.8319L35.042 4.16807C35.042 3.52287 35.5649 3 36.2101 3ZM39.7143 3C40.3595 3 40.8824 3.52287 40.8824 4.16807L40.8824 15.8319C40.8824 16.4771 40.3595 17 39.7143 17L39.7143 17C39.0691 17 38.5462 16.4771 38.5462 15.8319L38.5462 4.16807C38.5462 3.52287 39.0691 3 39.7143 3ZM43.2185 3C43.8637 3 44.3866 3.52287 44.3866 4.16807L44.3866 15.8319C44.3866 16.4771 43.8637 17 43.2185 17L43.2185 17C42.5733 17 42.0504 16.4771 42.0504 15.8319L42.0504 4.16807C42.0504 3.52287 42.5733 3 43.2185 3ZM46.7227 3C47.3679 3 47.8908 3.52287 47.8908 4.16807L47.8908 15.8319C47.8908 16.4771 47.3679 17 46.7227 17L46.7227 17C46.0775 17 45.5546 16.4771 45.5546 15.8319L45.5546 4.16807C45.5546 3.52287 46.0775 3 46.7227 3ZM50.2269 3C50.8721 3 51.395 3.52287 51.395 4.16807L51.395 15.8319C51.395 16.4771 50.8721 17 50.2269 17L50.2269 17C49.5817 17 49.0589 16.4771 49.0589 15.8319L49.0589 4.16807C49.0589 3.52287 49.5817 3 50.2269 3ZM53.7311 3C54.3763 3 54.8992 3.52287 54.8992 4.16807L54.8992 15.8319C54.8992 16.4771 54.3763 17 53.7311 17L53.7311 17C53.0859 17 52.5631 16.4771 52.5631 15.8319L52.5631 4.16807C52.5631 3.52287 53.0859 3 53.7311 3ZM57.2353 3C57.8805 3 58.4034 3.52287 58.4034 4.16807L58.4034 15.8319C58.4034 16.4771 57.8805 17 57.2353 17L57.2353 17C56.5901 17 56.0673 16.4771 56.0673 15.8319L56.0673 4.16807C56.0673 3.52287 56.5901 3 57.2353 3ZM60.7395 3C61.3847 3 61.9076 3.52287 61.9076 4.16807L61.9076 15.8319C61.9076 16.4771 61.3847 17 60.7395 17L60.7395 17C60.0943 17 59.5715 16.4771 59.5715 15.8319L59.5715 4.16807C59.5715 3.52287 60.0943 3 60.7395 3ZM64 0C64.5524 0 65 0.44764 65 1L65 19C65 19.5524 64.5524 20 64 20L64 20C63.4476 20 63 19.5524 63 19L63 1C63 0.44764 63.4476 0 64 0ZM67.7479 3C68.3931 3 68.916 3.52287 68.916 4.16807L68.916 15.8319C68.916 16.4771 68.3931 17 67.7479 17L67.7479 17C67.1027 17 66.5799 16.4771 66.5799 15.8319L66.5799 4.16807C66.5799 3.52287 67.1027 3 67.7479 3ZM71.2521 3C71.8973 3 72.4202 3.52287 72.4202 4.16807L72.4202 15.8319C72.4202 16.4771 71.8973 17 71.2521 17L71.2521 17C70.6069 17 70.0841 16.4771 70.0841 15.8319L70.0841 4.16807C70.0841 3.52287 70.6069 3 71.2521 3ZM74.7563 3C75.4015 3 75.9244 3.52287 75.9244 4.16807L75.9244 15.8319C75.9244 16.4771 75.4015 17 74.7563 17L74.7563 17C74.1112 17 73.5883 16.4771 73.5883 15.8319L73.5883 4.16807C73.5883 3.52287 74.1112 3 74.7563 3ZM78.2606 3C78.9057 3 79.4286 3.52287 79.4286 4.16807L79.4286 15.8319C79.4286 16.4771 78.9057 17 78.2606 17L78.2606 17C77.6154 17 77.0925 16.4771 77.0925 15.8319L77.0925 4.16807C77.0925 3.52287 77.6154 3 78.2606 3ZM81.7648 3C82.41 3 82.9328 3.52287 82.9328 4.16807L82.9328 15.8319C82.9328 16.4771 82.41 17 81.7648 17L81.7648 17C81.1196 17 80.5967 16.4771 80.5967 15.8319L80.5967 4.16807C80.5967 3.52287 81.1196 3 81.7648 3ZM85.269 3C85.9142 3 86.437 3.52287 86.437 4.16807L86.437 15.8319C86.437 16.4771 85.9142 17 85.269 17L85.269 17C84.6238 17 84.1009 16.4771 84.1009 15.8319L84.1009 4.16807C84.1009 3.52287 84.6238 3 85.269 3ZM88.7732 3C89.4184 3 89.9412 3.52287 89.9412 4.16807L89.9412 15.8319C89.9412 16.4771 89.4184 17 88.7732 17L88.7732 17C88.128 17 87.6051 16.4771 87.6051 15.8319L87.6051 4.16807C87.6051 3.52287 88.128 3 88.7732 3ZM92.2774 3C92.9226 3 93.4454 3.52287 93.4454 4.16807L93.4454 15.8319C93.4454 16.4771 92.9226 17 92.2774 17L92.2774 17C91.6322 17 91.1093 16.4771 91.1093 15.8319L91.1093 4.16807C91.1093 3.52287 91.6322 3 92.2774 3ZM95.7816 3C96.4268 3 96.9496 3.52287 96.9496 4.16807L96.9496 15.8319C96.9496 16.4771 96.4268 17 95.7816 17L95.7816 17C95.1364 17 94.6135 16.4771 94.6135 15.8319L94.6135 4.16807C94.6135 3.52287 95.1364 3 95.7816 3ZM99.2858 3C99.931 3 100.454 3.52287 100.454 4.16807L100.454 15.8319C100.454 16.4771 99.931 17 99.2858 17L99.2858 17C98.6406 17 98.1177 16.4771 98.1177 15.8319L98.1177 4.16807C98.1177 3.52287 98.6406 3 99.2858 3ZM102.79 3C103.435 3 103.958 3.52287 103.958 4.16807L103.958 15.8319C103.958 16.4771 103.435 17 102.79 17L102.79 17C102.145 17 101.622 16.4771 101.622 15.8319L101.622 4.16807C101.622 3.52287 102.145 3 102.79 3ZM106.294 3C106.939 3 107.462 3.52287 107.462 4.16807L107.462 15.8319C107.462 16.4771 106.939 17 106.294 17L106.294 17C105.649 17 105.126 16.4771 105.126 15.8319L105.126 4.16807C105.126 3.52287 105.649 3 106.294 3ZM109.798 3C110.444 3 110.966 3.52287 110.966 4.16807L110.966 15.8319C110.966 16.4771 110.444 17 109.798 17L109.798 17C109.153 17 108.63 16.4771 108.63 15.8319L108.63 4.16807C108.63 3.52287 109.153 3 109.798 3ZM113.303 3C113.948 3 114.471 3.52287 114.471 4.16807L114.471 15.8319C114.471 16.4771 113.948 17 113.303 17L113.303 17C112.657 17 112.135 16.4771 112.135 15.8319L112.135 4.16807C112.135 3.52287 112.657 3 113.303 3ZM116.807 3C117.452 3 117.975 3.52287 117.975 4.16807L117.975 15.8319C117.975 16.4771 117.452 17 116.807 17L116.807 17C116.162 17 115.639 16.4771 115.639 15.8319L115.639 4.16807C115.639 3.52287 116.162 3 116.807 3ZM120.311 3C120.956 3 121.479 3.52287 121.479 4.16807L121.479 15.8319C121.479 16.4771 120.956 17 120.311 17L120.311 17C119.666 17 119.143 16.4771 119.143 15.8319L119.143 4.16807C119.143 3.52287 119.666 3 120.311 3Z" />
    <clipPath id="clip_path_2">
      <use p4:href="#path_1" xmlns:p4="http://www.w3.org/1999/xlink" />
    </clipPath>
    <linearGradient id="gradient_3" gradientUnits="userSpaceOnUse" x1="112" y1="12.258" x2="0" y2="12.258">
      <stop offset="0" stop-color="#DD81FF" />
      <stop offset="0.507" stop-color="#65D8FF" />
      <stop offset="0.755" stop-color="#6BF057" />
      <stop offset="0.875" stop-color="#DDEC6E" />
      <stop offset="1" stop-color="#E1F965" />
    </linearGradient>
  </defs>
  <g id="gradient-scale">
    <g id="lines">
      <path id="Rectangle"
        d="M1.16807 0C1.81326 0 2.33613 0.522874 2.33613 1.16807L2.33613 12.8319C2.33613 13.4771 1.81326 14 1.16807 14L1.16807 14C0.522874 14 0 13.4771 0 12.8319L0 1.16807C0 0.522874 0.522874 0 1.16807 0Z"
        fill="#DEDEDE" transform="translate(0 3)" />
      <path id="Rectangle"
        d="M1.16807 0C1.81326 0 2.33613 0.522874 2.33613 1.16807L2.33613 12.8319C2.33613 13.4771 1.81326 14 1.16807 14L1.16807 14C0.522874 14 0 13.4771 0 12.8319L0 1.16807C0 0.522874 0.522874 0 1.16807 0Z"
        fill="#DEDEDE" transform="translate(3.504 3)" />
      <path id="Rectangle"
        d="M1.16807 0C1.81326 0 2.33613 0.522874 2.33613 1.16807L2.33613 12.8319C2.33613 13.4771 1.81326 14 1.16807 14L1.16807 14C0.522874 14 0 13.4771 0 12.8319L0 1.16807C0 0.522874 0.522874 0 1.16807 0Z"
        fill="#DEDEDE" transform="translate(7.008 3)" />
      <path id="Rectangle"
        d="M1.16807 0C1.81326 0 2.33613 0.522874 2.33613 1.16807L2.33613 12.8319C2.33613 13.4771 1.81326 14 1.16807 14L1.16807 14C0.522874 14 0 13.4771 0 12.8319L0 1.16807C0 0.522874 0.522874 0 1.16807 0Z"
        fill="#DEDEDE" transform="translate(10.513 3)" />
      <path id="Rectangle"
        d="M1.16807 0C1.81326 0 2.33613 0.522874 2.33613 1.16807L2.33613 12.8319C2.33613 13.4771 1.81326 14 1.16807 14L1.16807 14C0.522874 14 0 13.4771 0 12.8319L0 1.16807C0 0.522874 0.522874 0 1.16807 0Z"
        fill="#DEDEDE" transform="translate(14.017 3)" />
      <path id="Rectangle"
        d="M1.16807 0C1.81326 0 2.33613 0.522874 2.33613 1.16807L2.33613 12.8319C2.33613 13.4771 1.81326 14 1.16807 14L1.16807 14C0.522873 14 0 13.4771 0 12.8319L0 1.16807C0 0.522874 0.522873 0 1.16807 0Z"
        fill="#DEDEDE" transform="translate(17.521 3)" />
      <path id="Rectangle"
        d="M1.16807 0C1.81326 0 2.33613 0.522874 2.33613 1.16807L2.33613 12.8319C2.33613 13.4771 1.81326 14 1.16807 14L1.16807 14C0.522873 14 0 13.4771 0 12.8319L0 1.16807C0 0.522874 0.522873 0 1.16807 0Z"
        fill="#DEDEDE" transform="translate(21.025 3)" />
      <path id="Rectangle"
        d="M1.16807 0C1.81326 0 2.33613 0.522874 2.33613 1.16807L2.33613 12.8319C2.33613 13.4771 1.81326 14 1.16807 14L1.16807 14C0.522873 14 0 13.4771 0 12.8319L0 1.16807C0 0.522874 0.522873 0 1.16807 0Z"
        fill="#DEDEDE" transform="translate(24.529 3)" />
      <path id="Rectangle"
        d="M1.16807 0C1.81326 0 2.33613 0.522874 2.33613 1.16807L2.33613 12.8319C2.33613 13.4771 1.81326 14 1.16807 14L1.16807 14C0.522873 14 0 13.4771 0 12.8319L0 1.16807C0 0.522874 0.522873 0 1.16807 0Z"
        fill="#DEDEDE" transform="translate(28.034 3)" />
      <path id="Rectangle"
        d="M1.16807 0C1.81326 0 2.33614 0.522874 2.33614 1.16807L2.33614 12.8319C2.33614 13.4771 1.81326 14 1.16807 14L1.16807 14C0.522873 14 0 13.4771 0 12.8319L0 1.16807C0 0.522874 0.522873 0 1.16807 0Z"
        fill="#DEDEDE" transform="translate(31.538 3)" />
      <path id="Rectangle"
        d="M1.16807 0C1.81326 0 2.33614 0.522874 2.33614 1.16807L2.33614 12.8319C2.33614 13.4771 1.81326 14 1.16807 14L1.16807 14C0.522873 14 0 13.4771 0 12.8319L0 1.16807C0 0.522874 0.522873 0 1.16807 0Z"
        fill="#DEDEDE" transform="translate(35.042 3)" />
      <path id="Rectangle"
        d="M1.16807 0C1.81326 0 2.33614 0.522874 2.33614 1.16807L2.33614 12.8319C2.33614 13.4771 1.81326 14 1.16807 14L1.16807 14C0.522873 14 0 13.4771 0 12.8319L0 1.16807C0 0.522874 0.522873 0 1.16807 0Z"
        fill="#DEDEDE" transform="translate(38.546 3)" />
      <path id="Rectangle"
        d="M1.16807 0C1.81326 0 2.33614 0.522874 2.33614 1.16807L2.33614 12.8319C2.33614 13.4771 1.81326 14 1.16807 14L1.16807 14C0.522873 14 0 13.4771 0 12.8319L0 1.16807C0 0.522874 0.522873 0 1.16807 0Z"
        fill="#DEDEDE" transform="translate(42.05 3)" />
      <path id="Rectangle"
        d="M1.16807 0C1.81326 0 2.33614 0.522874 2.33614 1.16807L2.33614 12.8319C2.33614 13.4771 1.81326 14 1.16807 14L1.16807 14C0.522873 14 0 13.4771 0 12.8319L0 1.16807C0 0.522874 0.522873 0 1.16807 0Z"
        fill="#DEDEDE" transform="translate(45.555 3)" />
      <path id="Rectangle"
        d="M1.16807 0C1.81326 0 2.33614 0.522874 2.33614 1.16807L2.33614 12.8319C2.33614 13.4771 1.81326 14 1.16807 14L1.16807 14C0.522873 14 0 13.4771 0 12.8319L0 1.16807C0 0.522874 0.522873 0 1.16807 0Z"
        fill="#DEDEDE" transform="translate(49.059 3)" />
      <path id="Rectangle"
        d="M1.16807 0C1.81326 0 2.33614 0.522874 2.33614 1.16807L2.33614 12.8319C2.33614 13.4771 1.81326 14 1.16807 14L1.16807 14C0.522873 14 0 13.4771 0 12.8319L0 1.16807C0 0.522874 0.522873 0 1.16807 0Z"
        fill="#DEDEDE" transform="translate(52.563 3)" />
      <path id="Rectangle"
        d="M1.16807 0C1.81326 0 2.33614 0.522874 2.33614 1.16807L2.33614 12.8319C2.33614 13.4771 1.81326 14 1.16807 14L1.16807 14C0.522873 14 0 13.4771 0 12.8319L0 1.16807C0 0.522874 0.522873 0 1.16807 0Z"
        fill="#DEDEDE" transform="translate(56.067 3)" />
      <path id="Rectangle"
        d="M1.16807 0C1.81326 0 2.33614 0.522874 2.33614 1.16807L2.33614 12.8319C2.33614 13.4771 1.81326 14 1.16807 14L1.16807 14C0.522873 14 0 13.4771 0 12.8319L0 1.16807C0 0.522874 0.522873 0 1.16807 0Z"
        fill="#DEDEDE" transform="translate(59.571 3)" />
      <path id="Rectangle"
        d="M1 0C1.55236 0 2 0.44764 2 1L2 19C2 19.5524 1.55236 20 1 20L1 20C0.447639 20 0 19.5524 0 19L0 1C0 0.44764 0.447639 0 1 0Z"
        fill="#DEDEDE" transform="translate(63 0)" />
      <path id="Rectangle"
        d="M1.16807 0C1.81326 0 2.33614 0.522874 2.33614 1.16807L2.33614 12.8319C2.33614 13.4771 1.81326 14 1.16807 14L1.16807 14C0.522873 14 0 13.4771 0 12.8319L0 1.16807C0 0.522874 0.522873 0 1.16807 0Z"
        fill="#DEDEDE" transform="translate(66.58 3)" />
      <path id="Rectangle"
        d="M1.16807 0C1.81326 0 2.33614 0.522874 2.33614 1.16807L2.33614 12.8319C2.33614 13.4771 1.81326 14 1.16807 14L1.16807 14C0.522873 14 0 13.4771 0 12.8319L0 1.16807C0 0.522874 0.522873 0 1.16807 0Z"
        fill="#DEDEDE" transform="translate(70.084 3)" />
      <path id="Rectangle"
        d="M1.16807 0C1.81326 0 2.33614 0.522874 2.33614 1.16807L2.33614 12.8319C2.33614 13.4771 1.81326 14 1.16807 14L1.16807 14C0.522873 14 0 13.4771 0 12.8319L0 1.16807C0 0.522874 0.522873 0 1.16807 0Z"
        fill="#DEDEDE" transform="translate(73.588 3)" />
      <path id="Rectangle"
        d="M1.16807 0C1.81326 0 2.33614 0.522874 2.33614 1.16807L2.33614 12.8319C2.33614 13.4771 1.81326 14 1.16807 14L1.16807 14C0.522873 14 0 13.4771 0 12.8319L0 1.16807C0 0.522874 0.522873 0 1.16807 0Z"
        fill="#DEDEDE" transform="translate(77.092 3)" />
      <path id="Rectangle"
        d="M1.16807 0C1.81326 0 2.33614 0.522874 2.33614 1.16807L2.33614 12.8319C2.33614 13.4771 1.81326 14 1.16807 14L1.16807 14C0.522873 14 0 13.4771 0 12.8319L0 1.16807C0 0.522874 0.522873 0 1.16807 0Z"
        fill="#DEDEDE" transform="translate(80.597 3)" />
      <path id="Rectangle"
        d="M1.16807 0C1.81326 0 2.33614 0.522874 2.33614 1.16807L2.33614 12.8319C2.33614 13.4771 1.81326 14 1.16807 14L1.16807 14C0.522873 14 0 13.4771 0 12.8319L0 1.16807C0 0.522874 0.522873 0 1.16807 0Z"
        fill="#DEDEDE" transform="translate(84.101 3)" />
      <path id="Rectangle"
        d="M1.16807 0C1.81326 0 2.33614 0.522874 2.33614 1.16807L2.33614 12.8319C2.33614 13.4771 1.81326 14 1.16807 14L1.16807 14C0.522873 14 0 13.4771 0 12.8319L0 1.16807C0 0.522874 0.522873 0 1.16807 0Z"
        fill="#DEDEDE" transform="translate(87.605 3)" />
      <path id="Rectangle"
        d="M1.16807 0C1.81326 0 2.33614 0.522874 2.33614 1.16807L2.33614 12.8319C2.33614 13.4771 1.81326 14 1.16807 14L1.16807 14C0.522873 14 0 13.4771 0 12.8319L0 1.16807C0 0.522874 0.522873 0 1.16807 0Z"
        fill="#DEDEDE" transform="translate(91.109 3)" />
      <path id="Rectangle"
        d="M1.16807 0C1.81326 0 2.33614 0.522874 2.33614 1.16807L2.33614 12.8319C2.33614 13.4771 1.81326 14 1.16807 14L1.16807 14C0.522873 14 0 13.4771 0 12.8319L0 1.16807C0 0.522874 0.522873 0 1.16807 0Z"
        fill="#DEDEDE" transform="translate(94.614 3)" />
      <path id="Rectangle"
        d="M1.16807 0C1.81326 0 2.33614 0.522874 2.33614 1.16807L2.33614 12.8319C2.33614 13.4771 1.81326 14 1.16807 14L1.16807 14C0.522873 14 0 13.4771 0 12.8319L0 1.16807C0 0.522874 0.522873 0 1.16807 0Z"
        fill="#DEDEDE" transform="translate(98.118 3)" />
      <path id="Rectangle"
        d="M1.16807 0C1.81326 0 2.33614 0.522874 2.33614 1.16807L2.33614 12.8319C2.33614 13.4771 1.81326 14 1.16807 14L1.16807 14C0.522873 14 0 13.4771 0 12.8319L0 1.16807C0 0.522874 0.522873 0 1.16807 0Z"
        fill="#DEDEDE" transform="translate(101.622 3)" />
      <path id="Rectangle"
        d="M1.16807 0C1.81326 0 2.33614 0.522874 2.33614 1.16807L2.33614 12.8319C2.33614 13.4771 1.81326 14 1.16807 14L1.16807 14C0.522873 14 0 13.4771 0 12.8319L0 1.16807C0 0.522874 0.522873 0 1.16807 0Z"
        fill="#DEDEDE" transform="translate(105.126 3)" />
      <path id="Rectangle"
        d="M1.16807 0C1.81326 0 2.33614 0.522874 2.33614 1.16807L2.33614 12.8319C2.33614 13.4771 1.81326 14 1.16807 14L1.16807 14C0.522873 14 0 13.4771 0 12.8319L0 1.16807C0 0.522874 0.522873 0 1.16807 0Z"
        fill="#DEDEDE" transform="translate(108.63 3)" />
      <path id="Rectangle"
        d="M1.16807 0C1.81326 0 2.33614 0.522874 2.33614 1.16807L2.33614 12.8319C2.33614 13.4771 1.81326 14 1.16807 14L1.16807 14C0.522873 14 0 13.4771 0 12.8319L0 1.16807C0 0.522874 0.522873 0 1.16807 0Z"
        fill="#DEDEDE" transform="translate(112.135 3)" />
      <path id="Rectangle"
        d="M1.16807 0C1.81326 0 2.33614 0.522874 2.33614 1.16807L2.33614 12.8319C2.33614 13.4771 1.81326 14 1.16807 14L1.16807 14C0.522873 14 0 13.4771 0 12.8319L0 1.16807C0 0.522874 0.522873 0 1.16807 0Z"
        fill="#DEDEDE" transform="translate(115.639 3)" />
      <path id="Rectangle"
        d="M1.16807 0C1.81326 0 2.33614 0.522874 2.33614 1.16807L2.33614 12.8319C2.33614 13.4771 1.81326 14 1.16807 14L1.16807 14C0.522873 14 0 13.4771 0 12.8319L0 1.16807C0 0.522874 0.522873 0 1.16807 0Z"
        fill="#DEDEDE" transform="translate(119.143 3)" />
    </g>
    <g clip-path="url(#clip_path_2)">
      <rect id="gradient-bar" width="112" height="20" fill="url(#gradient_3)" fill-rule="evenodd" />
    </g>
  </g>
</svg>