<svg width="40" height="1080" viewBox="0 0 40 1080" fill="none" xmlns="http://www.w3.org/2000/svg">
<g opacity="0.9">
<mask id="path-1-inside-1_1247_156" fill="white">
<path d="M0 0H11V1080H0V0Z"/>
</mask>
<path d="M0 0H11V1080H0V0Z" fill="#FFFDFD"/>
<path d="M11 1080H11.5V1079H11H10.5V1080H11ZM11 1077H11.5V1075H11H10.5V1077H11ZM11 1073H11.5V1071H11H10.5V1073H11ZM11 1069H11.5V1067H11H10.5V1069H11ZM11 1065H11.5V1063H11H10.5V1065H11ZM11 1061H11.5V1059H11H10.5V1061H11ZM11 1057H11.5V1055H11H10.5V1057H11ZM11 1053H11.5V1051H11H10.5V1053H11ZM11 1049H11.5V1047H11H10.5V1049H11ZM11 1045H11.5V1043H11H10.5V1045H11ZM11 1041H11.5V1039H11H10.5V1041H11ZM11 1037H11.5V1035H11H10.5V1037H11ZM11 1033H11.5V1031H11H10.5V1033H11ZM11 1029H11.5V1027H11H10.5V1029H11ZM11 1025H11.5V1023H11H10.5V1025H11ZM11 1021H11.5V1019H11H10.5V1021H11ZM11 1017H11.5V1015H11H10.5V1017H11ZM11 1013H11.5V1011H11H10.5V1013H11ZM11 1009H11.5V1007H11H10.5V1009H11ZM11 1005H11.5V1003H11H10.5V1005H11ZM11 1001H11.5V999H11H10.5V1001H11ZM11 997H11.5V995H11H10.5V997H11ZM11 993H11.5V991H11H10.5V993H11ZM11 989H11.5V987H11H10.5V989H11ZM11 985H11.5V983H11H10.5V985H11ZM11 981H11.5V979H11H10.5V981H11ZM11 977H11.5V975H11H10.5V977H11ZM11 973H11.5V971H11H10.5V973H11ZM11 969H11.5V967H11H10.5V969H11ZM11 965H11.5V963H11H10.5V965H11ZM11 961H11.5V959H11H10.5V961H11ZM11 957H11.5V955H11H10.5V957H11ZM11 953H11.5V951H11H10.5V953H11ZM11 949H11.5V947H11H10.5V949H11ZM11 945H11.5V943H11H10.5V945H11ZM11 941H11.5V939H11H10.5V941H11ZM11 937H11.5V935H11H10.5V937H11ZM11 933H11.5V931H11H10.5V933H11ZM11 929H11.5V927H11H10.5V929H11ZM11 925H11.5V923H11H10.5V925H11ZM11 921H11.5V919H11H10.5V921H11ZM11 917H11.5V915H11H10.5V917H11ZM11 913H11.5V911H11H10.5V913H11ZM11 909H11.5V907H11H10.5V909H11ZM11 905H11.5V903H11H10.5V905H11ZM11 901H11.5V899H11H10.5V901H11ZM11 897H11.5V895H11H10.5V897H11ZM11 893H11.5V891H11H10.5V893H11ZM11 889H11.5V887H11H10.5V889H11ZM11 885H11.5V883H11H10.5V885H11ZM11 881H11.5V879H11H10.5V881H11ZM11 877H11.5V875H11H10.5V877H11ZM11 873H11.5V871H11H10.5V873H11ZM11 869H11.5V867H11H10.5V869H11ZM11 865H11.5V863H11H10.5V865H11ZM11 861H11.5V859H11H10.5V861H11ZM11 857H11.5V855H11H10.5V857H11ZM11 853H11.5V851H11H10.5V853H11ZM11 849H11.5V847H11H10.5V849H11ZM11 845H11.5V843H11H10.5V845H11ZM11 841H11.5V839H11H10.5V841H11ZM11 837H11.5V835H11H10.5V837H11ZM11 833H11.5V831H11H10.5V833H11ZM11 829H11.5V827H11H10.5V829H11ZM11 825H11.5V823H11H10.5V825H11ZM11 821H11.5V819H11H10.5V821H11ZM11 817H11.5V815H11H10.5V817H11ZM11 813H11.5V811H11H10.5V813H11ZM11 809H11.5V807H11H10.5V809H11ZM11 805H11.5V803H11H10.5V805H11ZM11 801H11.5V799H11H10.5V801H11ZM11 797H11.5V795H11H10.5V797H11ZM11 793H11.5V791H11H10.5V793H11ZM11 789H11.5V787H11H10.5V789H11ZM11 785H11.5V783H11H10.5V785H11ZM11 781H11.5V779H11H10.5V781H11ZM11 777H11.5V775H11H10.5V777H11ZM11 773H11.5V771H11H10.5V773H11ZM11 769H11.5V767H11H10.5V769H11ZM11 765H11.5V763H11H10.5V765H11ZM11 761H11.5V759H11H10.5V761H11ZM11 757H11.5V755H11H10.5V757H11ZM11 753H11.5V751H11H10.5V753H11ZM11 749H11.5V747H11H10.5V749H11ZM11 745H11.5V743H11H10.5V745H11ZM11 741H11.5V739H11H10.5V741H11ZM11 737H11.5V735H11H10.5V737H11ZM11 733H11.5V731H11H10.5V733H11ZM11 729H11.5V727H11H10.5V729H11ZM11 725H11.5V723H11H10.5V725H11ZM11 721H11.5V719H11H10.5V721H11ZM11 717H11.5V715H11H10.5V717H11ZM11 713H11.5V711H11H10.5V713H11ZM11 709H11.5V707H11H10.5V709H11ZM11 705H11.5V703H11H10.5V705H11ZM11 701H11.5V699H11H10.5V701H11ZM11 697H11.5V695H11H10.5V697H11ZM11 693H11.5V691H11H10.5V693H11ZM11 689H11.5V687H11H10.5V689H11ZM11 685H11.5V683H11H10.5V685H11ZM11 681H11.5V679H11H10.5V681H11ZM11 677H11.5V675H11H10.5V677H11ZM11 673H11.5V671H11H10.5V673H11ZM11 669H11.5V667H11H10.5V669H11ZM11 665H11.5V663H11H10.5V665H11ZM11 661H11.5V659H11H10.5V661H11ZM11 657H11.5V655H11H10.5V657H11ZM11 653H11.5V651H11H10.5V653H11ZM11 649H11.5V647H11H10.5V649H11ZM11 645H11.5V643H11H10.5V645H11ZM11 641H11.5V639H11H10.5V641H11ZM11 637H11.5V635H11H10.5V637H11ZM11 633H11.5V631H11H10.5V633H11ZM11 629H11.5V627H11H10.5V629H11ZM11 625H11.5V623H11H10.5V625H11ZM11 621H11.5V619H11H10.5V621H11ZM11 617H11.5V615H11H10.5V617H11ZM11 613H11.5V611H11H10.5V613H11ZM11 609H11.5V607H11H10.5V609H11ZM11 605H11.5V603H11H10.5V605H11ZM11 601H11.5V599H11H10.5V601H11ZM11 597H11.5V595H11H10.5V597H11ZM11 593H11.5V591H11H10.5V593H11ZM11 589H11.5V587H11H10.5V589H11ZM11 585H11.5V583H11H10.5V585H11ZM11 581H11.5V579H11H10.5V581H11ZM11 577H11.5V575H11H10.5V577H11ZM11 573H11.5V571H11H10.5V573H11ZM11 569H11.5V567H11H10.5V569H11ZM11 565H11.5V563H11H10.5V565H11ZM11 561H11.5V559H11H10.5V561H11ZM11 557H11.5V555H11H10.5V557H11ZM11 553H11.5V551H11H10.5V553H11ZM11 549H11.5V547H11H10.5V549H11ZM11 545H11.5V543H11H10.5V545H11ZM11 541H11.5V539H11H10.5V541H11ZM11 537H11.5V535H11H10.5V537H11ZM11 533H11.5V531H11H10.5V533H11ZM11 529H11.5V527H11H10.5V529H11ZM11 525H11.5V523H11H10.5V525H11ZM11 521H11.5V519H11H10.5V521H11ZM11 517H11.5V515H11H10.5V517H11ZM11 513H11.5V511H11H10.5V513H11ZM11 509H11.5V507H11H10.5V509H11ZM11 505H11.5V503H11H10.5V505H11ZM11 501H11.5V499H11H10.5V501H11ZM11 497H11.5V495H11H10.5V497H11ZM11 493H11.5V491H11H10.5V493H11ZM11 489H11.5V487H11H10.5V489H11ZM11 485H11.5V483H11H10.5V485H11ZM11 481H11.5V479H11H10.5V481H11ZM11 477H11.5V475H11H10.5V477H11ZM11 473H11.5V471H11H10.5V473H11ZM11 469H11.5V467H11H10.5V469H11ZM11 465H11.5V463H11H10.5V465H11ZM11 461H11.5V459H11H10.5V461H11ZM11 457H11.5V455H11H10.5V457H11ZM11 453H11.5V451H11H10.5V453H11ZM11 449H11.5V447H11H10.5V449H11ZM11 445H11.5V443H11H10.5V445H11ZM11 441H11.5V439H11H10.5V441H11ZM11 437H11.5V435H11H10.5V437H11ZM11 433H11.5V431H11H10.5V433H11ZM11 429H11.5V427H11H10.5V429H11ZM11 425H11.5V423H11H10.5V425H11ZM11 421H11.5V419H11H10.5V421H11ZM11 417H11.5V415H11H10.5V417H11ZM11 413H11.5V411H11H10.5V413H11ZM11 409H11.5V407H11H10.5V409H11ZM11 405H11.5V403H11H10.5V405H11ZM11 401H11.5V399H11H10.5V401H11ZM11 397H11.5V395H11H10.5V397H11ZM11 393H11.5V391H11H10.5V393H11ZM11 389H11.5V387H11H10.5V389H11ZM11 385H11.5V383H11H10.5V385H11ZM11 381H11.5V379H11H10.5V381H11ZM11 377H11.5V375H11H10.5V377H11ZM11 373H11.5V371H11H10.5V373H11ZM11 369H11.5V367H11H10.5V369H11ZM11 365H11.5V363H11H10.5V365H11ZM11 361H11.5V359H11H10.5V361H11ZM11 357H11.5V355H11H10.5V357H11ZM11 353H11.5V351H11H10.5V353H11ZM11 349H11.5V347H11H10.5V349H11ZM11 345H11.5V343H11H10.5V345H11ZM11 341H11.5V339H11H10.5V341H11ZM11 337H11.5V335H11H10.5V337H11ZM11 333H11.5V331H11H10.5V333H11ZM11 329H11.5V327H11H10.5V329H11ZM11 325H11.5V323H11H10.5V325H11ZM11 321H11.5V319H11H10.5V321H11ZM11 317H11.5V315H11H10.5V317H11ZM11 313H11.5V311H11H10.5V313H11ZM11 309H11.5V307H11H10.5V309H11ZM11 305H11.5V303H11H10.5V305H11ZM11 301H11.5V299H11H10.5V301H11ZM11 297H11.5V295H11H10.5V297H11ZM11 293H11.5V291H11H10.5V293H11ZM11 289H11.5V287H11H10.5V289H11ZM11 285H11.5V283H11H10.5V285H11ZM11 281H11.5V279H11H10.5V281H11ZM11 277H11.5V275H11H10.5V277H11ZM11 273H11.5V271H11H10.5V273H11ZM11 269H11.5V267H11H10.5V269H11ZM11 265H11.5V263H11H10.5V265H11ZM11 261H11.5V259H11H10.5V261H11ZM11 257H11.5V255H11H10.5V257H11ZM11 253H11.5V251H11H10.5V253H11ZM11 249H11.5V247H11H10.5V249H11ZM11 245H11.5V243H11H10.5V245H11ZM11 241H11.5V239H11H10.5V241H11ZM11 237H11.5V235H11H10.5V237H11ZM11 233H11.5V231H11H10.5V233H11ZM11 229H11.5V227H11H10.5V229H11ZM11 225H11.5V223H11H10.5V225H11ZM11 221H11.5V219H11H10.5V221H11ZM11 217H11.5V215H11H10.5V217H11ZM11 213H11.5V211H11H10.5V213H11ZM11 209H11.5V207H11H10.5V209H11ZM11 205H11.5V203H11H10.5V205H11ZM11 201H11.5V199H11H10.5V201H11ZM11 197H11.5V195H11H10.5V197H11ZM11 193H11.5V191H11H10.5V193H11ZM11 189H11.5V187H11H10.5V189H11ZM11 185H11.5V183H11H10.5V185H11ZM11 181H11.5V179H11H10.5V181H11ZM11 177H11.5V175H11H10.5V177H11ZM11 173H11.5V171H11H10.5V173H11ZM11 169H11.5V167H11H10.5V169H11ZM11 165H11.5V163H11H10.5V165H11ZM11 161H11.5V159H11H10.5V161H11ZM11 157H11.5V155H11H10.5V157H11ZM11 153H11.5V151H11H10.5V153H11ZM11 149H11.5V147H11H10.5V149H11ZM11 145H11.5V143H11H10.5V145H11ZM11 141H11.5V139H11H10.5V141H11ZM11 137H11.5V135H11H10.5V137H11ZM11 133H11.5V131H11H10.5V133H11ZM11 129H11.5V127H11H10.5V129H11ZM11 125H11.5V123H11H10.5V125H11ZM11 121H11.5V119H11H10.5V121H11ZM11 117H11.5V115H11H10.5V117H11ZM11 113H11.5V111H11H10.5V113H11ZM11 109H11.5V107H11H10.5V109H11ZM11 105H11.5V103H11H10.5V105H11ZM11 101H11.5V99H11H10.5V101H11ZM11 97H11.5V95H11H10.5V97H11ZM11 93H11.5V91H11H10.5V93H11ZM11 89H11.5V87H11H10.5V89H11ZM11 85H11.5V83H11H10.5V85H11ZM11 81H11.5V79H11H10.5V81H11ZM11 77H11.5V75H11H10.5V77H11ZM11 73H11.5V71H11H10.5V73H11ZM11 69H11.5V67H11H10.5V69H11ZM11 65H11.5V63H11H10.5V65H11ZM11 61H11.5V59H11H10.5V61H11ZM11 57H11.5V55H11H10.5V57H11ZM11 53H11.5V51H11H10.5V53H11ZM11 49H11.5V47H11H10.5V49H11ZM11 45H11.5V43H11H10.5V45H11ZM11 41H11.5V39H11H10.5V41H11ZM11 37H11.5V35H11H10.5V37H11ZM11 33H11.5V31H11H10.5V33H11ZM11 29H11.5V27H11H10.5V29H11ZM11 25H11.5V23H11H10.5V25H11ZM11 21H11.5V19H11H10.5V21H11ZM11 17H11.5V15H11H10.5V17H11ZM11 13H11.5V11H11H10.5V13H11ZM11 8.99999H11.5V6.99999H11H10.5V8.99999H11ZM11 4.99998H11.5V2.99998H11H10.5V4.99998H11ZM11 0.99997H11.5V0H11H10.5V0.99997H11ZM11 1080H12V1079H11H10V1080H11ZM11 1077H12V1075H11H10V1077H11ZM11 1073H12V1071H11H10V1073H11ZM11 1069H12V1067H11H10V1069H11ZM11 1065H12V1063H11H10V1065H11ZM11 1061H12V1059H11H10V1061H11ZM11 1057H12V1055H11H10V1057H11ZM11 1053H12V1051H11H10V1053H11ZM11 1049H12V1047H11H10V1049H11ZM11 1045H12V1043H11H10V1045H11ZM11 1041H12V1039H11H10V1041H11ZM11 1037H12V1035H11H10V1037H11ZM11 1033H12V1031H11H10V1033H11ZM11 1029H12V1027H11H10V1029H11ZM11 1025H12V1023H11H10V1025H11ZM11 1021H12V1019H11H10V1021H11ZM11 1017H12V1015H11H10V1017H11ZM11 1013H12V1011H11H10V1013H11ZM11 1009H12V1007H11H10V1009H11ZM11 1005H12V1003H11H10V1005H11ZM11 1001H12V999H11H10V1001H11ZM11 997H12V995H11H10V997H11ZM11 993H12V991H11H10V993H11ZM11 989H12V987H11H10V989H11ZM11 985H12V983H11H10V985H11ZM11 981H12V979H11H10V981H11ZM11 977H12V975H11H10V977H11ZM11 973H12V971H11H10V973H11ZM11 969H12V967H11H10V969H11ZM11 965H12V963H11H10V965H11ZM11 961H12V959H11H10V961H11ZM11 957H12V955H11H10V957H11ZM11 953H12V951H11H10V953H11ZM11 949H12V947H11H10V949H11ZM11 945H12V943H11H10V945H11ZM11 941H12V939H11H10V941H11ZM11 937H12V935H11H10V937H11ZM11 933H12V931H11H10V933H11ZM11 929H12V927H11H10V929H11ZM11 925H12V923H11H10V925H11ZM11 921H12V919H11H10V921H11ZM11 917H12V915H11H10V917H11ZM11 913H12V911H11H10V913H11ZM11 909H12V907H11H10V909H11ZM11 905H12V903H11H10V905H11ZM11 901H12V899H11H10V901H11ZM11 897H12V895H11H10V897H11ZM11 893H12V891H11H10V893H11ZM11 889H12V887H11H10V889H11ZM11 885H12V883H11H10V885H11ZM11 881H12V879H11H10V881H11ZM11 877H12V875H11H10V877H11ZM11 873H12V871H11H10V873H11ZM11 869H12V867H11H10V869H11ZM11 865H12V863H11H10V865H11ZM11 861H12V859H11H10V861H11ZM11 857H12V855H11H10V857H11ZM11 853H12V851H11H10V853H11ZM11 849H12V847H11H10V849H11ZM11 845H12V843H11H10V845H11ZM11 841H12V839H11H10V841H11ZM11 837H12V835H11H10V837H11ZM11 833H12V831H11H10V833H11ZM11 829H12V827H11H10V829H11ZM11 825H12V823H11H10V825H11ZM11 821H12V819H11H10V821H11ZM11 817H12V815H11H10V817H11ZM11 813H12V811H11H10V813H11ZM11 809H12V807H11H10V809H11ZM11 805H12V803H11H10V805H11ZM11 801H12V799H11H10V801H11ZM11 797H12V795H11H10V797H11ZM11 793H12V791H11H10V793H11ZM11 789H12V787H11H10V789H11ZM11 785H12V783H11H10V785H11ZM11 781H12V779H11H10V781H11ZM11 777H12V775H11H10V777H11ZM11 773H12V771H11H10V773H11ZM11 769H12V767H11H10V769H11ZM11 765H12V763H11H10V765H11ZM11 761H12V759H11H10V761H11ZM11 757H12V755H11H10V757H11ZM11 753H12V751H11H10V753H11ZM11 749H12V747H11H10V749H11ZM11 745H12V743H11H10V745H11ZM11 741H12V739H11H10V741H11ZM11 737H12V735H11H10V737H11ZM11 733H12V731H11H10V733H11ZM11 729H12V727H11H10V729H11ZM11 725H12V723H11H10V725H11ZM11 721H12V719H11H10V721H11ZM11 717H12V715H11H10V717H11ZM11 713H12V711H11H10V713H11ZM11 709H12V707H11H10V709H11ZM11 705H12V703H11H10V705H11ZM11 701H12V699H11H10V701H11ZM11 697H12V695H11H10V697H11ZM11 693H12V691H11H10V693H11ZM11 689H12V687H11H10V689H11ZM11 685H12V683H11H10V685H11ZM11 681H12V679H11H10V681H11ZM11 677H12V675H11H10V677H11ZM11 673H12V671H11H10V673H11ZM11 669H12V667H11H10V669H11ZM11 665H12V663H11H10V665H11ZM11 661H12V659H11H10V661H11ZM11 657H12V655H11H10V657H11ZM11 653H12V651H11H10V653H11ZM11 649H12V647H11H10V649H11ZM11 645H12V643H11H10V645H11ZM11 641H12V639H11H10V641H11ZM11 637H12V635H11H10V637H11ZM11 633H12V631H11H10V633H11ZM11 629H12V627H11H10V629H11ZM11 625H12V623H11H10V625H11ZM11 621H12V619H11H10V621H11ZM11 617H12V615H11H10V617H11ZM11 613H12V611H11H10V613H11ZM11 609H12V607H11H10V609H11ZM11 605H12V603H11H10V605H11ZM11 601H12V599H11H10V601H11ZM11 597H12V595H11H10V597H11ZM11 593H12V591H11H10V593H11ZM11 589H12V587H11H10V589H11ZM11 585H12V583H11H10V585H11ZM11 581H12V579H11H10V581H11ZM11 577H12V575H11H10V577H11ZM11 573H12V571H11H10V573H11ZM11 569H12V567H11H10V569H11ZM11 565H12V563H11H10V565H11ZM11 561H12V559H11H10V561H11ZM11 557H12V555H11H10V557H11ZM11 553H12V551H11H10V553H11ZM11 549H12V547H11H10V549H11ZM11 545H12V543H11H10V545H11ZM11 541H12V539H11H10V541H11ZM11 537H12V535H11H10V537H11ZM11 533H12V531H11H10V533H11ZM11 529H12V527H11H10V529H11ZM11 525H12V523H11H10V525H11ZM11 521H12V519H11H10V521H11ZM11 517H12V515H11H10V517H11ZM11 513H12V511H11H10V513H11ZM11 509H12V507H11H10V509H11ZM11 505H12V503H11H10V505H11ZM11 501H12V499H11H10V501H11ZM11 497H12V495H11H10V497H11ZM11 493H12V491H11H10V493H11ZM11 489H12V487H11H10V489H11ZM11 485H12V483H11H10V485H11ZM11 481H12V479H11H10V481H11ZM11 477H12V475H11H10V477H11ZM11 473H12V471H11H10V473H11ZM11 469H12V467H11H10V469H11ZM11 465H12V463H11H10V465H11ZM11 461H12V459H11H10V461H11ZM11 457H12V455H11H10V457H11ZM11 453H12V451H11H10V453H11ZM11 449H12V447H11H10V449H11ZM11 445H12V443H11H10V445H11ZM11 441H12V439H11H10V441H11ZM11 437H12V435H11H10V437H11ZM11 433H12V431H11H10V433H11ZM11 429H12V427H11H10V429H11ZM11 425H12V423H11H10V425H11ZM11 421H12V419H11H10V421H11ZM11 417H12V415H11H10V417H11ZM11 413H12V411H11H10V413H11ZM11 409H12V407H11H10V409H11ZM11 405H12V403H11H10V405H11ZM11 401H12V399H11H10V401H11ZM11 397H12V395H11H10V397H11ZM11 393H12V391H11H10V393H11ZM11 389H12V387H11H10V389H11ZM11 385H12V383H11H10V385H11ZM11 381H12V379H11H10V381H11ZM11 377H12V375H11H10V377H11ZM11 373H12V371H11H10V373H11ZM11 369H12V367H11H10V369H11ZM11 365H12V363H11H10V365H11ZM11 361H12V359H11H10V361H11ZM11 357H12V355H11H10V357H11ZM11 353H12V351H11H10V353H11ZM11 349H12V347H11H10V349H11ZM11 345H12V343H11H10V345H11ZM11 341H12V339H11H10V341H11ZM11 337H12V335H11H10V337H11ZM11 333H12V331H11H10V333H11ZM11 329H12V327H11H10V329H11ZM11 325H12V323H11H10V325H11ZM11 321H12V319H11H10V321H11ZM11 317H12V315H11H10V317H11ZM11 313H12V311H11H10V313H11ZM11 309H12V307H11H10V309H11ZM11 305H12V303H11H10V305H11ZM11 301H12V299H11H10V301H11ZM11 297H12V295H11H10V297H11ZM11 293H12V291H11H10V293H11ZM11 289H12V287H11H10V289H11ZM11 285H12V283H11H10V285H11ZM11 281H12V279H11H10V281H11ZM11 277H12V275H11H10V277H11ZM11 273H12V271H11H10V273H11ZM11 269H12V267H11H10V269H11ZM11 265H12V263H11H10V265H11ZM11 261H12V259H11H10V261H11ZM11 257H12V255H11H10V257H11ZM11 253H12V251H11H10V253H11ZM11 249H12V247H11H10V249H11ZM11 245H12V243H11H10V245H11ZM11 241H12V239H11H10V241H11ZM11 237H12V235H11H10V237H11ZM11 233H12V231H11H10V233H11ZM11 229H12V227H11H10V229H11ZM11 225H12V223H11H10V225H11ZM11 221H12V219H11H10V221H11ZM11 217H12V215H11H10V217H11ZM11 213H12V211H11H10V213H11ZM11 209H12V207H11H10V209H11ZM11 205H12V203H11H10V205H11ZM11 201H12V199H11H10V201H11ZM11 197H12V195H11H10V197H11ZM11 193H12V191H11H10V193H11ZM11 189H12V187H11H10V189H11ZM11 185H12V183H11H10V185H11ZM11 181H12V179H11H10V181H11ZM11 177H12V175H11H10V177H11ZM11 173H12V171H11H10V173H11ZM11 169H12V167H11H10V169H11ZM11 165H12V163H11H10V165H11ZM11 161H12V159H11H10V161H11ZM11 157H12V155H11H10V157H11ZM11 153H12V151H11H10V153H11ZM11 149H12V147H11H10V149H11ZM11 145H12V143H11H10V145H11ZM11 141H12V139H11H10V141H11ZM11 137H12V135H11H10V137H11ZM11 133H12V131H11H10V133H11ZM11 129H12V127H11H10V129H11ZM11 125H12V123H11H10V125H11ZM11 121H12V119H11H10V121H11ZM11 117H12V115H11H10V117H11ZM11 113H12V111H11H10V113H11ZM11 109H12V107H11H10V109H11ZM11 105H12V103H11H10V105H11ZM11 101H12V99H11H10V101H11ZM11 97H12V95H11H10V97H11ZM11 93H12V91H11H10V93H11ZM11 89H12V87H11H10V89H11ZM11 85H12V83H11H10V85H11ZM11 81H12V79H11H10V81H11ZM11 77H12V75H11H10V77H11ZM11 73H12V71H11H10V73H11ZM11 69H12V67H11H10V69H11ZM11 65H12V63H11H10V65H11ZM11 61H12V59H11H10V61H11ZM11 57H12V55H11H10V57H11ZM11 53H12V51H11H10V53H11ZM11 49H12V47H11H10V49H11ZM11 45H12V43H11H10V45H11ZM11 41H12V39H11H10V41H11ZM11 37H12V35H11H10V37H11ZM11 33H12V31H11H10V33H11ZM11 29H12V27H11H10V29H11ZM11 25H12V23H11H10V25H11ZM11 21H12V19H11H10V21H11ZM11 17H12V15H11H10V17H11ZM11 13H12V11H11H10V13H11ZM11 8.99999H12V6.99999H11H10V8.99999H11ZM11 4.99998H12V2.99998H11H10V4.99998H11ZM11 0.99997H12V0H11H10V0.99997H11Z" fill="#E5E5E5" mask="url(#path-1-inside-1_1247_156)"/>
<path d="M-5.4125 11.9625C-5.4125 8.7375 -4.5875 6.2875 -2.9375 4.6125C-1.2625 2.9375 1.0125 2.1 3.8875 2.1H17.5V9H5.2375C3.7125 9 2.575 9.375 1.825 10.125C1.1 10.9 0.7375 12.0625 0.7375 13.6125C0.7375 15.2375 1.1375 16.475 1.9375 17.325C2.7625 18.175 3.9375 18.6 5.4625 18.6H17.5V25.5H1.75V28.875H-5V21.975H-1.25V20.4C-2.6 19.475 -3.6375 18.375 -4.3625 17.1C-5.0625 15.825 -5.4125 14.1125 -5.4125 11.9625ZM-5.45 42.1441C-5.45 38.7691 -4.7375 36.1066 -3.3125 34.1566C-1.8875 32.2316 0.1 31.1941 2.65 31.0441V37.6816C1.65 37.8816 0.9125 38.3566 0.4375 39.1066C-0.0374998 39.8816 -0.275 40.9941 -0.275 42.4441C-0.275 44.6941 0.3125 45.8191 1.4875 45.8191C1.9625 45.8191 2.3375 45.6441 2.6125 45.2941C2.9125 44.9691 3.1375 44.4191 3.2875 43.6441L4.2625 38.6191C5.1625 34.0191 7.3125 31.7191 10.7125 31.7191C12.9125 31.7191 14.6625 32.6066 15.9625 34.3816C17.2875 36.1566 17.95 38.6066 17.95 41.7316C17.95 44.8566 17.275 47.3191 15.925 49.1191C14.575 50.9191 12.675 51.8941 10.225 52.0441V45.4066C11.2 45.1566 11.9 44.7066 12.325 44.0566C12.775 43.4316 13 42.5066 13 41.2816C13 40.2816 12.8625 39.5066 12.5875 38.9566C12.3125 38.4316 11.9 38.1691 11.35 38.1691C10.95 38.1691 10.6125 38.3316 10.3375 38.6566C10.0625 38.9816 9.8625 39.4691 9.7375 40.1191L8.725 45.2941C8.25 47.6941 7.475 49.4566 6.4 50.5816C5.325 51.7066 3.875 52.2691 2.05 52.2691C-0.3 52.2691 -2.1375 51.3941 -3.4625 49.6441C-4.7875 47.9191 -5.45 45.4191 -5.45 42.1441ZM-5.45 66.4617C-5.45 63.9867 -4.975 61.8367 -4.025 60.0117C-3.05 58.1867 -1.6875 56.7742 0.0625002 55.7742C1.8375 54.7992 3.925 54.3117 6.325 54.3117C8.725 54.3117 10.7875 54.7867 12.5125 55.7367C14.2625 56.7117 15.6 58.0867 16.525 59.8617C17.475 61.6617 17.95 63.7742 17.95 66.1992C17.95 68.5992 17.4875 70.6617 16.5625 72.3867C15.6625 74.1117 14.3625 75.4242 12.6625 76.3242C10.9625 77.2492 8.925 77.7117 6.55 77.7117H4.3375V60.9492C2.8875 61.2242 1.7875 61.8242 1.0375 62.7492C0.3125 63.6742 -0.05 64.8992 -0.05 66.4242C-0.05 67.6492 0.1375 68.5992 0.5125 69.2742C0.9125 69.9742 1.5375 70.4742 2.3875 70.7742V77.6742C-0.0624998 77.1992 -1.9875 75.9742 -3.3875 73.9992C-4.7625 72.0242 -5.45 69.5117 -5.45 66.4617ZM8.8375 61.0617V71.1117C10.0875 70.8867 11.0125 70.3617 11.6125 69.5367C12.2375 68.7367 12.55 67.6367 12.55 66.2367C12.55 64.8617 12.2375 63.7367 11.6125 62.8617C10.9875 61.9867 10.0625 61.3867 8.8375 61.0617ZM-5 83.175H10.75V79.8H17.5V86.7H13V88.275C14.625 88.85 15.825 89.7875 16.6 91.0875C17.4 92.3875 17.8 93.8375 17.8 95.4375V97.35H11.8V95.1375C11.8 93.2875 11.2875 91.95 10.2625 91.125C9.2375 90.325 7.9 89.925 6.25 89.925H-5V83.175ZM-5 111.127H17.5V118.027H-5V111.127ZM19.4125 114.577C19.4125 113.552 19.775 112.677 20.5 111.952C21.225 111.227 22.1 110.865 23.125 110.865C24.15 110.865 25.025 111.227 25.75 111.952C26.475 112.677 26.8375 113.552 26.8375 114.577C26.8375 115.602 26.475 116.477 25.75 117.202C25.025 117.927 24.15 118.29 23.125 118.29C22.1 118.29 21.225 117.927 20.5 117.202C19.775 116.477 19.4125 115.602 19.4125 114.577ZM-5 124.535H10.75V121.16H17.5V128.06H13.75V129.635C15.05 130.535 16.0625 131.635 16.7875 132.935C17.5375 134.26 17.9125 135.948 17.9125 137.998C17.9125 141.198 17.05 143.648 15.325 145.348C13.6 147.073 11.2875 147.935 8.3875 147.935H-5V141.035H7.0375C8.5875 141.035 9.7625 140.623 10.5625 139.798C11.3625 138.998 11.7625 137.81 11.7625 136.235C11.7625 134.66 11.3625 133.46 10.5625 132.635C9.7625 131.835 8.5875 131.435 7.0375 131.435H-5V124.535ZM-5 159.967C-5 158.217 -4.5625 156.854 -3.6875 155.879C-2.7875 154.929 -1.425 154.454 0.4 154.454H12.1V150.704H17.5V154.529H24.25V161.279H17.5V166.229H12.1V161.354H0.4V166.754H-5V159.967ZM-5.45 180.851C-5.45 178.376 -4.975 176.226 -4.025 174.401C-3.05 172.576 -1.6875 171.164 0.0625002 170.164C1.8375 169.189 3.925 168.701 6.325 168.701C8.725 168.701 10.7875 169.176 12.5125 170.126C14.2625 171.101 15.6 172.476 16.525 174.251C17.475 176.051 17.95 178.164 17.95 180.589C17.95 182.989 17.4875 185.051 16.5625 186.776C15.6625 188.501 14.3625 189.814 12.6625 190.714C10.9625 191.639 8.925 192.101 6.55 192.101H4.3375V175.339C2.8875 175.614 1.7875 176.214 1.0375 177.139C0.3125 178.064 -0.05 179.289 -0.05 180.814C-0.05 182.039 0.1375 182.989 0.5125 183.664C0.9125 184.364 1.5375 184.864 2.3875 185.164V192.064C-0.0624998 191.589 -1.9875 190.364 -3.3875 188.389C-4.7625 186.414 -5.45 183.901 -5.45 180.851ZM8.8375 175.451V185.501C10.0875 185.276 11.0125 184.751 11.6125 183.926C12.2375 183.126 12.55 182.026 12.55 180.626C12.55 179.251 12.2375 178.126 11.6125 177.251C10.9875 176.376 10.0625 175.776 8.8375 175.451ZM-5 197.565H10.75V194.19H17.5V201.09H13V202.665C14.625 203.24 15.825 204.177 16.6 205.477C17.4 206.777 17.8 208.227 17.8 209.827V211.74H11.8V209.527C11.8 207.677 11.2875 206.34 10.2625 205.515C9.2375 204.715 7.9 204.315 6.25 204.315H-5V197.565ZM-5 217.151H12.1V213.326H17.5V217.226H21.1C22.95 217.226 24.3125 217.701 25.1875 218.651C26.0625 219.626 26.5 221.001 26.5 222.776V229.301H21.1V223.976H17.5V228.851H12.1V224.051H-5V217.151ZM-5.4125 239.314C-5.4125 236.614 -4.775 234.501 -3.5 232.976C-2.2 231.476 -0.475 230.726 1.675 230.726C3.9 230.726 5.6125 231.514 6.8125 233.089C8.0375 234.689 8.65 236.964 8.65 239.914V245.951H9.475C11.525 245.951 12.55 244.651 12.55 242.051C12.55 239.751 11.775 238.351 10.225 237.851V231.026C12.775 231.551 14.7 232.739 16 234.589C17.3 236.439 17.95 238.914 17.95 242.014C17.95 245.439 17.1875 248.051 15.6625 249.851C14.1625 251.651 11.9625 252.551 9.0625 252.551H1.75V255.776H-5V248.876H-1.25V247.301C-2.6 246.526 -3.6375 245.501 -4.3625 244.226C-5.0625 242.951 -5.4125 241.314 -5.4125 239.314ZM-0.2375 240.364C-0.2375 241.464 -0.0499998 242.426 0.325 243.251C0.7 244.101 1.2125 244.764 1.8625 245.239C2.5125 245.714 3.2375 245.951 4.0375 245.951H4.15V240.214C4.15 238.289 3.4375 237.326 2.0125 237.326C1.2875 237.326 0.725 237.589 0.325 238.114C-0.0499998 238.664 -0.2375 239.414 -0.2375 240.364ZM-5.45 269.484C-5.45 267.134 -4.975 265.059 -4.025 263.259C-3.05 261.484 -1.6875 260.084 0.0625002 259.059C1.8125 258.059 3.875 257.559 6.25 257.559C8.625 257.559 10.6875 258.059 12.4375 259.059C14.1875 260.059 15.5375 261.459 16.4875 263.259C17.4625 265.059 17.95 267.134 17.95 269.484C17.95 272.534 17.175 275.034 15.625 276.984C14.075 278.959 11.975 280.171 9.325 280.621V273.721C10.15 273.421 10.7875 272.909 11.2375 272.184C11.7125 271.484 11.95 270.584 11.95 269.484C11.95 268.009 11.45 266.796 10.45 265.846C9.475 264.921 8.075 264.459 6.25 264.459C4.425 264.459 3.0125 264.934 2.0125 265.884C1.0375 266.834 0.55 268.034 0.55 269.484C0.55 271.859 1.5375 273.309 3.5125 273.834V280.734C0.7375 280.334 -1.45 279.159 -3.05 277.209C-4.65 275.259 -5.45 272.684 -5.45 269.484ZM-5.45 294.098C-5.45 291.623 -4.975 289.473 -4.025 287.648C-3.05 285.823 -1.6875 284.411 0.0625002 283.411C1.8375 282.436 3.925 281.948 6.325 281.948C8.725 281.948 10.7875 282.423 12.5125 283.373C14.2625 284.348 15.6 285.723 16.525 287.498C17.475 289.298 17.95 291.411 17.95 293.836C17.95 296.236 17.4875 298.298 16.5625 300.023C15.6625 301.748 14.3625 303.061 12.6625 303.961C10.9625 304.886 8.925 305.348 6.55 305.348H4.3375V288.586C2.8875 288.861 1.7875 289.461 1.0375 290.386C0.3125 291.311 -0.05 292.536 -0.05 294.061C-0.05 295.286 0.1375 296.236 0.5125 296.911C0.9125 297.611 1.5375 298.111 2.3875 298.411V305.311C-0.0624998 304.836 -1.9875 303.611 -3.3875 301.636C-4.7625 299.661 -5.45 297.148 -5.45 294.098ZM8.8375 288.698V298.748C10.0875 298.523 11.0125 297.998 11.6125 297.173C12.2375 296.373 12.55 295.273 12.55 293.873C12.55 292.498 12.2375 291.373 11.6125 290.498C10.9875 289.623 10.0625 289.023 8.8375 288.698ZM-5.45 318.912C-5.45 315.537 -4.7375 312.874 -3.3125 310.924C-1.8875 308.999 0.1 307.962 2.65 307.812V314.449C1.65 314.649 0.9125 315.124 0.4375 315.874C-0.0374998 316.649 -0.275 317.762 -0.275 319.212C-0.275 321.462 0.3125 322.587 1.4875 322.587C1.9625 322.587 2.3375 322.412 2.6125 322.062C2.9125 321.737 3.1375 321.187 3.2875 320.412L4.2625 315.387C5.1625 310.787 7.3125 308.487 10.7125 308.487C12.9125 308.487 14.6625 309.374 15.9625 311.149C17.2875 312.924 17.95 315.374 17.95 318.499C17.95 321.624 17.275 324.087 15.925 325.887C14.575 327.687 12.675 328.662 10.225 328.812V322.174C11.2 321.924 11.9 321.474 12.325 320.824C12.775 320.199 13 319.274 13 318.049C13 317.049 12.8625 316.274 12.5875 315.724C12.3125 315.199 11.9 314.937 11.35 314.937C10.95 314.937 10.6125 315.099 10.3375 315.424C10.0625 315.749 9.8625 316.237 9.7375 316.887L8.725 322.062C8.25 324.462 7.475 326.224 6.4 327.349C5.325 328.474 3.875 329.037 2.05 329.037C-0.3 329.037 -2.1375 328.162 -3.4625 326.412C-4.7875 324.687 -5.45 322.187 -5.45 318.912Z" fill="url(#paint0_linear_1247_156)"/>
<g clip-path="url(#clip0_1247_156)">
<mask id="mask0_1247_156" style="mask-type:luminance" maskUnits="userSpaceOnUse" x="-7" y="422" width="34" height="34">
<path d="M-7 422H27V456H-7V422Z" fill="white"/>
<path d="M3.40385 435.051L6.60878 426.975C7.31838 425.187 9.84897 425.187 10.5589 426.975L13.7657 435.051C13.7992 435.135 13.8655 435.201 13.9494 435.234L22.0264 438.442C23.8141 439.152 23.8141 441.682 22.0264 442.392L13.9494 445.599C13.8655 445.632 13.7992 445.699 13.7657 445.783L10.559 453.858C9.84897 455.646 7.31853 455.646 6.60878 453.858L3.40385 445.783C3.37027 445.698 3.30312 445.632 3.21883 445.599L-4.859 442.392C-6.64669 441.682 -6.64669 439.151 -4.859 438.442L3.21883 435.234C3.30312 435.201 3.37027 435.135 3.40385 435.051Z" fill="black"/>
</mask>
<g mask="url(#mask0_1247_156)">
<path d="M8.58313 434.757C7.80085 434.757 7.16661 435.392 7.16646 436.174V439.007H4.33313C3.55085 439.007 2.91661 439.642 2.91646 440.424C2.91675 441.206 3.55099 441.841 4.33313 441.841H7.16646V444.674C7.16675 445.456 7.80099 446.091 8.58313 446.091C9.36527 446.091 9.99951 445.456 9.9998 444.674V441.841H12.8331C13.6153 441.841 14.2494 441.206 14.2498 440.424C14.2497 439.642 13.6154 439.008 12.8331 439.007H9.9998V436.174C9.99966 435.392 9.36541 434.758 8.58313 434.757ZM18.4002 423.9C17.9269 422.708 16.2392 422.708 15.7661 423.9L13.8956 428.615C13.875 428.666 13.8337 428.706 13.7822 428.727L9.06593 430.6C7.87409 431.073 7.87409 432.76 9.06593 433.233L13.7822 435.106C13.8337 435.127 13.875 435.167 13.8956 435.218L15.7661 439.933C16.2392 441.125 17.9269 441.125 18.4002 439.933L20.272 435.218C20.2926 435.167 20.3339 435.127 20.3855 435.106L25.1003 433.233C26.2921 432.76 26.2921 431.073 25.1003 430.6L20.3855 428.727C20.3339 428.706 20.2926 428.666 20.272 428.615L18.4002 423.9Z" fill="url(#paint1_linear_1247_156)"/>
</g>
<mask id="mask1_1247_156" style="mask-type:luminance" maskUnits="userSpaceOnUse" x="-7" y="425" width="31" height="31">
<path d="M3.40385 435.051L6.60878 426.975C7.31838 425.187 9.84897 425.187 10.5589 426.975L13.7657 435.051C13.7992 435.135 13.8655 435.201 13.9494 435.234L22.0264 438.442C23.8141 439.152 23.8141 441.682 22.0264 442.392L13.9494 445.599C13.8655 445.632 13.7992 445.699 13.7657 445.783L10.559 453.858C9.84897 455.646 7.31853 455.646 6.60878 453.858L3.40385 445.783C3.37027 445.698 3.30312 445.632 3.21883 445.599L-4.859 442.392C-6.64669 441.682 -6.64669 439.151 -4.859 438.442L3.21883 435.234C3.30312 435.201 3.37027 435.135 3.40385 435.051Z" fill="white"/>
</mask>
<g mask="url(#mask1_1247_156)">
<g filter="url(#filter0_f_1247_156)">
<path d="M8.58362 434.757C7.80134 434.757 7.16709 435.392 7.16695 436.174V439.007H4.33362C3.55134 439.007 2.91709 439.642 2.91695 440.424C2.91724 441.206 3.55148 441.841 4.33362 441.841H7.16695V444.674C7.16724 445.456 7.80148 446.091 8.58362 446.091C9.36576 446.091 10 445.456 10.0003 444.674V441.841H12.8336C13.6157 441.841 14.2499 441.206 14.2503 440.424C14.2502 439.642 13.6159 439.008 12.8336 439.007H10.0003V436.174C10.0001 435.392 9.3659 434.758 8.58362 434.757ZM18.4007 423.9C17.9274 422.708 16.2396 422.708 15.7666 423.9L13.8961 428.615C13.8755 428.666 13.8342 428.706 13.7827 428.727L9.06642 430.6C7.87458 431.073 7.87458 432.76 9.06642 433.233L13.7827 435.106C13.8342 435.127 13.8755 435.167 13.8961 435.218L15.7666 439.933C16.2396 441.125 17.9274 441.125 18.4007 439.933L20.2725 435.218C20.2931 435.167 20.3344 435.127 20.3859 435.106L25.1008 433.233C26.2926 432.76 26.2926 431.073 25.1008 430.6L20.3859 428.727C20.3344 428.706 20.2931 428.666 20.2725 428.615L18.4007 423.9Z" fill="url(#paint2_linear_1247_156)"/>
</g>
</g>
<path d="M3.40385 435.051L6.60878 426.975C7.31838 425.187 9.84897 425.187 10.5589 426.975L13.7657 435.051C13.7992 435.135 13.8655 435.201 13.9494 435.234L22.0264 438.442C23.8141 439.152 23.8141 441.682 22.0264 442.392L13.9494 445.599C13.8655 445.632 13.7992 445.699 13.7657 445.783L10.559 453.858C9.84897 455.646 7.31853 455.646 6.60878 453.858L3.40385 445.783C3.37027 445.698 3.30312 445.632 3.21883 445.599L-4.859 442.392C-6.64669 441.682 -6.64669 439.151 -4.859 438.442L3.21883 435.234C3.30312 435.201 3.37027 435.135 3.40385 435.051Z" fill="url(#paint3_linear_1247_156)"/>
<path d="M10.5588 426.975C9.84909 425.187 7.31892 425.187 6.60917 426.975L3.40368 435.05C3.37011 435.135 3.30253 435.201 3.21824 435.234L-4.85846 438.441C-6.64615 439.151 -6.64615 441.682 -4.85846 442.392L3.21824 445.599L3.27774 445.63C3.33412 445.666 3.37847 445.72 3.40368 445.783L6.60917 453.858L6.681 454.02C7.44982 455.592 9.71833 455.592 10.487 454.02L10.5588 453.858L13.7658 445.783C13.7992 445.699 13.8658 445.633 13.9498 445.599L22.0264 442.392C23.8141 441.682 23.8141 439.151 22.0264 438.441L13.9498 435.234C13.8658 435.201 13.7992 435.134 13.7658 435.05L10.5588 426.975ZM7.59546 427.368C7.95019 426.474 9.21584 426.473 9.57114 427.366L12.778 435.443C12.9018 435.754 13.133 436.009 13.4268 436.163L13.5569 436.222L21.6335 439.429C22.5274 439.784 22.5274 441.049 21.6335 441.405L13.5569 444.611C13.246 444.735 12.9909 444.966 12.8375 445.26L12.778 445.39L9.57114 453.467C9.21584 454.36 7.95161 454.359 7.59687 453.466L4.39138 445.39L4.33061 445.259C4.17491 444.962 3.91807 444.733 3.61108 444.611L-4.46689 441.405C-5.36081 441.05 -5.36081 439.784 -4.46689 439.429L3.61108 436.222C3.91793 436.1 4.17506 435.872 4.33061 435.575L4.39138 435.443L7.59546 427.368Z" fill="url(#paint4_linear_1247_156)"/>
</g>
<path d="M-5 548.125H10.75V544.75H17.5V551.65H13.75V553.225C15.05 554.125 16.0625 555.225 16.7875 556.525C17.5375 557.85 17.9125 559.538 17.9125 561.588C17.9125 564.788 17.05 567.238 15.325 568.938C13.6 570.663 11.2875 571.525 8.3875 571.525H-5V564.625H7.0375C8.5875 564.625 9.7625 564.213 10.5625 563.388C11.3625 562.588 11.7625 561.4 11.7625 559.825C11.7625 558.25 11.3625 557.05 10.5625 556.225C9.7625 555.425 8.5875 555.025 7.0375 555.025H-5V548.125ZM-5.4125 583.407C-5.4125 580.707 -4.775 578.594 -3.5 577.069C-2.2 575.569 -0.475 574.819 1.675 574.819C3.9 574.819 5.6125 575.607 6.8125 577.182C8.0375 578.782 8.65 581.057 8.65 584.007V590.044H9.475C11.525 590.044 12.55 588.744 12.55 586.144C12.55 583.844 11.775 582.444 10.225 581.944V575.119C12.775 575.644 14.7 576.832 16 578.682C17.3 580.532 17.95 583.007 17.95 586.107C17.95 589.532 17.1875 592.144 15.6625 593.944C14.1625 595.744 11.9625 596.644 9.0625 596.644H1.75V599.869H-5V592.969H-1.25V591.394C-2.6 590.619 -3.6375 589.594 -4.3625 588.319C-5.0625 587.044 -5.4125 585.407 -5.4125 583.407ZM-0.2375 584.457C-0.2375 585.557 -0.0499998 586.519 0.325 587.344C0.7 588.194 1.2125 588.857 1.8625 589.332C2.5125 589.807 3.2375 590.044 4.0375 590.044H4.15V584.307C4.15 582.382 3.4375 581.419 2.0125 581.419C1.2875 581.419 0.725 581.682 0.325 582.207C-0.0499998 582.757 -0.2375 583.507 -0.2375 584.457ZM-5 604.279H10.75V600.904H17.5V607.804H13V609.379C14.625 609.954 15.825 610.892 16.6 612.192C17.4 613.492 17.8 614.942 17.8 616.542V618.454H11.8V616.242C11.8 614.392 11.2875 613.054 10.2625 612.229C9.2375 611.429 7.9 611.029 6.25 611.029H-5V604.279ZM-5.45 630.111C-5.45 627.761 -4.9625 625.774 -3.9875 624.149C-2.9875 622.549 -1.6125 621.336 0.1375 620.511C1.9125 619.686 3.95 619.274 6.25 619.274C8.575 619.274 10.6125 619.674 12.3625 620.474C14.1375 621.274 15.5125 622.436 16.4875 623.961C17.4625 625.511 17.95 627.361 17.95 629.511C17.95 631.111 17.65 632.486 17.05 633.636C16.475 634.786 15.6625 635.674 14.6125 636.299V636.449H26.5V643.349H1.75V646.724H-5V639.824H-1.25V638.249C-2.575 637.449 -3.6125 636.361 -4.3625 634.986C-5.0875 633.636 -5.45 632.011 -5.45 630.111ZM0.55 631.424C0.55 632.974 0.975 634.199 1.825 635.099C2.7 635.999 3.9 636.449 5.425 636.449H7.075C8.6 636.449 9.7875 635.999 10.6375 635.099C11.5125 634.199 11.95 632.974 11.95 631.424C11.95 629.649 11.4375 628.324 10.4125 627.449C9.3875 626.599 8 626.174 6.25 626.174C4.5 626.174 3.1125 626.599 2.0875 627.449C1.0625 628.324 0.55 629.649 0.55 631.424Z" fill="url(#paint5_linear_1247_156)"/>
<path d="M-5.4125 890.963C-5.4125 887.738 -4.5875 885.287 -2.9375 883.612C-1.2625 881.937 1.0125 881.1 3.8875 881.1H17.5V888H5.2375C3.7125 888 2.575 888.375 1.825 889.125C1.1 889.9 0.7375 891.063 0.7375 892.613C0.7375 894.238 1.1375 895.475 1.9375 896.325C2.7625 897.175 3.9375 897.6 5.4625 897.6H17.5V904.5H1.75V907.875H-5V900.975H-1.25V899.4C-2.6 898.475 -3.6375 897.375 -4.3625 896.1C-5.0625 894.825 -5.4125 893.113 -5.4125 890.963ZM-5.45 921.144C-5.45 917.769 -4.7375 915.107 -3.3125 913.157C-1.8875 911.232 0.1 910.194 2.65 910.044V916.682C1.65 916.882 0.9125 917.357 0.4375 918.107C-0.0374998 918.882 -0.275 919.994 -0.275 921.444C-0.275 923.694 0.3125 924.819 1.4875 924.819C1.9625 924.819 2.3375 924.644 2.6125 924.294C2.9125 923.969 3.1375 923.419 3.2875 922.644L4.2625 917.619C5.1625 913.019 7.3125 910.719 10.7125 910.719C12.9125 910.719 14.6625 911.607 15.9625 913.382C17.2875 915.157 17.95 917.607 17.95 920.732C17.95 923.857 17.275 926.319 15.925 928.119C14.575 929.919 12.675 930.894 10.225 931.044V924.407C11.2 924.157 11.9 923.707 12.325 923.057C12.775 922.432 13 921.507 13 920.282C13 919.282 12.8625 918.507 12.5875 917.957C12.3125 917.432 11.9 917.169 11.35 917.169C10.95 917.169 10.6125 917.332 10.3375 917.657C10.0625 917.982 9.8625 918.469 9.7375 919.119L8.725 924.294C8.25 926.694 7.475 928.457 6.4 929.582C5.325 930.707 3.875 931.269 2.05 931.269C-0.3 931.269 -2.1375 930.394 -3.4625 928.644C-4.7875 926.919 -5.45 924.419 -5.45 921.144ZM-5.45 945.462C-5.45 942.987 -4.975 940.837 -4.025 939.012C-3.05 937.187 -1.6875 935.774 0.0625002 934.774C1.8375 933.799 3.925 933.312 6.325 933.312C8.725 933.312 10.7875 933.787 12.5125 934.737C14.2625 935.712 15.6 937.087 16.525 938.862C17.475 940.662 17.95 942.774 17.95 945.199C17.95 947.599 17.4875 949.662 16.5625 951.387C15.6625 953.112 14.3625 954.424 12.6625 955.324C10.9625 956.249 8.925 956.712 6.55 956.712H4.3375V939.949C2.8875 940.224 1.7875 940.824 1.0375 941.749C0.3125 942.674 -0.05 943.899 -0.05 945.424C-0.05 946.649 0.1375 947.599 0.5125 948.274C0.9125 948.974 1.5375 949.474 2.3875 949.774V956.674C-0.0624998 956.199 -1.9875 954.974 -3.3875 952.999C-4.7625 951.024 -5.45 948.512 -5.45 945.462ZM8.8375 940.062V950.112C10.0875 949.887 11.0125 949.362 11.6125 948.537C12.2375 947.737 12.55 946.637 12.55 945.237C12.55 943.862 12.2375 942.737 11.6125 941.862C10.9875 940.987 10.0625 940.387 8.8375 940.062ZM-5 962.175H10.75V958.8H17.5V965.7H13V967.275C14.625 967.85 15.825 968.788 16.6 970.088C17.4 971.387 17.8 972.837 17.8 974.438V976.35H11.8V974.138C11.8 972.288 11.2875 970.95 10.2625 970.125C9.2375 969.325 7.9 968.925 6.25 968.925H-5V962.175ZM-5 990.127H17.5V997.027H-5V990.127ZM19.4125 993.577C19.4125 992.552 19.775 991.677 20.5 990.952C21.225 990.227 22.1 989.865 23.125 989.865C24.15 989.865 25.025 990.227 25.75 990.952C26.475 991.677 26.8375 992.552 26.8375 993.577C26.8375 994.602 26.475 995.477 25.75 996.202C25.025 996.927 24.15 997.29 23.125 997.29C22.1 997.29 21.225 996.927 20.5 996.202C19.775 995.477 19.4125 994.602 19.4125 993.577ZM-5 1003.54H10.75V1000.16H17.5V1007.06H13.75V1008.64C15.05 1009.54 16.0625 1010.64 16.7875 1011.94C17.5375 1013.26 17.9125 1014.95 17.9125 1017C17.9125 1020.2 17.05 1022.65 15.325 1024.35C13.6 1026.07 11.2875 1026.94 8.3875 1026.94H-5V1020.04H7.0375C8.5875 1020.04 9.7625 1019.62 10.5625 1018.8C11.3625 1018 11.7625 1016.81 11.7625 1015.24C11.7625 1013.66 11.3625 1012.46 10.5625 1011.64C9.7625 1010.84 8.5875 1010.44 7.0375 1010.44H-5V1003.54ZM-5 1038.97C-5 1037.22 -4.5625 1035.85 -3.6875 1034.88C-2.7875 1033.93 -1.425 1033.45 0.4 1033.45H12.1V1029.7H17.5V1033.53H24.25V1040.28H17.5V1045.23H12.1V1040.35H0.4V1045.75H-5V1038.97ZM-5.45 1059.85C-5.45 1057.38 -4.975 1055.23 -4.025 1053.4C-3.05 1051.58 -1.6875 1050.16 0.0625002 1049.16C1.8375 1048.19 3.925 1047.7 6.325 1047.7C8.725 1047.7 10.7875 1048.18 12.5125 1049.13C14.2625 1050.1 15.6 1051.48 16.525 1053.25C17.475 1055.05 17.95 1057.16 17.95 1059.59C17.95 1061.99 17.4875 1064.05 16.5625 1065.78C15.6625 1067.5 14.3625 1068.81 12.6625 1069.71C10.9625 1070.64 8.925 1071.1 6.55 1071.1H4.3375V1054.34C2.8875 1054.61 1.7875 1055.21 1.0375 1056.14C0.3125 1057.06 -0.05 1058.29 -0.05 1059.81C-0.05 1061.04 0.1375 1061.99 0.5125 1062.66C0.9125 1063.36 1.5375 1063.86 2.3875 1064.16V1071.06C-0.0624998 1070.59 -1.9875 1069.36 -3.3875 1067.39C-4.7625 1065.41 -5.45 1062.9 -5.45 1059.85ZM8.8375 1054.45V1064.5C10.0875 1064.28 11.0125 1063.75 11.6125 1062.93C12.2375 1062.13 12.55 1061.03 12.55 1059.63C12.55 1058.25 12.2375 1057.13 11.6125 1056.25C10.9875 1055.38 10.0625 1054.78 8.8375 1054.45ZM-5 1076.56H10.75V1073.19H17.5V1080.09H13V1081.66C14.625 1082.24 15.825 1083.18 16.6 1084.48C17.4 1085.78 17.8 1087.23 17.8 1088.83V1090.74H11.8V1088.53C11.8 1086.68 11.2875 1085.34 10.2625 1084.51C9.2375 1083.71 7.9 1083.31 6.25 1083.31H-5V1076.56ZM-5 1096.15H12.1V1092.33H17.5V1096.23H21.1C22.95 1096.23 24.3125 1096.7 25.1875 1097.65C26.0625 1098.63 26.5 1100 26.5 1101.78V1108.3H21.1V1102.98H17.5V1107.85H12.1V1103.05H-5V1096.15ZM-5.4125 1118.31C-5.4125 1115.61 -4.775 1113.5 -3.5 1111.98C-2.2 1110.48 -0.475 1109.73 1.675 1109.73C3.9 1109.73 5.6125 1110.51 6.8125 1112.09C8.0375 1113.69 8.65 1115.96 8.65 1118.91V1124.95H9.475C11.525 1124.95 12.55 1123.65 12.55 1121.05C12.55 1118.75 11.775 1117.35 10.225 1116.85V1110.03C12.775 1110.55 14.7 1111.74 16 1113.59C17.3 1115.44 17.95 1117.91 17.95 1121.01C17.95 1124.44 17.1875 1127.05 15.6625 1128.85C14.1625 1130.65 11.9625 1131.55 9.0625 1131.55H1.75V1134.78H-5V1127.88H-1.25V1126.3C-2.6 1125.53 -3.6375 1124.5 -4.3625 1123.23C-5.0625 1121.95 -5.4125 1120.31 -5.4125 1118.31ZM-0.2375 1119.36C-0.2375 1120.46 -0.0499998 1121.43 0.325 1122.25C0.7 1123.1 1.2125 1123.76 1.8625 1124.24C2.5125 1124.71 3.2375 1124.95 4.0375 1124.95H4.15V1119.21C4.15 1117.29 3.4375 1116.33 2.0125 1116.33C1.2875 1116.33 0.725 1116.59 0.325 1117.11C-0.0499998 1117.66 -0.2375 1118.41 -0.2375 1119.36ZM-5.45 1148.48C-5.45 1146.13 -4.975 1144.06 -4.025 1142.26C-3.05 1140.48 -1.6875 1139.08 0.0625002 1138.06C1.8125 1137.06 3.875 1136.56 6.25 1136.56C8.625 1136.56 10.6875 1137.06 12.4375 1138.06C14.1875 1139.06 15.5375 1140.46 16.4875 1142.26C17.4625 1144.06 17.95 1146.13 17.95 1148.48C17.95 1151.53 17.175 1154.03 15.625 1155.98C14.075 1157.96 11.975 1159.17 9.325 1159.62V1152.72C10.15 1152.42 10.7875 1151.91 11.2375 1151.18C11.7125 1150.48 11.95 1149.58 11.95 1148.48C11.95 1147.01 11.45 1145.8 10.45 1144.85C9.475 1143.92 8.075 1143.46 6.25 1143.46C4.425 1143.46 3.0125 1143.93 2.0125 1144.88C1.0375 1145.83 0.55 1147.03 0.55 1148.48C0.55 1150.86 1.5375 1152.31 3.5125 1152.83V1159.73C0.7375 1159.33 -1.45 1158.16 -3.05 1156.21C-4.65 1154.26 -5.45 1151.68 -5.45 1148.48ZM-5.45 1173.1C-5.45 1170.62 -4.975 1168.47 -4.025 1166.65C-3.05 1164.82 -1.6875 1163.41 0.0625002 1162.41C1.8375 1161.44 3.925 1160.95 6.325 1160.95C8.725 1160.95 10.7875 1161.42 12.5125 1162.37C14.2625 1163.35 15.6 1164.72 16.525 1166.5C17.475 1168.3 17.95 1170.41 17.95 1172.84C17.95 1175.24 17.4875 1177.3 16.5625 1179.02C15.6625 1180.75 14.3625 1182.06 12.6625 1182.96C10.9625 1183.89 8.925 1184.35 6.55 1184.35H4.3375V1167.59C2.8875 1167.86 1.7875 1168.46 1.0375 1169.39C0.3125 1170.31 -0.05 1171.54 -0.05 1173.06C-0.05 1174.29 0.1375 1175.24 0.5125 1175.91C0.9125 1176.61 1.5375 1177.11 2.3875 1177.41V1184.31C-0.0624998 1183.84 -1.9875 1182.61 -3.3875 1180.64C-4.7625 1178.66 -5.45 1176.15 -5.45 1173.1ZM8.8375 1167.7V1177.75C10.0875 1177.52 11.0125 1177 11.6125 1176.17C12.2375 1175.37 12.55 1174.27 12.55 1172.87C12.55 1171.5 12.2375 1170.37 11.6125 1169.5C10.9875 1168.62 10.0625 1168.02 8.8375 1167.7ZM-5.45 1197.91C-5.45 1194.54 -4.7375 1191.87 -3.3125 1189.92C-1.8875 1188 0.1 1186.96 2.65 1186.81V1193.45C1.65 1193.65 0.9125 1194.12 0.4375 1194.87C-0.0374998 1195.65 -0.275 1196.76 -0.275 1198.21C-0.275 1200.46 0.3125 1201.59 1.4875 1201.59C1.9625 1201.59 2.3375 1201.41 2.6125 1201.06C2.9125 1200.74 3.1375 1200.19 3.2875 1199.41L4.2625 1194.39C5.1625 1189.79 7.3125 1187.49 10.7125 1187.49C12.9125 1187.49 14.6625 1188.37 15.9625 1190.15C17.2875 1191.92 17.95 1194.37 17.95 1197.5C17.95 1200.62 17.275 1203.09 15.925 1204.89C14.575 1206.69 12.675 1207.66 10.225 1207.81V1201.17C11.2 1200.92 11.9 1200.47 12.325 1199.82C12.775 1199.2 13 1198.27 13 1197.05C13 1196.05 12.8625 1195.27 12.5875 1194.72C12.3125 1194.2 11.9 1193.94 11.35 1193.94C10.95 1193.94 10.6125 1194.1 10.3375 1194.42C10.0625 1194.75 9.8625 1195.24 9.7375 1195.89L8.725 1201.06C8.25 1203.46 7.475 1205.22 6.4 1206.35C5.325 1207.47 3.875 1208.04 2.05 1208.04C-0.3 1208.04 -2.1375 1207.16 -3.4625 1205.41C-4.7875 1203.69 -5.45 1201.19 -5.45 1197.91Z" fill="url(#paint6_linear_1247_156)"/>
<g clip-path="url(#clip1_1247_156)">
<mask id="mask2_1247_156" style="mask-type:luminance" maskUnits="userSpaceOnUse" x="-6" y="759" width="34" height="34">
<path d="M28 759H-6V793H28V759Z" fill="white"/>
<path d="M17.5962 772.051L14.3912 763.975C13.6816 762.187 11.151 762.187 10.4411 763.975L7.23428 772.051C7.20085 772.135 7.13453 772.201 7.05057 772.234L-1.02643 775.442C-2.81411 776.152 -2.81411 778.682 -1.02643 779.392L7.05057 782.599C7.13453 782.632 7.20085 782.699 7.23428 782.783L10.441 790.858C11.151 792.646 13.6815 792.646 14.3912 790.858L17.5962 782.783C17.6297 782.698 17.6969 782.632 17.7812 782.599L25.859 779.392C27.6467 778.682 27.6467 776.151 25.859 775.442L17.7812 772.234C17.6969 772.201 17.6297 772.135 17.5962 772.051Z" fill="black"/>
</mask>
<g mask="url(#mask2_1247_156)">
<path d="M12.4169 771.757C13.1992 771.757 13.8334 772.392 13.8335 773.174V776.007H16.6669C17.4492 776.007 18.0834 776.642 18.0835 777.424C18.0833 778.206 17.449 778.841 16.6669 778.841H13.8335V781.674C13.8333 782.456 13.199 783.091 12.4169 783.091C11.6347 783.091 11.0005 782.456 11.0002 781.674V778.841H8.16687C7.38474 778.841 6.75056 778.206 6.7502 777.424C6.7503 776.642 7.38459 776.008 8.16687 776.007H11.0002V773.174C11.0003 772.392 11.6346 771.758 12.4169 771.757ZM2.59981 760.9C3.0731 759.708 4.76085 759.708 5.23393 760.9L7.10437 765.615C7.12495 765.666 7.16632 765.706 7.21782 765.727L11.9341 767.6C13.1259 768.073 13.1259 769.76 11.9341 770.233L7.21782 772.106C7.16633 772.127 7.12497 772.167 7.10437 772.218L5.23393 776.933C4.76085 778.125 3.0731 778.125 2.59981 776.933L0.727981 772.218C0.707355 772.167 0.666059 772.127 0.614549 772.106L-4.1003 770.233C-5.29209 769.76 -5.29209 768.073 -4.1003 767.6L0.614549 765.727C0.666087 765.706 0.707369 765.666 0.727981 765.615L2.59981 760.9Z" fill="url(#paint7_linear_1247_156)"/>
</g>
<mask id="mask3_1247_156" style="mask-type:luminance" maskUnits="userSpaceOnUse" x="-3" y="762" width="31" height="31">
<path d="M17.5962 772.051L14.3912 763.975C13.6816 762.187 11.151 762.187 10.4411 763.975L7.23428 772.051C7.20085 772.135 7.13453 772.201 7.05057 772.234L-1.02643 775.442C-2.81411 776.152 -2.81411 778.682 -1.02643 779.392L7.05057 782.599C7.13453 782.632 7.20085 782.699 7.23428 782.783L10.441 790.858C11.151 792.646 13.6815 792.646 14.3912 790.858L17.5962 782.783C17.6297 782.698 17.6969 782.632 17.7812 782.599L25.859 779.392C27.6467 778.682 27.6467 776.151 25.859 775.442L17.7812 772.234C17.6969 772.201 17.6297 772.135 17.5962 772.051Z" fill="white"/>
</mask>
<g mask="url(#mask3_1247_156)">
<g filter="url(#filter1_f_1247_156)">
<path d="M12.4164 771.757C13.1987 771.757 13.8329 772.392 13.833 773.174V776.007H16.6664C17.4487 776.007 18.0829 776.642 18.083 777.424C18.0828 778.206 17.4485 778.841 16.6664 778.841H13.833V781.674C13.8328 782.456 13.1985 783.091 12.4164 783.091C11.6342 783.091 11 782.456 10.9997 781.674V778.841H8.16638C7.38425 778.841 6.75007 778.206 6.74971 777.424C6.74981 776.642 7.3841 776.008 8.16638 776.007H10.9997V773.174C10.9999 772.392 11.6341 771.758 12.4164 771.757ZM2.59932 760.9C3.07261 759.708 4.76036 759.708 5.23344 760.9L7.10388 765.615C7.12447 765.666 7.16583 765.706 7.21733 765.727L11.9336 767.6C13.1254 768.073 13.1254 769.76 11.9336 770.233L7.21733 772.106C7.16585 772.127 7.12448 772.167 7.10388 772.218L5.23344 776.933C4.76036 778.125 3.07261 778.125 2.59932 776.933L0.727493 772.218C0.706866 772.167 0.665571 772.127 0.614061 772.106L-4.10079 770.233C-5.29258 769.76 -5.29258 768.073 -4.10079 767.6L0.614061 765.727C0.665599 765.706 0.706881 765.666 0.727493 765.615L2.59932 760.9Z" fill="url(#paint8_linear_1247_156)"/>
</g>
</g>
<path d="M17.5962 772.051L14.3912 763.975C13.6816 762.187 11.151 762.187 10.4411 763.975L7.23428 772.051C7.20085 772.135 7.13453 772.201 7.05057 772.234L-1.02643 775.442C-2.81411 776.152 -2.81411 778.682 -1.02643 779.392L7.05057 782.599C7.13453 782.632 7.20085 782.699 7.23428 782.783L10.441 790.858C11.151 792.646 13.6815 792.646 14.3912 790.858L17.5962 782.783C17.6297 782.698 17.6969 782.632 17.7812 782.599L25.859 779.392C27.6467 778.682 27.6467 776.151 25.859 775.442L17.7812 772.234C17.6969 772.201 17.6297 772.135 17.5962 772.051Z" fill="url(#paint9_linear_1247_156)"/>
<path d="M10.4412 763.975C11.1509 762.187 13.6811 762.187 14.3908 763.975L17.5963 772.05C17.6299 772.135 17.6975 772.201 17.7818 772.234L25.8585 775.441C27.6462 776.151 27.6462 778.682 25.8585 779.392L17.7818 782.599L17.7223 782.63C17.6659 782.666 17.6215 782.72 17.5963 782.783L14.3908 790.858L14.319 791.02C13.5502 792.592 11.2817 792.592 10.513 791.02L10.4412 790.858L7.23422 782.783C7.20081 782.699 7.13418 782.633 7.05023 782.599L-1.02643 779.392C-2.81411 778.682 -2.81411 776.151 -1.02643 775.441L7.05023 772.234C7.13418 772.201 7.20081 772.134 7.23422 772.05L10.4412 763.975ZM13.4045 764.368C13.0498 763.474 11.7842 763.473 11.4289 764.366L8.22195 772.443C8.09822 772.754 7.86704 773.009 7.57318 773.163L7.44313 773.222L-0.633531 776.429C-1.52738 776.784 -1.52736 778.049 -0.633531 778.405L7.44313 781.611C7.75404 781.735 8.00913 781.966 8.16252 782.26L8.22195 782.39L11.4289 790.467C11.7842 791.36 13.0484 791.359 13.4031 790.466L16.6086 782.39L16.6694 782.259C16.8251 781.962 17.0819 781.733 17.3889 781.611L25.4669 778.405C26.3608 778.05 26.3608 776.784 25.4669 776.429L17.3889 773.222C17.0821 773.1 16.8249 772.872 16.6694 772.575L16.6086 772.443L13.4045 764.368Z" fill="url(#paint10_linear_1247_156)"/>
</g>
</g>
<defs>
<filter id="filter0_f_1247_156" x="-1.08301" y="419.006" width="31.0776" height="31.0847" filterUnits="userSpaceOnUse" color-interpolation-filters="sRGB">
<feFlood flood-opacity="0" result="BackgroundImageFix"/>
<feBlend mode="normal" in="SourceGraphic" in2="BackgroundImageFix" result="shape"/>
<feGaussianBlur stdDeviation="2" result="effect1_foregroundBlur_1247_156"/>
</filter>
<filter id="filter1_f_1247_156" x="-8.99463" y="756.006" width="31.0776" height="31.0847" filterUnits="userSpaceOnUse" color-interpolation-filters="sRGB">
<feFlood flood-opacity="0" result="BackgroundImageFix"/>
<feBlend mode="normal" in="SourceGraphic" in2="BackgroundImageFix" result="shape"/>
<feGaussianBlur stdDeviation="2" result="effect1_foregroundBlur_1247_156"/>
</filter>
<linearGradient id="paint0_linear_1247_156" x1="15" y1="179.5" x2="-60.5" y2="266.5" gradientUnits="userSpaceOnUse">
<stop stop-color="#D5D5D5"/>
<stop offset="1" stop-color="#999999"/>
</linearGradient>
<linearGradient id="paint1_linear_1247_156" x1="14.4552" y1="423.006" x2="14.4552" y2="441.125" gradientUnits="userSpaceOnUse">
<stop stop-color="#575757"/>
<stop offset="1" stop-color="#151515"/>
</linearGradient>
<linearGradient id="paint2_linear_1247_156" x1="14.4557" y1="423.006" x2="14.4557" y2="441.125" gradientUnits="userSpaceOnUse">
<stop stop-color="#575757"/>
<stop offset="1" stop-color="#151515"/>
</linearGradient>
<linearGradient id="paint3_linear_1247_156" x1="8.58347" y1="422" x2="8.58347" y2="458.833" gradientUnits="userSpaceOnUse">
<stop stop-color="#E3E3E5" stop-opacity="0.6"/>
<stop offset="1" stop-color="#BBBBC0" stop-opacity="0.6"/>
</linearGradient>
<linearGradient id="paint4_linear_1247_156" x1="8.58457" y1="425.634" x2="8.58457" y2="441.125" gradientUnits="userSpaceOnUse">
<stop stop-color="white"/>
<stop offset="1" stop-color="white" stop-opacity="0"/>
</linearGradient>
<linearGradient id="paint5_linear_1247_156" x1="14.5" y1="544" x2="14.5" y2="673" gradientUnits="userSpaceOnUse">
<stop stop-color="#D5D5D5"/>
<stop offset="1" stop-color="#999999"/>
</linearGradient>
<linearGradient id="paint6_linear_1247_156" x1="14.5" y1="879" x2="14.5" y2="1304" gradientUnits="userSpaceOnUse">
<stop stop-color="#D5D5D5"/>
<stop offset="1" stop-color="#999999"/>
</linearGradient>
<linearGradient id="paint7_linear_1247_156" x1="6.54479" y1="760.006" x2="6.54479" y2="778.125" gradientUnits="userSpaceOnUse">
<stop stop-color="#575757"/>
<stop offset="1" stop-color="#151515"/>
</linearGradient>
<linearGradient id="paint8_linear_1247_156" x1="6.5443" y1="760.006" x2="6.5443" y2="778.125" gradientUnits="userSpaceOnUse">
<stop stop-color="#575757"/>
<stop offset="1" stop-color="#151515"/>
</linearGradient>
<linearGradient id="paint9_linear_1247_156" x1="12.4165" y1="759" x2="12.4165" y2="795.833" gradientUnits="userSpaceOnUse">
<stop stop-color="#E3E3E5" stop-opacity="0.6"/>
<stop offset="1" stop-color="#BBBBC0" stop-opacity="0.6"/>
</linearGradient>
<linearGradient id="paint10_linear_1247_156" x1="12.4154" y1="762.634" x2="12.4154" y2="778.125" gradientUnits="userSpaceOnUse">
<stop stop-color="white"/>
<stop offset="1" stop-color="white" stop-opacity="0"/>
</linearGradient>
<clipPath id="clip0_1247_156">
<rect width="34" height="34" fill="white" transform="matrix(-1 0 0 1 27 422)"/>
</clipPath>
<clipPath id="clip1_1247_156">
<rect width="34" height="34" fill="white" transform="translate(-6 759)"/>
</clipPath>
</defs>
</svg>
