<svg width="417" height="416" viewBox="0 0 417 416" fill="none" xmlns="http://www.w3.org/2000/svg">
<mask id="mask0_1255_805" style="mask-type:alpha" maskUnits="userSpaceOnUse" x="51" y="47" width="330" height="329">
<path d="M372.856 261.044C372.508 262.194 372.106 263.328 371.654 264.442C371.527 264.752 371.137 264.846 370.879 264.632C361.025 256.455 350.943 248.511 340.86 240.912C340.701 240.792 340.628 240.589 340.674 240.396C346.897 214.284 344.725 186.871 334.463 162.061C324.159 137.15 306.228 116.143 283.244 102.055C260.26 87.9668 233.404 81.522 206.529 83.6451C179.761 85.7598 154.346 96.2665 133.9 113.665C133.752 113.791 133.543 113.82 133.366 113.738C121.525 108.289 110.366 102.956 98.5397 97.965C98.2163 97.8286 98.1299 97.4098 98.374 97.1578C123.989 70.7156 157.752 53.6419 194.246 48.6909C230.981 43.7073 268.321 51.2999 300.192 70.2338C332.064 89.1676 356.591 118.329 369.784 152.973C382.978 187.617 384.06 225.706 372.856 261.044Z" fill="#2D2D2F"/>
<path d="M341.679 315.543C342.092 315.9 342.142 316.524 341.788 316.941C317.363 345.697 283.779 365.181 246.67 372.104C209.238 379.086 170.543 372.853 137.197 354.469C103.85 336.086 77.9229 306.693 63.8447 271.313C49.7664 235.934 48.4112 196.763 60.0104 160.495C61.4712 155.749 63.2065 151.093 65.2073 146.549C65.4284 146.047 66.0146 145.821 66.5165 146.042C76.7719 150.566 87.5452 155.803 98.0179 160.22C98.5361 160.438 98.7738 161.04 98.55 161.556C97.1448 164.794 95.9241 168.143 94.7035 171.694C85.6158 199.938 86.6371 230.463 97.5921 258.037C108.547 285.61 128.753 308.513 154.746 322.82C180.739 337.126 210.9 341.944 240.056 336.447C268.887 331.012 294.96 315.826 313.909 293.454C314.264 293.035 314.89 292.974 315.315 293.323C324.286 300.696 333.143 308.171 341.679 315.543Z" fill="url(#paint0_linear_1255_805)" shape-rendering="crispEdges"/>
<path d="M341.679 315.543C342.092 315.9 342.142 316.524 341.788 316.941C317.363 345.697 283.779 365.181 246.67 372.104C209.238 379.086 170.543 372.853 137.197 354.469C103.85 336.086 77.9229 306.693 63.8447 271.313C49.7664 235.934 48.4112 196.763 60.0104 160.495C61.4712 155.749 63.2065 151.093 65.2073 146.549C65.4284 146.047 66.0146 145.821 66.5165 146.042C76.7719 150.566 87.5452 155.803 98.0179 160.22C98.5361 160.438 98.7738 161.04 98.55 161.556C97.1448 164.794 95.9241 168.143 94.7035 171.694C85.6158 199.938 86.6371 230.463 97.5921 258.037C108.547 285.61 128.753 308.513 154.746 322.82C180.739 337.126 210.9 341.944 240.056 336.447C268.887 331.012 294.96 315.826 313.909 293.454C314.264 293.035 314.89 292.974 315.315 293.323C324.286 300.696 333.143 308.171 341.679 315.543Z" stroke="url(#paint1_linear_1255_805)" shape-rendering="crispEdges"/>
<path d="M341.679 315.543C342.092 315.9 342.142 316.524 341.788 316.941C317.363 345.697 283.779 365.181 246.67 372.104C209.238 379.086 170.543 372.853 137.197 354.469C103.85 336.086 77.9229 306.693 63.8447 271.313C49.7664 235.934 48.4112 196.763 60.0104 160.495C61.4712 155.749 63.2065 151.093 65.2073 146.549C65.4284 146.047 66.0146 145.821 66.5165 146.042C76.7719 150.566 87.5452 155.803 98.0179 160.22C98.5361 160.438 98.7738 161.04 98.55 161.556C97.1448 164.794 95.9241 168.143 94.7035 171.694C85.6158 199.938 86.6371 230.463 97.5921 258.037C108.547 285.61 128.753 308.513 154.746 322.82C180.739 337.126 210.9 341.944 240.056 336.447C268.887 331.012 294.96 315.826 313.909 293.454C314.264 293.035 314.89 292.974 315.315 293.323C324.286 300.696 333.143 308.171 341.679 315.543Z" stroke="url(#paint2_linear_1255_805)" stroke-opacity="0.2" shape-rendering="crispEdges"/>
<path d="M241.024 143.818C264.153 143.818 279.613 159.399 279.613 190.319V221.725C279.613 233.435 279.613 249.735 279.883 262.738L293.611 265.548V277.721H280.449C280.454 277.802 280.459 277.884 280.464 277.964H236.155C236.155 277.884 236.156 277.802 236.156 277.721H222.521V265.548L236.334 262.509C236.55 249.532 236.885 233.382 236.885 221.725V193.362C236.885 176.198 232.625 170.112 221.912 170.112C215.373 170.974 209.076 173.155 203.406 176.524C201.891 177.424 200.43 178.404 199.027 179.458V221.117C199.027 232.672 199.028 249.625 199.277 262.909L211.93 265.548V277.721H141.449V265.548L155.651 262.423C155.903 249.261 156.3 232.808 156.3 221.482V206.022C156.3 191.293 156.3 185.693 155.448 174.981L139.136 172.546V161.956L191.967 143.818L196.471 146.739L198.166 166.443C212.4 149.738 225.432 143.818 241.024 143.818Z" fill="#232326"/>
</mask>
<g mask="url(#mask0_1255_805)">
<g filter="url(#filter0_d_1255_805)">
<path d="M341.679 315.543C342.092 315.9 342.142 316.524 341.788 316.941C317.363 345.697 283.779 365.181 246.67 372.104C209.238 379.086 170.543 372.853 137.197 354.469C103.85 336.086 77.9229 306.693 63.8447 271.313C49.7664 235.934 48.4112 196.763 60.0104 160.495C61.4712 155.749 63.2065 151.093 65.2073 146.549C65.4284 146.047 66.0146 145.821 66.5165 146.042C76.7719 150.566 87.5452 155.803 98.0179 160.22C98.5361 160.438 98.7738 161.04 98.55 161.556C97.1448 164.794 95.9241 168.143 94.7035 171.694C85.6158 199.938 86.6371 230.463 97.5921 258.037C108.547 285.61 128.753 308.513 154.746 322.82C180.739 337.126 210.9 341.944 240.056 336.447C268.887 331.012 294.96 315.826 313.909 293.454C314.264 293.035 314.89 292.974 315.315 293.323C324.286 300.696 333.143 308.171 341.679 315.543Z" fill="url(#paint3_linear_1255_805)" shape-rendering="crispEdges"/>
<path d="M341.679 315.543C342.092 315.9 342.142 316.524 341.788 316.941C317.363 345.697 283.779 365.181 246.67 372.104C209.238 379.086 170.543 372.853 137.197 354.469C103.85 336.086 77.9229 306.693 63.8447 271.313C49.7664 235.934 48.4112 196.763 60.0104 160.495C61.4712 155.749 63.2065 151.093 65.2073 146.549C65.4284 146.047 66.0146 145.821 66.5165 146.042C76.7719 150.566 87.5452 155.803 98.0179 160.22C98.5361 160.438 98.7738 161.04 98.55 161.556C97.1448 164.794 95.9241 168.143 94.7035 171.694C85.6158 199.938 86.6371 230.463 97.5921 258.037C108.547 285.61 128.753 308.513 154.746 322.82C180.739 337.126 210.9 341.944 240.056 336.447C268.887 331.012 294.96 315.826 313.909 293.454C314.264 293.035 314.89 292.974 315.315 293.323C324.286 300.696 333.143 308.171 341.679 315.543Z" stroke="url(#paint4_linear_1255_805)" shape-rendering="crispEdges"/>
<path d="M341.679 315.543C342.092 315.9 342.142 316.524 341.788 316.941C317.363 345.697 283.779 365.181 246.67 372.104C209.238 379.086 170.543 372.853 137.197 354.469C103.85 336.086 77.9229 306.693 63.8447 271.313C49.7664 235.934 48.4112 196.763 60.0104 160.495C61.4712 155.749 63.2065 151.093 65.2073 146.549C65.4284 146.047 66.0146 145.821 66.5165 146.042C76.7719 150.566 87.5452 155.803 98.0179 160.22C98.5361 160.438 98.7738 161.04 98.55 161.556C97.1448 164.794 95.9241 168.143 94.7035 171.694C85.6158 199.938 86.6371 230.463 97.5921 258.037C108.547 285.61 128.753 308.513 154.746 322.82C180.739 337.126 210.9 341.944 240.056 336.447C268.887 331.012 294.96 315.826 313.909 293.454C314.264 293.035 314.89 292.974 315.315 293.323C324.286 300.696 333.143 308.171 341.679 315.543Z" stroke="url(#paint5_linear_1255_805)" stroke-opacity="0.2" shape-rendering="crispEdges"/>
</g>
<g filter="url(#filter1_d_1255_805)">
<path d="M372.856 261.044C372.508 262.194 372.106 263.328 371.654 264.442C371.527 264.752 371.137 264.846 370.879 264.632C361.025 256.455 350.943 248.511 340.86 240.912C340.701 240.792 340.628 240.589 340.674 240.396C346.897 214.284 344.725 186.871 334.463 162.061C324.159 137.15 306.228 116.143 283.244 102.055C260.26 87.9668 233.404 81.522 206.529 83.6451C179.761 85.7598 154.346 96.2665 133.9 113.665C133.752 113.791 133.543 113.82 133.366 113.738C121.525 108.289 110.366 102.956 98.5397 97.965C98.2163 97.8286 98.1299 97.4098 98.374 97.1578C123.989 70.7156 157.752 53.6419 194.246 48.6909C230.981 43.7073 268.321 51.2999 300.192 70.2338C332.064 89.1676 356.591 118.329 369.784 152.973C382.978 187.617 384.06 225.706 372.856 261.044Z" fill="#2D2D2F"/>
</g>
<path d="M241.023 143.818C264.152 143.819 279.612 159.399 279.612 190.318V221.725C279.612 233.435 279.612 249.735 279.883 262.738L293.611 265.548V277.721H280.448C280.454 277.803 280.458 277.884 280.464 277.964H236.154C236.154 277.884 236.155 277.803 236.155 277.721H222.521V265.548L236.333 262.509C236.549 249.533 236.885 233.382 236.885 221.725V193.362C236.885 176.199 232.624 170.112 221.912 170.111C215.373 170.973 209.076 173.156 203.405 176.525C201.891 177.424 200.429 178.404 199.026 179.458V221.116C199.026 232.672 199.028 249.625 199.276 262.908L211.93 265.548V277.721H141.448V265.548L155.65 262.423C155.902 249.261 156.3 232.807 156.3 221.482V206.022C156.3 191.293 156.299 185.693 155.447 174.981L139.136 172.546V161.956L191.967 143.818L196.471 146.739L198.166 166.443C212.4 149.738 225.431 143.819 241.023 143.818Z" fill="#232326"/>
<mask id="mask1_1255_805" style="mask-type:alpha" maskUnits="userSpaceOnUse" x="51" y="47" width="330" height="329">
<path d="M341.679 315.543C342.092 315.901 342.142 316.524 341.788 316.941C317.363 345.697 283.779 365.182 246.67 372.104C209.238 379.086 170.543 372.853 137.197 354.469C103.85 336.086 77.9229 306.693 63.8447 271.313C49.7664 235.934 48.4112 196.763 60.0104 160.495C61.4712 155.749 63.2065 151.093 65.2073 146.549C65.4284 146.047 66.0146 145.821 66.5165 146.042C76.7719 150.566 87.5452 155.803 98.0179 160.22C98.5361 160.438 98.7738 161.04 98.55 161.556C97.1448 164.794 95.9241 168.143 94.7035 171.694C85.6158 199.938 86.6371 230.463 97.5921 258.037C108.547 285.61 128.753 308.513 154.746 322.82C180.739 337.126 210.9 341.944 240.056 336.447C268.887 331.012 294.96 315.826 313.909 293.454C314.264 293.035 314.89 292.975 315.315 293.323C324.286 300.696 333.143 308.171 341.679 315.543Z" fill="url(#paint6_linear_1255_805)" shape-rendering="crispEdges"/>
<path d="M341.679 315.543C342.092 315.901 342.142 316.524 341.788 316.941C317.363 345.697 283.779 365.182 246.67 372.104C209.238 379.086 170.543 372.853 137.197 354.469C103.85 336.086 77.9229 306.693 63.8447 271.313C49.7664 235.934 48.4112 196.763 60.0104 160.495C61.4712 155.749 63.2065 151.093 65.2073 146.549C65.4284 146.047 66.0146 145.821 66.5165 146.042C76.7719 150.566 87.5452 155.803 98.0179 160.22C98.5361 160.438 98.7738 161.04 98.55 161.556C97.1448 164.794 95.9241 168.143 94.7035 171.694C85.6158 199.938 86.6371 230.463 97.5921 258.037C108.547 285.61 128.753 308.513 154.746 322.82C180.739 337.126 210.9 341.944 240.056 336.447C268.887 331.012 294.96 315.826 313.909 293.454C314.264 293.035 314.89 292.975 315.315 293.323C324.286 300.696 333.143 308.171 341.679 315.543Z" stroke="url(#paint7_linear_1255_805)" shape-rendering="crispEdges"/>
<path d="M341.679 315.543C342.092 315.901 342.142 316.524 341.788 316.941C317.363 345.697 283.779 365.182 246.67 372.104C209.238 379.086 170.543 372.853 137.197 354.469C103.85 336.086 77.9229 306.693 63.8447 271.313C49.7664 235.934 48.4112 196.763 60.0104 160.495C61.4712 155.749 63.2065 151.093 65.2073 146.549C65.4284 146.047 66.0146 145.821 66.5165 146.042C76.7719 150.566 87.5452 155.803 98.0179 160.22C98.5361 160.438 98.7738 161.04 98.55 161.556C97.1448 164.794 95.9241 168.143 94.7035 171.694C85.6158 199.938 86.6371 230.463 97.5921 258.037C108.547 285.61 128.753 308.513 154.746 322.82C180.739 337.126 210.9 341.944 240.056 336.447C268.887 331.012 294.96 315.826 313.909 293.454C314.264 293.035 314.89 292.975 315.315 293.323C324.286 300.696 333.143 308.171 341.679 315.543Z" stroke="url(#paint8_linear_1255_805)" stroke-opacity="0.2" shape-rendering="crispEdges"/>
<path d="M372.856 261.044C372.508 262.194 372.106 263.328 371.654 264.442C371.527 264.752 371.137 264.846 370.879 264.632C361.025 256.455 350.943 248.511 340.86 240.912C340.701 240.792 340.628 240.589 340.674 240.396C346.897 214.284 344.725 186.871 334.463 162.061C324.159 137.15 306.228 116.143 283.244 102.055C260.26 87.9669 233.404 81.522 206.529 83.6451C179.761 85.7598 154.346 96.2665 133.9 113.665C133.752 113.791 133.543 113.82 133.366 113.738C121.525 108.289 110.366 102.956 98.5397 97.9651C98.2163 97.8286 98.1299 97.4099 98.374 97.1578C123.989 70.7156 157.752 53.642 194.246 48.691C230.981 43.7073 268.321 51.3 300.192 70.2338C332.064 89.1676 356.591 118.329 369.784 152.973C382.978 187.617 384.06 225.706 372.856 261.044Z" fill="#2D2D2F"/>
</mask>
<g mask="url(#mask1_1255_805)">
<g style="mix-blend-mode:color-dodge" filter="url(#filter2_f_1255_805)">
<path d="M41.111 190.357L58.7585 203.357C60.0559 204.313 61.8767 204.072 62.8821 202.813L119.923 131.371C120.287 130.915 120.51 130.363 120.565 129.782L126.829 63.5949C127.095 60.7888 123.694 59.1985 121.711 61.2012L45.2464 138.408C44.8008 138.858 44.5091 139.437 44.4128 140.063L41.6021 158.337L39.8953 187.768C39.8365 188.781 40.2939 189.756 41.111 190.357Z" fill="#D9D9D9"/>
</g>
</g>
<g filter="url(#filter3_f_1255_805)">
<path d="M88.123 65.3471C50.9937 70.4088 14.5349 157.066 31.6168 186.21C48.6987 215.353 186.953 215.606 203.1 178.865C219.247 142.123 125.252 60.2854 88.123 65.3471Z" fill="#59C0F7" fill-opacity="0.63"/>
</g>
</g>
<mask id="mask2_1255_805" style="mask-type:alpha" maskUnits="userSpaceOnUse" x="139" y="143" width="155" height="135">
<path d="M241.024 143.818C264.153 143.818 279.613 159.399 279.613 190.319V221.725C279.613 233.435 279.613 249.735 279.883 262.738L293.611 265.548V277.721H280.449C280.454 277.802 280.459 277.884 280.464 277.964H236.155C236.155 277.884 236.156 277.802 236.156 277.721H222.521V265.548L236.334 262.509C236.55 249.532 236.885 233.382 236.885 221.725V193.362C236.885 176.198 232.625 170.112 221.912 170.112C215.373 170.974 209.076 173.155 203.406 176.524C201.891 177.424 200.43 178.404 199.027 179.458V221.117C199.027 232.672 199.028 249.625 199.277 262.909L211.93 265.548V277.721H141.449V265.548L155.651 262.423C155.903 249.261 156.3 232.808 156.3 221.482V206.022C156.3 191.293 156.3 185.693 155.448 174.981L139.136 172.546V161.956L191.967 143.818L196.471 146.739L198.166 166.443C212.4 149.738 225.432 143.818 241.024 143.818Z" fill="#232326"/>
</mask>
<g mask="url(#mask2_1255_805)">
<g filter="url(#filter4_f_1255_805)">
<path d="M120.456 166.436L136.032 174.876C136.798 175.29 137.706 175.352 138.52 175.045L189.044 155.979C189.974 155.628 190.669 154.839 190.902 153.873L196.467 130.717C196.999 128.505 194.972 126.53 192.775 127.117L124.817 145.297C123.889 145.545 123.136 146.223 122.791 147.121L120.634 152.745C120.557 152.944 120.503 153.149 120.47 153.359L118.921 163.338C118.726 164.591 119.341 165.831 120.456 166.436Z" fill="#D9D9D9"/>
</g>
<g filter="url(#filter5_dd_1255_805)">
<path d="M241.024 143.818C264.153 143.818 279.613 159.399 279.613 190.319V221.725C279.613 233.435 279.613 249.735 279.883 262.738L293.611 265.548V277.721H280.449C280.454 277.802 280.459 277.884 280.464 277.964H236.155C236.155 277.884 236.156 277.802 236.156 277.721H222.521V265.548L236.334 262.509C236.55 249.532 236.885 233.382 236.885 221.725V193.362C236.885 176.198 232.625 170.112 221.912 170.112C215.373 170.974 209.076 173.155 203.406 176.524C201.891 177.424 200.43 178.404 199.027 179.458V221.117C199.027 232.672 199.028 249.625 199.277 262.909L211.93 265.548V277.721H141.449V265.548L155.651 262.423C155.903 249.261 156.3 232.808 156.3 221.482V206.022C156.3 191.293 156.3 185.693 155.448 174.981L139.136 172.546V161.956L191.967 143.818L196.471 146.739L198.166 166.443C212.4 149.738 225.432 143.818 241.024 143.818Z" fill="#232326" fill-opacity="0.04" shape-rendering="crispEdges"/>
</g>
</g>
<defs>
<filter id="filter0_d_1255_805" x="0.00019455" y="98.2573" width="378.224" height="317.333" filterUnits="userSpaceOnUse" color-interpolation-filters="sRGB">
<feFlood flood-opacity="0" result="BackgroundImageFix"/>
<feColorMatrix in="SourceAlpha" type="matrix" values="0 0 0 0 0 0 0 0 0 0 0 0 0 0 0 0 0 0 127 0" result="hardAlpha"/>
<feOffset dx="-8" dy="-3.5"/>
<feGaussianBlur stdDeviation="21.85"/>
<feComposite in2="hardAlpha" operator="out"/>
<feColorMatrix type="matrix" values="0 0 0 0 0 0 0 0 0 0 0 0 0 0 0 0 0 0 1 0"/>
<feBlend mode="normal" in2="BackgroundImageFix" result="effect1_dropShadow_1255_805"/>
<feBlend mode="normal" in="SourceGraphic" in2="effect1_dropShadow_1255_805" result="shape"/>
</filter>
<filter id="filter1_d_1255_805" x="46.5334" y="1.14441e-05" width="369.702" height="304.948" filterUnits="userSpaceOnUse" color-interpolation-filters="sRGB">
<feFlood flood-opacity="0" result="BackgroundImageFix"/>
<feColorMatrix in="SourceAlpha" type="matrix" values="0 0 0 0 0 0 0 0 0 0 0 0 0 0 0 0 0 0 127 0" result="hardAlpha"/>
<feOffset dx="-8" dy="-3.5"/>
<feGaussianBlur stdDeviation="21.85"/>
<feComposite in2="hardAlpha" operator="out"/>
<feColorMatrix type="matrix" values="0 0 0 0 0 0 0 0 0 0 0 0 0 0 0 0 0 0 1 0"/>
<feBlend mode="normal" in2="BackgroundImageFix" result="effect1_dropShadow_1255_805"/>
<feBlend mode="normal" in="SourceGraphic" in2="effect1_dropShadow_1255_805" result="shape"/>
</filter>
<filter id="filter2_f_1255_805" x="13.9906" y="34.4037" width="138.753" height="195.438" filterUnits="userSpaceOnUse" color-interpolation-filters="sRGB">
<feFlood flood-opacity="0" result="BackgroundImageFix"/>
<feBlend mode="normal" in="SourceGraphic" in2="BackgroundImageFix" result="shape"/>
<feGaussianBlur stdDeviation="12.95" result="effect1_foregroundBlur_1255_805"/>
</filter>
<filter id="filter3_f_1255_805" x="-43.7158" y="-5.87738" width="319.663" height="284.193" filterUnits="userSpaceOnUse" color-interpolation-filters="sRGB">
<feFlood flood-opacity="0" result="BackgroundImageFix"/>
<feBlend mode="normal" in="SourceGraphic" in2="BackgroundImageFix" result="shape"/>
<feGaussianBlur stdDeviation="35.5" result="effect1_foregroundBlur_1255_805"/>
</filter>
<filter id="filter4_f_1255_805" x="92.9848" y="101.112" width="129.468" height="100.025" filterUnits="userSpaceOnUse" color-interpolation-filters="sRGB">
<feFlood flood-opacity="0" result="BackgroundImageFix"/>
<feBlend mode="normal" in="SourceGraphic" in2="BackgroundImageFix" result="shape"/>
<feGaussianBlur stdDeviation="12.95" result="effect1_foregroundBlur_1255_805"/>
</filter>
<filter id="filter5_dd_1255_805" x="118.136" y="130.318" width="196.476" height="194.746" filterUnits="userSpaceOnUse" color-interpolation-filters="sRGB">
<feFlood flood-opacity="0" result="BackgroundImageFix"/>
<feColorMatrix in="SourceAlpha" type="matrix" values="0 0 0 0 0 0 0 0 0 0 0 0 0 0 0 0 0 0 127 0" result="hardAlpha"/>
<feOffset dy="7.5"/>
<feGaussianBlur stdDeviation="10.5"/>
<feComposite in2="hardAlpha" operator="out"/>
<feColorMatrix type="matrix" values="0 0 0 0 0 0 0 0 0 0 0 0 0 0 0 0 0 0 1 0"/>
<feBlend mode="normal" in2="BackgroundImageFix" result="effect1_dropShadow_1255_805"/>
<feColorMatrix in="SourceAlpha" type="matrix" values="0 0 0 0 0 0 0 0 0 0 0 0 0 0 0 0 0 0 127 0" result="hardAlpha"/>
<feOffset dy="27"/>
<feGaussianBlur stdDeviation="10.05"/>
<feComposite in2="hardAlpha" operator="out"/>
<feColorMatrix type="matrix" values="0 0 0 0 0 0 0 0 0 0 0 0 0 0 0 0 0 0 0.14 0"/>
<feBlend mode="normal" in2="effect1_dropShadow_1255_805" result="effect2_dropShadow_1255_805"/>
<feBlend mode="normal" in="SourceGraphic" in2="effect2_dropShadow_1255_805" result="shape"/>
</filter>
<linearGradient id="paint0_linear_1255_805" x1="199.27" y1="190.197" x2="190.992" y2="480.279" gradientUnits="userSpaceOnUse">
<stop stop-color="#333333" stop-opacity="0.8"/>
<stop offset="0.14" stop-color="#222222" stop-opacity="0.87"/>
<stop offset="0.36" stop-color="#0F0F0F" stop-opacity="0.94"/>
<stop offset="0.63" stop-color="#040404" stop-opacity="0.99"/>
<stop offset="1" stop-color="#131316"/>
</linearGradient>
<linearGradient id="paint1_linear_1255_805" x1="176.769" y1="329.771" x2="142.768" y2="358.105" gradientUnits="userSpaceOnUse">
<stop stop-opacity="0"/>
<stop offset="1" stop-color="#666666"/>
</linearGradient>
<linearGradient id="paint2_linear_1255_805" x1="301.537" y1="347.538" x2="295.87" y2="313.538" gradientUnits="userSpaceOnUse">
<stop stop-color="#00F7FB"/>
<stop offset="1" stop-opacity="0"/>
</linearGradient>
<linearGradient id="paint3_linear_1255_805" x1="199.27" y1="190.197" x2="190.992" y2="480.279" gradientUnits="userSpaceOnUse">
<stop stop-color="#333333" stop-opacity="0.8"/>
<stop offset="0.14" stop-color="#222222" stop-opacity="0.87"/>
<stop offset="0.36" stop-color="#0F0F0F" stop-opacity="0.94"/>
<stop offset="0.63" stop-color="#040404" stop-opacity="0.99"/>
<stop offset="1" stop-color="#131316"/>
</linearGradient>
<linearGradient id="paint4_linear_1255_805" x1="176.769" y1="329.771" x2="142.768" y2="358.105" gradientUnits="userSpaceOnUse">
<stop stop-opacity="0"/>
<stop offset="1" stop-color="#666666"/>
</linearGradient>
<linearGradient id="paint5_linear_1255_805" x1="301.537" y1="347.538" x2="295.87" y2="313.538" gradientUnits="userSpaceOnUse">
<stop stop-color="#00F7FB"/>
<stop offset="1" stop-opacity="0"/>
</linearGradient>
<linearGradient id="paint6_linear_1255_805" x1="199.27" y1="190.197" x2="190.992" y2="480.279" gradientUnits="userSpaceOnUse">
<stop stop-color="#333333" stop-opacity="0.8"/>
<stop offset="0.14" stop-color="#222222" stop-opacity="0.87"/>
<stop offset="0.36" stop-color="#0F0F0F" stop-opacity="0.94"/>
<stop offset="0.63" stop-color="#040404" stop-opacity="0.99"/>
<stop offset="1" stop-color="#131316"/>
</linearGradient>
<linearGradient id="paint7_linear_1255_805" x1="176.769" y1="329.771" x2="142.768" y2="358.105" gradientUnits="userSpaceOnUse">
<stop stop-opacity="0"/>
<stop offset="1" stop-color="#666666"/>
</linearGradient>
<linearGradient id="paint8_linear_1255_805" x1="301.537" y1="347.538" x2="295.87" y2="313.538" gradientUnits="userSpaceOnUse">
<stop stop-color="#00F7FB"/>
<stop offset="1" stop-opacity="0"/>
</linearGradient>
</defs>
</svg>
