<svg width="40" height="1080" viewBox="0 0 40 1080" fill="none" xmlns="http://www.w3.org/2000/svg">
<g opacity="0.9">
<mask id="path-1-inside-1_1247_189" fill="white">
<path d="M30 0H19V1080H30V0Z"/>
</mask>
<path d="M30 0H19V1080H30V0Z" fill="#FFFDFD"/>
<path d="M19 1080H18.5V1079H19H19.5V1080H19ZM19 1077H18.5V1075H19H19.5V1077H19ZM19 1073H18.5V1071H19H19.5V1073H19ZM19 1069H18.5V1067H19H19.5V1069H19ZM19 1065H18.5V1063H19H19.5V1065H19ZM19 1061H18.5V1059H19H19.5V1061H19ZM19 1057H18.5V1055H19H19.5V1057H19ZM19 1053H18.5V1051H19H19.5V1053H19ZM19 1049H18.5V1047H19H19.5V1049H19ZM19 1045H18.5V1043H19H19.5V1045H19ZM19 1041H18.5V1039H19H19.5V1041H19ZM19 1037H18.5V1035H19H19.5V1037H19ZM19 1033H18.5V1031H19H19.5V1033H19ZM19 1029H18.5V1027H19H19.5V1029H19ZM19 1025H18.5V1023H19H19.5V1025H19ZM19 1021H18.5V1019H19H19.5V1021H19ZM19 1017H18.5V1015H19H19.5V1017H19ZM19 1013H18.5V1011H19H19.5V1013H19ZM19 1009H18.5V1007H19H19.5V1009H19ZM19 1005H18.5V1003H19H19.5V1005H19ZM19 1001H18.5V999H19H19.5V1001H19ZM19 997H18.5V995H19H19.5V997H19ZM19 993H18.5V991H19H19.5V993H19ZM19 989H18.5V987H19H19.5V989H19ZM19 985H18.5V983H19H19.5V985H19ZM19 981H18.5V979H19H19.5V981H19ZM19 977H18.5V975H19H19.5V977H19ZM19 973H18.5V971H19H19.5V973H19ZM19 969H18.5V967H19H19.5V969H19ZM19 965H18.5V963H19H19.5V965H19ZM19 961H18.5V959H19H19.5V961H19ZM19 957H18.5V955H19H19.5V957H19ZM19 953H18.5V951H19H19.5V953H19ZM19 949H18.5V947H19H19.5V949H19ZM19 945H18.5V943H19H19.5V945H19ZM19 941H18.5V939H19H19.5V941H19ZM19 937H18.5V935H19H19.5V937H19ZM19 933H18.5V931H19H19.5V933H19ZM19 929H18.5V927H19H19.5V929H19ZM19 925H18.5V923H19H19.5V925H19ZM19 921H18.5V919H19H19.5V921H19ZM19 917H18.5V915H19H19.5V917H19ZM19 913H18.5V911H19H19.5V913H19ZM19 909H18.5V907H19H19.5V909H19ZM19 905H18.5V903H19H19.5V905H19ZM19 901H18.5V899H19H19.5V901H19ZM19 897H18.5V895H19H19.5V897H19ZM19 893H18.5V891H19H19.5V893H19ZM19 889H18.5V887H19H19.5V889H19ZM19 885H18.5V883H19H19.5V885H19ZM19 881H18.5V879H19H19.5V881H19ZM19 877H18.5V875H19H19.5V877H19ZM19 873H18.5V871H19H19.5V873H19ZM19 869H18.5V867H19H19.5V869H19ZM19 865H18.5V863H19H19.5V865H19ZM19 861H18.5V859H19H19.5V861H19ZM19 857H18.5V855H19H19.5V857H19ZM19 853H18.5V851H19H19.5V853H19ZM19 849H18.5V847H19H19.5V849H19ZM19 845H18.5V843H19H19.5V845H19ZM19 841H18.5V839H19H19.5V841H19ZM19 837H18.5V835H19H19.5V837H19ZM19 833H18.5V831H19H19.5V833H19ZM19 829H18.5V827H19H19.5V829H19ZM19 825H18.5V823H19H19.5V825H19ZM19 821H18.5V819H19H19.5V821H19ZM19 817H18.5V815H19H19.5V817H19ZM19 813H18.5V811H19H19.5V813H19ZM19 809H18.5V807H19H19.5V809H19ZM19 805H18.5V803H19H19.5V805H19ZM19 801H18.5V799H19H19.5V801H19ZM19 797H18.5V795H19H19.5V797H19ZM19 793H18.5V791H19H19.5V793H19ZM19 789H18.5V787H19H19.5V789H19ZM19 785H18.5V783H19H19.5V785H19ZM19 781H18.5V779H19H19.5V781H19ZM19 777H18.5V775H19H19.5V777H19ZM19 773H18.5V771H19H19.5V773H19ZM19 769H18.5V767H19H19.5V769H19ZM19 765H18.5V763H19H19.5V765H19ZM19 761H18.5V759H19H19.5V761H19ZM19 757H18.5V755H19H19.5V757H19ZM19 753H18.5V751H19H19.5V753H19ZM19 749H18.5V747H19H19.5V749H19ZM19 745H18.5V743H19H19.5V745H19ZM19 741H18.5V739H19H19.5V741H19ZM19 737H18.5V735H19H19.5V737H19ZM19 733H18.5V731H19H19.5V733H19ZM19 729H18.5V727H19H19.5V729H19ZM19 725H18.5V723H19H19.5V725H19ZM19 721H18.5V719H19H19.5V721H19ZM19 717H18.5V715H19H19.5V717H19ZM19 713H18.5V711H19H19.5V713H19ZM19 709H18.5V707H19H19.5V709H19ZM19 705H18.5V703H19H19.5V705H19ZM19 701H18.5V699H19H19.5V701H19ZM19 697H18.5V695H19H19.5V697H19ZM19 693H18.5V691H19H19.5V693H19ZM19 689H18.5V687H19H19.5V689H19ZM19 685H18.5V683H19H19.5V685H19ZM19 681H18.5V679H19H19.5V681H19ZM19 677H18.5V675H19H19.5V677H19ZM19 673H18.5V671H19H19.5V673H19ZM19 669H18.5V667H19H19.5V669H19ZM19 665H18.5V663H19H19.5V665H19ZM19 661H18.5V659H19H19.5V661H19ZM19 657H18.5V655H19H19.5V657H19ZM19 653H18.5V651H19H19.5V653H19ZM19 649H18.5V647H19H19.5V649H19ZM19 645H18.5V643H19H19.5V645H19ZM19 641H18.5V639H19H19.5V641H19ZM19 637H18.5V635H19H19.5V637H19ZM19 633H18.5V631H19H19.5V633H19ZM19 629H18.5V627H19H19.5V629H19ZM19 625H18.5V623H19H19.5V625H19ZM19 621H18.5V619H19H19.5V621H19ZM19 617H18.5V615H19H19.5V617H19ZM19 613H18.5V611H19H19.5V613H19ZM19 609H18.5V607H19H19.5V609H19ZM19 605H18.5V603H19H19.5V605H19ZM19 601H18.5V599H19H19.5V601H19ZM19 597H18.5V595H19H19.5V597H19ZM19 593H18.5V591H19H19.5V593H19ZM19 589H18.5V587H19H19.5V589H19ZM19 585H18.5V583H19H19.5V585H19ZM19 581H18.5V579H19H19.5V581H19ZM19 577H18.5V575H19H19.5V577H19ZM19 573H18.5V571H19H19.5V573H19ZM19 569H18.5V567H19H19.5V569H19ZM19 565H18.5V563H19H19.5V565H19ZM19 561H18.5V559H19H19.5V561H19ZM19 557H18.5V555H19H19.5V557H19ZM19 553H18.5V551H19H19.5V553H19ZM19 549H18.5V547H19H19.5V549H19ZM19 545H18.5V543H19H19.5V545H19ZM19 541H18.5V539H19H19.5V541H19ZM19 537H18.5V535H19H19.5V537H19ZM19 533H18.5V531H19H19.5V533H19ZM19 529H18.5V527H19H19.5V529H19ZM19 525H18.5V523H19H19.5V525H19ZM19 521H18.5V519H19H19.5V521H19ZM19 517H18.5V515H19H19.5V517H19ZM19 513H18.5V511H19H19.5V513H19ZM19 509H18.5V507H19H19.5V509H19ZM19 505H18.5V503H19H19.5V505H19ZM19 501H18.5V499H19H19.5V501H19ZM19 497H18.5V495H19H19.5V497H19ZM19 493H18.5V491H19H19.5V493H19ZM19 489H18.5V487H19H19.5V489H19ZM19 485H18.5V483H19H19.5V485H19ZM19 481H18.5V479H19H19.5V481H19ZM19 477H18.5V475H19H19.5V477H19ZM19 473H18.5V471H19H19.5V473H19ZM19 469H18.5V467H19H19.5V469H19ZM19 465H18.5V463H19H19.5V465H19ZM19 461H18.5V459H19H19.5V461H19ZM19 457H18.5V455H19H19.5V457H19ZM19 453H18.5V451H19H19.5V453H19ZM19 449H18.5V447H19H19.5V449H19ZM19 445H18.5V443H19H19.5V445H19ZM19 441H18.5V439H19H19.5V441H19ZM19 437H18.5V435H19H19.5V437H19ZM19 433H18.5V431H19H19.5V433H19ZM19 429H18.5V427H19H19.5V429H19ZM19 425H18.5V423H19H19.5V425H19ZM19 421H18.5V419H19H19.5V421H19ZM19 417H18.5V415H19H19.5V417H19ZM19 413H18.5V411H19H19.5V413H19ZM19 409H18.5V407H19H19.5V409H19ZM19 405H18.5V403H19H19.5V405H19ZM19 401H18.5V399H19H19.5V401H19ZM19 397H18.5V395H19H19.5V397H19ZM19 393H18.5V391H19H19.5V393H19ZM19 389H18.5V387H19H19.5V389H19ZM19 385H18.5V383H19H19.5V385H19ZM19 381H18.5V379H19H19.5V381H19ZM19 377H18.5V375H19H19.5V377H19ZM19 373H18.5V371H19H19.5V373H19ZM19 369H18.5V367H19H19.5V369H19ZM19 365H18.5V363H19H19.5V365H19ZM19 361H18.5V359H19H19.5V361H19ZM19 357H18.5V355H19H19.5V357H19ZM19 353H18.5V351H19H19.5V353H19ZM19 349H18.5V347H19H19.5V349H19ZM19 345H18.5V343H19H19.5V345H19ZM19 341H18.5V339H19H19.5V341H19ZM19 337H18.5V335H19H19.5V337H19ZM19 333H18.5V331H19H19.5V333H19ZM19 329H18.5V327H19H19.5V329H19ZM19 325H18.5V323H19H19.5V325H19ZM19 321H18.5V319H19H19.5V321H19ZM19 317H18.5V315H19H19.5V317H19ZM19 313H18.5V311H19H19.5V313H19ZM19 309H18.5V307H19H19.5V309H19ZM19 305H18.5V303H19H19.5V305H19ZM19 301H18.5V299H19H19.5V301H19ZM19 297H18.5V295H19H19.5V297H19ZM19 293H18.5V291H19H19.5V293H19ZM19 289H18.5V287H19H19.5V289H19ZM19 285H18.5V283H19H19.5V285H19ZM19 281H18.5V279H19H19.5V281H19ZM19 277H18.5V275H19H19.5V277H19ZM19 273H18.5V271H19H19.5V273H19ZM19 269H18.5V267H19H19.5V269H19ZM19 265H18.5V263H19H19.5V265H19ZM19 261H18.5V259H19H19.5V261H19ZM19 257H18.5V255H19H19.5V257H19ZM19 253H18.5V251H19H19.5V253H19ZM19 249H18.5V247H19H19.5V249H19ZM19 245H18.5V243H19H19.5V245H19ZM19 241H18.5V239H19H19.5V241H19ZM19 237H18.5V235H19H19.5V237H19ZM19 233H18.5V231H19H19.5V233H19ZM19 229H18.5V227H19H19.5V229H19ZM19 225H18.5V223H19H19.5V225H19ZM19 221H18.5V219H19H19.5V221H19ZM19 217H18.5V215H19H19.5V217H19ZM19 213H18.5V211H19H19.5V213H19ZM19 209H18.5V207H19H19.5V209H19ZM19 205H18.5V203H19H19.5V205H19ZM19 201H18.5V199H19H19.5V201H19ZM19 197H18.5V195H19H19.5V197H19ZM19 193H18.5V191H19H19.5V193H19ZM19 189H18.5V187H19H19.5V189H19ZM19 185H18.5V183H19H19.5V185H19ZM19 181H18.5V179H19H19.5V181H19ZM19 177H18.5V175H19H19.5V177H19ZM19 173H18.5V171H19H19.5V173H19ZM19 169H18.5V167H19H19.5V169H19ZM19 165H18.5V163H19H19.5V165H19ZM19 161H18.5V159H19H19.5V161H19ZM19 157H18.5V155H19H19.5V157H19ZM19 153H18.5V151H19H19.5V153H19ZM19 149H18.5V147H19H19.5V149H19ZM19 145H18.5V143H19H19.5V145H19ZM19 141H18.5V139H19H19.5V141H19ZM19 137H18.5V135H19H19.5V137H19ZM19 133H18.5V131H19H19.5V133H19ZM19 129H18.5V127H19H19.5V129H19ZM19 125H18.5V123H19H19.5V125H19ZM19 121H18.5V119H19H19.5V121H19ZM19 117H18.5V115H19H19.5V117H19ZM19 113H18.5V111H19H19.5V113H19ZM19 109H18.5V107H19H19.5V109H19ZM19 105H18.5V103H19H19.5V105H19ZM19 101H18.5V99H19H19.5V101H19ZM19 97H18.5V95H19H19.5V97H19ZM19 93H18.5V91H19H19.5V93H19ZM19 89H18.5V87H19H19.5V89H19ZM19 85H18.5V83H19H19.5V85H19ZM19 81H18.5V79H19H19.5V81H19ZM19 77H18.5V75H19H19.5V77H19ZM19 73H18.5V71H19H19.5V73H19ZM19 69H18.5V67H19H19.5V69H19ZM19 65H18.5V63H19H19.5V65H19ZM19 61H18.5V59H19H19.5V61H19ZM19 57H18.5V55H19H19.5V57H19ZM19 53H18.5V51H19H19.5V53H19ZM19 49H18.5V47H19H19.5V49H19ZM19 45H18.5V43H19H19.5V45H19ZM19 41H18.5V39H19H19.5V41H19ZM19 37H18.5V35H19H19.5V37H19ZM19 33H18.5V31H19H19.5V33H19ZM19 29H18.5V27H19H19.5V29H19ZM19 25H18.5V23H19H19.5V25H19ZM19 21H18.5V19H19H19.5V21H19ZM19 17H18.5V15H19H19.5V17H19ZM19 13H18.5V11H19H19.5V13H19ZM19 8.99999H18.5V6.99999H19H19.5V8.99999H19ZM19 4.99998H18.5V2.99998H19H19.5V4.99998H19ZM19 0.99997H18.5V0H19H19.5V0.99997H19ZM19 1080H18V1079H19H20V1080H19ZM19 1077H18V1075H19H20V1077H19ZM19 1073H18V1071H19H20V1073H19ZM19 1069H18V1067H19H20V1069H19ZM19 1065H18V1063H19H20V1065H19ZM19 1061H18V1059H19H20V1061H19ZM19 1057H18V1055H19H20V1057H19ZM19 1053H18V1051H19H20V1053H19ZM19 1049H18V1047H19H20V1049H19ZM19 1045H18V1043H19H20V1045H19ZM19 1041H18V1039H19H20V1041H19ZM19 1037H18V1035H19H20V1037H19ZM19 1033H18V1031H19H20V1033H19ZM19 1029H18V1027H19H20V1029H19ZM19 1025H18V1023H19H20V1025H19ZM19 1021H18V1019H19H20V1021H19ZM19 1017H18V1015H19H20V1017H19ZM19 1013H18V1011H19H20V1013H19ZM19 1009H18V1007H19H20V1009H19ZM19 1005H18V1003H19H20V1005H19ZM19 1001H18V999H19H20V1001H19ZM19 997H18V995H19H20V997H19ZM19 993H18V991H19H20V993H19ZM19 989H18V987H19H20V989H19ZM19 985H18V983H19H20V985H19ZM19 981H18V979H19H20V981H19ZM19 977H18V975H19H20V977H19ZM19 973H18V971H19H20V973H19ZM19 969H18V967H19H20V969H19ZM19 965H18V963H19H20V965H19ZM19 961H18V959H19H20V961H19ZM19 957H18V955H19H20V957H19ZM19 953H18V951H19H20V953H19ZM19 949H18V947H19H20V949H19ZM19 945H18V943H19H20V945H19ZM19 941H18V939H19H20V941H19ZM19 937H18V935H19H20V937H19ZM19 933H18V931H19H20V933H19ZM19 929H18V927H19H20V929H19ZM19 925H18V923H19H20V925H19ZM19 921H18V919H19H20V921H19ZM19 917H18V915H19H20V917H19ZM19 913H18V911H19H20V913H19ZM19 909H18V907H19H20V909H19ZM19 905H18V903H19H20V905H19ZM19 901H18V899H19H20V901H19ZM19 897H18V895H19H20V897H19ZM19 893H18V891H19H20V893H19ZM19 889H18V887H19H20V889H19ZM19 885H18V883H19H20V885H19ZM19 881H18V879H19H20V881H19ZM19 877H18V875H19H20V877H19ZM19 873H18V871H19H20V873H19ZM19 869H18V867H19H20V869H19ZM19 865H18V863H19H20V865H19ZM19 861H18V859H19H20V861H19ZM19 857H18V855H19H20V857H19ZM19 853H18V851H19H20V853H19ZM19 849H18V847H19H20V849H19ZM19 845H18V843H19H20V845H19ZM19 841H18V839H19H20V841H19ZM19 837H18V835H19H20V837H19ZM19 833H18V831H19H20V833H19ZM19 829H18V827H19H20V829H19ZM19 825H18V823H19H20V825H19ZM19 821H18V819H19H20V821H19ZM19 817H18V815H19H20V817H19ZM19 813H18V811H19H20V813H19ZM19 809H18V807H19H20V809H19ZM19 805H18V803H19H20V805H19ZM19 801H18V799H19H20V801H19ZM19 797H18V795H19H20V797H19ZM19 793H18V791H19H20V793H19ZM19 789H18V787H19H20V789H19ZM19 785H18V783H19H20V785H19ZM19 781H18V779H19H20V781H19ZM19 777H18V775H19H20V777H19ZM19 773H18V771H19H20V773H19ZM19 769H18V767H19H20V769H19ZM19 765H18V763H19H20V765H19ZM19 761H18V759H19H20V761H19ZM19 757H18V755H19H20V757H19ZM19 753H18V751H19H20V753H19ZM19 749H18V747H19H20V749H19ZM19 745H18V743H19H20V745H19ZM19 741H18V739H19H20V741H19ZM19 737H18V735H19H20V737H19ZM19 733H18V731H19H20V733H19ZM19 729H18V727H19H20V729H19ZM19 725H18V723H19H20V725H19ZM19 721H18V719H19H20V721H19ZM19 717H18V715H19H20V717H19ZM19 713H18V711H19H20V713H19ZM19 709H18V707H19H20V709H19ZM19 705H18V703H19H20V705H19ZM19 701H18V699H19H20V701H19ZM19 697H18V695H19H20V697H19ZM19 693H18V691H19H20V693H19ZM19 689H18V687H19H20V689H19ZM19 685H18V683H19H20V685H19ZM19 681H18V679H19H20V681H19ZM19 677H18V675H19H20V677H19ZM19 673H18V671H19H20V673H19ZM19 669H18V667H19H20V669H19ZM19 665H18V663H19H20V665H19ZM19 661H18V659H19H20V661H19ZM19 657H18V655H19H20V657H19ZM19 653H18V651H19H20V653H19ZM19 649H18V647H19H20V649H19ZM19 645H18V643H19H20V645H19ZM19 641H18V639H19H20V641H19ZM19 637H18V635H19H20V637H19ZM19 633H18V631H19H20V633H19ZM19 629H18V627H19H20V629H19ZM19 625H18V623H19H20V625H19ZM19 621H18V619H19H20V621H19ZM19 617H18V615H19H20V617H19ZM19 613H18V611H19H20V613H19ZM19 609H18V607H19H20V609H19ZM19 605H18V603H19H20V605H19ZM19 601H18V599H19H20V601H19ZM19 597H18V595H19H20V597H19ZM19 593H18V591H19H20V593H19ZM19 589H18V587H19H20V589H19ZM19 585H18V583H19H20V585H19ZM19 581H18V579H19H20V581H19ZM19 577H18V575H19H20V577H19ZM19 573H18V571H19H20V573H19ZM19 569H18V567H19H20V569H19ZM19 565H18V563H19H20V565H19ZM19 561H18V559H19H20V561H19ZM19 557H18V555H19H20V557H19ZM19 553H18V551H19H20V553H19ZM19 549H18V547H19H20V549H19ZM19 545H18V543H19H20V545H19ZM19 541H18V539H19H20V541H19ZM19 537H18V535H19H20V537H19ZM19 533H18V531H19H20V533H19ZM19 529H18V527H19H20V529H19ZM19 525H18V523H19H20V525H19ZM19 521H18V519H19H20V521H19ZM19 517H18V515H19H20V517H19ZM19 513H18V511H19H20V513H19ZM19 509H18V507H19H20V509H19ZM19 505H18V503H19H20V505H19ZM19 501H18V499H19H20V501H19ZM19 497H18V495H19H20V497H19ZM19 493H18V491H19H20V493H19ZM19 489H18V487H19H20V489H19ZM19 485H18V483H19H20V485H19ZM19 481H18V479H19H20V481H19ZM19 477H18V475H19H20V477H19ZM19 473H18V471H19H20V473H19ZM19 469H18V467H19H20V469H19ZM19 465H18V463H19H20V465H19ZM19 461H18V459H19H20V461H19ZM19 457H18V455H19H20V457H19ZM19 453H18V451H19H20V453H19ZM19 449H18V447H19H20V449H19ZM19 445H18V443H19H20V445H19ZM19 441H18V439H19H20V441H19ZM19 437H18V435H19H20V437H19ZM19 433H18V431H19H20V433H19ZM19 429H18V427H19H20V429H19ZM19 425H18V423H19H20V425H19ZM19 421H18V419H19H20V421H19ZM19 417H18V415H19H20V417H19ZM19 413H18V411H19H20V413H19ZM19 409H18V407H19H20V409H19ZM19 405H18V403H19H20V405H19ZM19 401H18V399H19H20V401H19ZM19 397H18V395H19H20V397H19ZM19 393H18V391H19H20V393H19ZM19 389H18V387H19H20V389H19ZM19 385H18V383H19H20V385H19ZM19 381H18V379H19H20V381H19ZM19 377H18V375H19H20V377H19ZM19 373H18V371H19H20V373H19ZM19 369H18V367H19H20V369H19ZM19 365H18V363H19H20V365H19ZM19 361H18V359H19H20V361H19ZM19 357H18V355H19H20V357H19ZM19 353H18V351H19H20V353H19ZM19 349H18V347H19H20V349H19ZM19 345H18V343H19H20V345H19ZM19 341H18V339H19H20V341H19ZM19 337H18V335H19H20V337H19ZM19 333H18V331H19H20V333H19ZM19 329H18V327H19H20V329H19ZM19 325H18V323H19H20V325H19ZM19 321H18V319H19H20V321H19ZM19 317H18V315H19H20V317H19ZM19 313H18V311H19H20V313H19ZM19 309H18V307H19H20V309H19ZM19 305H18V303H19H20V305H19ZM19 301H18V299H19H20V301H19ZM19 297H18V295H19H20V297H19ZM19 293H18V291H19H20V293H19ZM19 289H18V287H19H20V289H19ZM19 285H18V283H19H20V285H19ZM19 281H18V279H19H20V281H19ZM19 277H18V275H19H20V277H19ZM19 273H18V271H19H20V273H19ZM19 269H18V267H19H20V269H19ZM19 265H18V263H19H20V265H19ZM19 261H18V259H19H20V261H19ZM19 257H18V255H19H20V257H19ZM19 253H18V251H19H20V253H19ZM19 249H18V247H19H20V249H19ZM19 245H18V243H19H20V245H19ZM19 241H18V239H19H20V241H19ZM19 237H18V235H19H20V237H19ZM19 233H18V231H19H20V233H19ZM19 229H18V227H19H20V229H19ZM19 225H18V223H19H20V225H19ZM19 221H18V219H19H20V221H19ZM19 217H18V215H19H20V217H19ZM19 213H18V211H19H20V213H19ZM19 209H18V207H19H20V209H19ZM19 205H18V203H19H20V205H19ZM19 201H18V199H19H20V201H19ZM19 197H18V195H19H20V197H19ZM19 193H18V191H19H20V193H19ZM19 189H18V187H19H20V189H19ZM19 185H18V183H19H20V185H19ZM19 181H18V179H19H20V181H19ZM19 177H18V175H19H20V177H19ZM19 173H18V171H19H20V173H19ZM19 169H18V167H19H20V169H19ZM19 165H18V163H19H20V165H19ZM19 161H18V159H19H20V161H19ZM19 157H18V155H19H20V157H19ZM19 153H18V151H19H20V153H19ZM19 149H18V147H19H20V149H19ZM19 145H18V143H19H20V145H19ZM19 141H18V139H19H20V141H19ZM19 137H18V135H19H20V137H19ZM19 133H18V131H19H20V133H19ZM19 129H18V127H19H20V129H19ZM19 125H18V123H19H20V125H19ZM19 121H18V119H19H20V121H19ZM19 117H18V115H19H20V117H19ZM19 113H18V111H19H20V113H19ZM19 109H18V107H19H20V109H19ZM19 105H18V103H19H20V105H19ZM19 101H18V99H19H20V101H19ZM19 97H18V95H19H20V97H19ZM19 93H18V91H19H20V93H19ZM19 89H18V87H19H20V89H19ZM19 85H18V83H19H20V85H19ZM19 81H18V79H19H20V81H19ZM19 77H18V75H19H20V77H19ZM19 73H18V71H19H20V73H19ZM19 69H18V67H19H20V69H19ZM19 65H18V63H19H20V65H19ZM19 61H18V59H19H20V61H19ZM19 57H18V55H19H20V57H19ZM19 53H18V51H19H20V53H19ZM19 49H18V47H19H20V49H19ZM19 45H18V43H19H20V45H19ZM19 41H18V39H19H20V41H19ZM19 37H18V35H19H20V37H19ZM19 33H18V31H19H20V33H19ZM19 29H18V27H19H20V29H19ZM19 25H18V23H19H20V25H19ZM19 21H18V19H19H20V21H19ZM19 17H18V15H19H20V17H19ZM19 13H18V11H19H20V13H19ZM19 8.99999H18V6.99999H19H20V8.99999H19ZM19 4.99998H18V2.99998H19H20V4.99998H19ZM19 0.99997H18V0H19H20V0.99997H19Z" fill="#E5E5E5" mask="url(#path-1-inside-1_1247_189)"/>
<path d="M7.5875 -98.0375C7.5875 -101.262 8.4125 -103.713 10.0625 -105.388C11.7375 -107.063 14.0125 -107.9 16.8875 -107.9H30.5V-101H18.2375C16.7125 -101 15.575 -100.625 14.825 -99.875C14.1 -99.1 13.7375 -97.9375 13.7375 -96.3875C13.7375 -94.7625 14.1375 -93.525 14.9375 -92.675C15.7625 -91.825 16.9375 -91.4 18.4625 -91.4H30.5V-84.5H14.75V-81.125H8V-88.025H11.75V-89.6C10.4 -90.525 9.3625 -91.625 8.6375 -92.9C7.9375 -94.175 7.5875 -95.8875 7.5875 -98.0375ZM7.55 -67.8559C7.55 -71.2309 8.2625 -73.8934 9.6875 -75.8434C11.1125 -77.7684 13.1 -78.8059 15.65 -78.9559V-72.3184C14.65 -72.1184 13.9125 -71.6434 13.4375 -70.8934C12.9625 -70.1184 12.725 -69.0059 12.725 -67.5559C12.725 -65.3059 13.3125 -64.1809 14.4875 -64.1809C14.9625 -64.1809 15.3375 -64.3559 15.6125 -64.7059C15.9125 -65.0309 16.1375 -65.5809 16.2875 -66.3559L17.2625 -71.3809C18.1625 -75.9809 20.3125 -78.2809 23.7125 -78.2809C25.9125 -78.2809 27.6625 -77.3934 28.9625 -75.6184C30.2875 -73.8434 30.95 -71.3934 30.95 -68.2684C30.95 -65.1434 30.275 -62.6809 28.925 -60.8809C27.575 -59.0809 25.675 -58.1059 23.225 -57.9559V-64.5934C24.2 -64.8434 24.9 -65.2934 25.325 -65.9434C25.775 -66.5684 26 -67.4934 26 -68.7184C26 -69.7184 25.8625 -70.4934 25.5875 -71.0434C25.3125 -71.5684 24.9 -71.8309 24.35 -71.8309C23.95 -71.8309 23.6125 -71.6684 23.3375 -71.3434C23.0625 -71.0184 22.8625 -70.5309 22.7375 -69.8809L21.725 -64.7059C21.25 -62.3059 20.475 -60.5434 19.4 -59.4184C18.325 -58.2934 16.875 -57.7309 15.05 -57.7309C12.7 -57.7309 10.8625 -58.6059 9.5375 -60.3559C8.2125 -62.0809 7.55 -64.5809 7.55 -67.8559ZM7.55 -43.5383C7.55 -46.0133 8.025 -48.1633 8.975 -49.9883C9.95 -51.8133 11.3125 -53.2258 13.0625 -54.2258C14.8375 -55.2008 16.925 -55.6883 19.325 -55.6883C21.725 -55.6883 23.7875 -55.2133 25.5125 -54.2633C27.2625 -53.2883 28.6 -51.9133 29.525 -50.1383C30.475 -48.3383 30.95 -46.2258 30.95 -43.8008C30.95 -41.4008 30.4875 -39.3383 29.5625 -37.6133C28.6625 -35.8883 27.3625 -34.5758 25.6625 -33.6758C23.9625 -32.7508 21.925 -32.2883 19.55 -32.2883H17.3375V-49.0508C15.8875 -48.7758 14.7875 -48.1758 14.0375 -47.2508C13.3125 -46.3258 12.95 -45.1008 12.95 -43.5758C12.95 -42.3508 13.1375 -41.4008 13.5125 -40.7258C13.9125 -40.0258 14.5375 -39.5258 15.3875 -39.2258V-32.3258C12.9375 -32.8008 11.0125 -34.0258 9.6125 -36.0008C8.2375 -37.9758 7.55 -40.4883 7.55 -43.5383ZM21.8375 -48.9383V-38.8883C23.0875 -39.1133 24.0125 -39.6383 24.6125 -40.4633C25.2375 -41.2633 25.55 -42.3633 25.55 -43.7633C25.55 -45.1383 25.2375 -46.2633 24.6125 -47.1383C23.9875 -48.0133 23.0625 -48.6133 21.8375 -48.9383ZM8 -26.825H23.75V-30.2H30.5V-23.3H26V-21.725C27.625 -21.15 28.825 -20.2125 29.6 -18.9125C30.4 -17.6125 30.8 -16.1625 30.8 -14.5625V-12.65H24.8V-14.8625C24.8 -16.7125 24.2875 -18.05 23.2625 -18.875C22.2375 -19.675 20.9 -20.075 19.25 -20.075H8V-26.825ZM8 1.12715H30.5V8.02715H8V1.12715ZM32.4125 4.57715C32.4125 3.55215 32.775 2.67715 33.5 1.95215C34.225 1.22715 35.1 0.864648 36.125 0.864648C37.15 0.864648 38.025 1.22715 38.75 1.95215C39.475 2.67715 39.8375 3.55215 39.8375 4.57715C39.8375 5.60215 39.475 6.47715 38.75 7.20215C38.025 7.92715 37.15 8.28965 36.125 8.28965C35.1 8.28965 34.225 7.92715 33.5 7.20215C32.775 6.47715 32.4125 5.60215 32.4125 4.57715ZM8 14.5352H23.75V11.1602H30.5V18.0602H26.75V19.6352C28.05 20.5352 29.0625 21.6352 29.7875 22.9352C30.5375 24.2602 30.9125 25.9477 30.9125 27.9977C30.9125 31.1977 30.05 33.6477 28.325 35.3477C26.6 37.0727 24.2875 37.9352 21.3875 37.9352H8V31.0352H20.0375C21.5875 31.0352 22.7625 30.6227 23.5625 29.7977C24.3625 28.9977 24.7625 27.8102 24.7625 26.2352C24.7625 24.6602 24.3625 23.4602 23.5625 22.6352C22.7625 21.8352 21.5875 21.4352 20.0375 21.4352H8V14.5352ZM8 49.9668C8 48.2168 8.4375 46.8543 9.3125 45.8793C10.2125 44.9293 11.575 44.4543 13.4 44.4543H25.1V40.7043H30.5V44.5293H37.25V51.2793H30.5V56.2293H25.1V51.3543H13.4V56.7543H8V49.9668ZM7.55 70.8514C7.55 68.3764 8.025 66.2264 8.975 64.4014C9.95 62.5764 11.3125 61.1639 13.0625 60.1639C14.8375 59.1889 16.925 58.7014 19.325 58.7014C21.725 58.7014 23.7875 59.1764 25.5125 60.1264C27.2625 61.1014 28.6 62.4764 29.525 64.2514C30.475 66.0514 30.95 68.1639 30.95 70.5889C30.95 72.9889 30.4875 75.0514 29.5625 76.7764C28.6625 78.5014 27.3625 79.8139 25.6625 80.7139C23.9625 81.6389 21.925 82.1014 19.55 82.1014H17.3375V65.3389C15.8875 65.6139 14.7875 66.2139 14.0375 67.1389C13.3125 68.0639 12.95 69.2889 12.95 70.8139C12.95 72.0389 13.1375 72.9889 13.5125 73.6639C13.9125 74.3639 14.5375 74.8639 15.3875 75.1639V82.0639C12.9375 81.5889 11.0125 80.3639 9.6125 78.3889C8.2375 76.4139 7.55 73.9014 7.55 70.8514ZM21.8375 65.4514V75.5014C23.0875 75.2764 24.0125 74.7514 24.6125 73.9264C25.2375 73.1264 25.55 72.0264 25.55 70.6264C25.55 69.2514 25.2375 68.1264 24.6125 67.2514C23.9875 66.3764 23.0625 65.7764 21.8375 65.4514ZM8 87.5646H23.75V84.1896H30.5V91.0896H26V92.6646C27.625 93.2396 28.825 94.1771 29.6 95.4771C30.4 96.7771 30.8 98.2271 30.8 99.8271V101.74H24.8V99.5271C24.8 97.6771 24.2875 96.3396 23.2625 95.5146C22.2375 94.7146 20.9 94.3146 19.25 94.3146H8V87.5646ZM8 107.151H25.1V103.326H30.5V107.226H34.1C35.95 107.226 37.3125 107.701 38.1875 108.651C39.0625 109.626 39.5 111.001 39.5 112.776V119.301H34.1V113.976H30.5V118.851H25.1V114.051H8V107.151ZM7.5875 129.314C7.5875 126.614 8.225 124.501 9.5 122.976C10.8 121.476 12.525 120.726 14.675 120.726C16.9 120.726 18.6125 121.514 19.8125 123.089C21.0375 124.689 21.65 126.964 21.65 129.914V135.951H22.475C24.525 135.951 25.55 134.651 25.55 132.051C25.55 129.751 24.775 128.351 23.225 127.851V121.026C25.775 121.551 27.7 122.739 29 124.589C30.3 126.439 30.95 128.914 30.95 132.014C30.95 135.439 30.1875 138.051 28.6625 139.851C27.1625 141.651 24.9625 142.551 22.0625 142.551H14.75V145.776H8V138.876H11.75V137.301C10.4 136.526 9.3625 135.501 8.6375 134.226C7.9375 132.951 7.5875 131.314 7.5875 129.314ZM12.7625 130.364C12.7625 131.464 12.95 132.426 13.325 133.251C13.7 134.101 14.2125 134.764 14.8625 135.239C15.5125 135.714 16.2375 135.951 17.0375 135.951H17.15V130.214C17.15 128.289 16.4375 127.326 15.0125 127.326C14.2875 127.326 13.725 127.589 13.325 128.114C12.95 128.664 12.7625 129.414 12.7625 130.364ZM7.55 159.484C7.55 157.134 8.025 155.059 8.975 153.259C9.95 151.484 11.3125 150.084 13.0625 149.059C14.8125 148.059 16.875 147.559 19.25 147.559C21.625 147.559 23.6875 148.059 25.4375 149.059C27.1875 150.059 28.5375 151.459 29.4875 153.259C30.4625 155.059 30.95 157.134 30.95 159.484C30.95 162.534 30.175 165.034 28.625 166.984C27.075 168.959 24.975 170.171 22.325 170.621V163.721C23.15 163.421 23.7875 162.909 24.2375 162.184C24.7125 161.484 24.95 160.584 24.95 159.484C24.95 158.009 24.45 156.796 23.45 155.846C22.475 154.921 21.075 154.459 19.25 154.459C17.425 154.459 16.0125 154.934 15.0125 155.884C14.0375 156.834 13.55 158.034 13.55 159.484C13.55 161.859 14.5375 163.309 16.5125 163.834V170.734C13.7375 170.334 11.55 169.159 9.95 167.209C8.35 165.259 7.55 162.684 7.55 159.484ZM7.55 184.098C7.55 181.623 8.025 179.473 8.975 177.648C9.95 175.823 11.3125 174.411 13.0625 173.411C14.8375 172.436 16.925 171.948 19.325 171.948C21.725 171.948 23.7875 172.423 25.5125 173.373C27.2625 174.348 28.6 175.723 29.525 177.498C30.475 179.298 30.95 181.411 30.95 183.836C30.95 186.236 30.4875 188.298 29.5625 190.023C28.6625 191.748 27.3625 193.061 25.6625 193.961C23.9625 194.886 21.925 195.348 19.55 195.348H17.3375V178.586C15.8875 178.861 14.7875 179.461 14.0375 180.386C13.3125 181.311 12.95 182.536 12.95 184.061C12.95 185.286 13.1375 186.236 13.5125 186.911C13.9125 187.611 14.5375 188.111 15.3875 188.411V195.311C12.9375 194.836 11.0125 193.611 9.6125 191.636C8.2375 189.661 7.55 187.148 7.55 184.098ZM21.8375 178.698V188.748C23.0875 188.523 24.0125 187.998 24.6125 187.173C25.2375 186.373 25.55 185.273 25.55 183.873C25.55 182.498 25.2375 181.373 24.6125 180.498C23.9875 179.623 23.0625 179.023 21.8375 178.698ZM7.55 208.912C7.55 205.537 8.2625 202.874 9.6875 200.924C11.1125 198.999 13.1 197.962 15.65 197.812V204.449C14.65 204.649 13.9125 205.124 13.4375 205.874C12.9625 206.649 12.725 207.762 12.725 209.212C12.725 211.462 13.3125 212.587 14.4875 212.587C14.9625 212.587 15.3375 212.412 15.6125 212.062C15.9125 211.737 16.1375 211.187 16.2875 210.412L17.2625 205.387C18.1625 200.787 20.3125 198.487 23.7125 198.487C25.9125 198.487 27.6625 199.374 28.9625 201.149C30.2875 202.924 30.95 205.374 30.95 208.499C30.95 211.624 30.275 214.087 28.925 215.887C27.575 217.687 25.675 218.662 23.225 218.812V212.174C24.2 211.924 24.9 211.474 25.325 210.824C25.775 210.199 26 209.274 26 208.049C26 207.049 25.8625 206.274 25.5875 205.724C25.3125 205.199 24.9 204.937 24.35 204.937C23.95 204.937 23.6125 205.099 23.3375 205.424C23.0625 205.749 22.8625 206.237 22.7375 206.887L21.725 212.062C21.25 214.462 20.475 216.224 19.4 217.349C18.325 218.474 16.875 219.037 15.05 219.037C12.7 219.037 10.8625 218.162 9.5375 216.412C8.2125 214.687 7.55 212.187 7.55 208.912Z" fill="url(#paint0_linear_1247_189)"/>
<g clip-path="url(#clip0_1247_189)">
<mask id="mask0_1247_189" style="mask-type:luminance" maskUnits="userSpaceOnUse" x="6" y="312" width="34" height="34">
<path d="M6 312H40V346H6V312Z" fill="white"/>
<path d="M16.4038 325.051L19.6088 316.975C20.3184 315.187 22.849 315.187 23.5589 316.975L26.7657 325.051C26.7992 325.135 26.8655 325.201 26.9494 325.234L35.0264 328.442C36.8141 329.152 36.8141 331.682 35.0264 332.392L26.9494 335.599C26.8655 335.632 26.7992 335.699 26.7657 335.783L23.559 343.858C22.849 345.646 20.3185 345.646 19.6088 343.858L16.4038 335.783C16.3703 335.698 16.3031 335.632 16.2188 335.599L8.141 332.392C6.35331 331.682 6.35331 329.151 8.141 328.442L16.2188 325.234C16.3031 325.201 16.3703 325.135 16.4038 325.051Z" fill="black"/>
</mask>
<g mask="url(#mask0_1247_189)">
<path d="M21.5831 324.757C20.8008 324.757 20.1666 325.392 20.1665 326.174V329.007H17.3331C16.5508 329.007 15.9166 329.642 15.9165 330.424C15.9167 331.206 16.551 331.841 17.3331 331.841H20.1665V334.674C20.1667 335.456 20.801 336.091 21.5831 336.091C22.3653 336.091 22.9995 335.456 22.9998 334.674V331.841H25.8331C26.6153 331.841 27.2494 331.206 27.2498 330.424C27.2497 329.642 26.6154 329.008 25.8331 329.007H22.9998V326.174C22.9997 325.392 22.3654 324.758 21.5831 324.757ZM31.4002 313.9C30.9269 312.708 29.2392 312.708 28.7661 313.9L26.8956 318.615C26.875 318.666 26.8337 318.706 26.7822 318.727L22.0659 320.6C20.8741 321.073 20.8741 322.76 22.0659 323.233L26.7822 325.106C26.8337 325.127 26.875 325.167 26.8956 325.218L28.7661 329.933C29.2392 331.125 30.9269 331.125 31.4002 329.933L33.272 325.218C33.2926 325.167 33.3339 325.127 33.3855 325.106L38.1003 323.233C39.2921 322.76 39.2921 321.073 38.1003 320.6L33.3855 318.727C33.3339 318.706 33.2926 318.666 33.272 318.615L31.4002 313.9Z" fill="url(#paint1_linear_1247_189)"/>
</g>
<mask id="mask1_1247_189" style="mask-type:luminance" maskUnits="userSpaceOnUse" x="6" y="315" width="31" height="31">
<path d="M16.4038 325.051L19.6088 316.975C20.3184 315.187 22.849 315.187 23.5589 316.975L26.7657 325.051C26.7992 325.135 26.8655 325.201 26.9494 325.234L35.0264 328.442C36.8141 329.152 36.8141 331.682 35.0264 332.392L26.9494 335.599C26.8655 335.632 26.7992 335.699 26.7657 335.783L23.559 343.858C22.849 345.646 20.3185 345.646 19.6088 343.858L16.4038 335.783C16.3703 335.698 16.3031 335.632 16.2188 335.599L8.141 332.392C6.35331 331.682 6.35331 329.151 8.141 328.442L16.2188 325.234C16.3031 325.201 16.3703 325.135 16.4038 325.051Z" fill="white"/>
</mask>
<g mask="url(#mask1_1247_189)">
<g filter="url(#filter0_f_1247_189)">
<path d="M21.5836 324.757C20.8013 324.757 20.1671 325.392 20.167 326.174V329.007H17.3336C16.5513 329.007 15.9171 329.642 15.917 330.424C15.9172 331.206 16.5515 331.841 17.3336 331.841H20.167V334.674C20.1672 335.456 20.8015 336.091 21.5836 336.091C22.3658 336.091 23 335.456 23.0003 334.674V331.841H25.8336C26.6157 331.841 27.2499 331.206 27.2503 330.424C27.2502 329.642 26.6159 329.008 25.8336 329.007H23.0003V326.174C23.0001 325.392 22.3659 324.758 21.5836 324.757ZM31.4007 313.9C30.9274 312.708 29.2396 312.708 28.7666 313.9L26.8961 318.615C26.8755 318.666 26.8342 318.706 26.7827 318.727L22.0664 320.6C20.8746 321.073 20.8746 322.76 22.0664 323.233L26.7827 325.106C26.8342 325.127 26.8755 325.167 26.8961 325.218L28.7666 329.933C29.2396 331.125 30.9274 331.125 31.4007 329.933L33.2725 325.218C33.2931 325.167 33.3344 325.127 33.3859 325.106L38.1008 323.233C39.2926 322.76 39.2926 321.073 38.1008 320.6L33.3859 318.727C33.3344 318.706 33.2931 318.666 33.2725 318.615L31.4007 313.9Z" fill="url(#paint2_linear_1247_189)"/>
</g>
</g>
<path d="M16.4038 325.051L19.6088 316.975C20.3184 315.187 22.849 315.187 23.5589 316.975L26.7657 325.051C26.7992 325.135 26.8655 325.201 26.9494 325.234L35.0264 328.442C36.8141 329.152 36.8141 331.682 35.0264 332.392L26.9494 335.599C26.8655 335.632 26.7992 335.699 26.7657 335.783L23.559 343.858C22.849 345.646 20.3185 345.646 19.6088 343.858L16.4038 335.783C16.3703 335.698 16.3031 335.632 16.2188 335.599L8.141 332.392C6.35331 331.682 6.35331 329.151 8.141 328.442L16.2188 325.234C16.3031 325.201 16.3703 325.135 16.4038 325.051Z" fill="url(#paint3_linear_1247_189)"/>
<path d="M23.5588 316.975C22.8491 315.187 20.3189 315.187 19.6092 316.975L16.4037 325.05C16.3701 325.135 16.3025 325.201 16.2182 325.234L8.14154 328.441C6.35385 329.151 6.35385 331.682 8.14154 332.392L16.2182 335.599L16.2777 335.63C16.3341 335.666 16.3785 335.72 16.4037 335.783L19.6092 343.858L19.681 344.02C20.4498 345.592 22.7183 345.592 23.487 344.02L23.5588 343.858L26.7658 335.783C26.7992 335.699 26.8658 335.633 26.9498 335.599L35.0264 332.392C36.8141 331.682 36.8141 329.151 35.0264 328.441L26.9498 325.234C26.8658 325.201 26.7992 325.134 26.7658 325.05L23.5588 316.975ZM20.5955 317.368C20.9502 316.474 22.2158 316.473 22.5711 317.366L25.778 325.443C25.9018 325.754 26.133 326.009 26.4268 326.163L26.5569 326.222L34.6335 329.429C35.5274 329.784 35.5274 331.049 34.6335 331.405L26.5569 334.611C26.246 334.735 25.9909 334.966 25.8375 335.26L25.778 335.39L22.5711 343.467C22.2158 344.36 20.9516 344.359 20.5969 343.466L17.3914 335.39L17.3306 335.259C17.1749 334.962 16.9181 334.733 16.6111 334.611L8.53311 331.405C7.63919 331.05 7.63919 329.784 8.53311 329.429L16.6111 326.222C16.9179 326.1 17.1751 325.872 17.3306 325.575L17.3914 325.443L20.5955 317.368Z" fill="url(#paint4_linear_1247_189)"/>
</g>
<path d="M8 438.125H23.75V434.75H30.5V441.65H26.75V443.225C28.05 444.125 29.0625 445.225 29.7875 446.525C30.5375 447.85 30.9125 449.538 30.9125 451.588C30.9125 454.788 30.05 457.238 28.325 458.938C26.6 460.663 24.2875 461.525 21.3875 461.525H8V454.625H20.0375C21.5875 454.625 22.7625 454.213 23.5625 453.388C24.3625 452.588 24.7625 451.4 24.7625 449.825C24.7625 448.25 24.3625 447.05 23.5625 446.225C22.7625 445.425 21.5875 445.025 20.0375 445.025H8V438.125ZM7.5875 473.407C7.5875 470.707 8.225 468.594 9.5 467.069C10.8 465.569 12.525 464.819 14.675 464.819C16.9 464.819 18.6125 465.607 19.8125 467.182C21.0375 468.782 21.65 471.057 21.65 474.007V480.044H22.475C24.525 480.044 25.55 478.744 25.55 476.144C25.55 473.844 24.775 472.444 23.225 471.944V465.119C25.775 465.644 27.7 466.832 29 468.682C30.3 470.532 30.95 473.007 30.95 476.107C30.95 479.532 30.1875 482.144 28.6625 483.944C27.1625 485.744 24.9625 486.644 22.0625 486.644H14.75V489.869H8V482.969H11.75V481.394C10.4 480.619 9.3625 479.594 8.6375 478.319C7.9375 477.044 7.5875 475.407 7.5875 473.407ZM12.7625 474.457C12.7625 475.557 12.95 476.519 13.325 477.344C13.7 478.194 14.2125 478.857 14.8625 479.332C15.5125 479.807 16.2375 480.044 17.0375 480.044H17.15V474.307C17.15 472.382 16.4375 471.419 15.0125 471.419C14.2875 471.419 13.725 471.682 13.325 472.207C12.95 472.757 12.7625 473.507 12.7625 474.457ZM8 494.279H23.75V490.904H30.5V497.804H26V499.379C27.625 499.954 28.825 500.892 29.6 502.192C30.4 503.492 30.8 504.942 30.8 506.542V508.454H24.8V506.242C24.8 504.392 24.2875 503.054 23.2625 502.229C22.2375 501.429 20.9 501.029 19.25 501.029H8V494.279ZM7.55 520.111C7.55 517.761 8.0375 515.774 9.0125 514.149C10.0125 512.549 11.3875 511.336 13.1375 510.511C14.9125 509.686 16.95 509.274 19.25 509.274C21.575 509.274 23.6125 509.674 25.3625 510.474C27.1375 511.274 28.5125 512.436 29.4875 513.961C30.4625 515.511 30.95 517.361 30.95 519.511C30.95 521.111 30.65 522.486 30.05 523.636C29.475 524.786 28.6625 525.674 27.6125 526.299V526.449H39.5V533.349H14.75V536.724H8V529.824H11.75V528.249C10.425 527.449 9.3875 526.361 8.6375 524.986C7.9125 523.636 7.55 522.011 7.55 520.111ZM13.55 521.424C13.55 522.974 13.975 524.199 14.825 525.099C15.7 525.999 16.9 526.449 18.425 526.449H20.075C21.6 526.449 22.7875 525.999 23.6375 525.099C24.5125 524.199 24.95 522.974 24.95 521.424C24.95 519.649 24.4375 518.324 23.4125 517.449C22.3875 516.599 21 516.174 19.25 516.174C17.5 516.174 16.1125 516.599 15.0875 517.449C14.0625 518.324 13.55 519.649 13.55 521.424Z" fill="url(#paint5_linear_1247_189)"/>
<path d="M7.5875 780.963C7.5875 777.738 8.4125 775.287 10.0625 773.612C11.7375 771.937 14.0125 771.1 16.8875 771.1H30.5V778H18.2375C16.7125 778 15.575 778.375 14.825 779.125C14.1 779.9 13.7375 781.063 13.7375 782.613C13.7375 784.238 14.1375 785.475 14.9375 786.325C15.7625 787.175 16.9375 787.6 18.4625 787.6H30.5V794.5H14.75V797.875H8V790.975H11.75V789.4C10.4 788.475 9.3625 787.375 8.6375 786.1C7.9375 784.825 7.5875 783.113 7.5875 780.963ZM7.55 811.144C7.55 807.769 8.2625 805.107 9.6875 803.157C11.1125 801.232 13.1 800.194 15.65 800.044V806.682C14.65 806.882 13.9125 807.357 13.4375 808.107C12.9625 808.882 12.725 809.994 12.725 811.444C12.725 813.694 13.3125 814.819 14.4875 814.819C14.9625 814.819 15.3375 814.644 15.6125 814.294C15.9125 813.969 16.1375 813.419 16.2875 812.644L17.2625 807.619C18.1625 803.019 20.3125 800.719 23.7125 800.719C25.9125 800.719 27.6625 801.607 28.9625 803.382C30.2875 805.157 30.95 807.607 30.95 810.732C30.95 813.857 30.275 816.319 28.925 818.119C27.575 819.919 25.675 820.894 23.225 821.044V814.407C24.2 814.157 24.9 813.707 25.325 813.057C25.775 812.432 26 811.507 26 810.282C26 809.282 25.8625 808.507 25.5875 807.957C25.3125 807.432 24.9 807.169 24.35 807.169C23.95 807.169 23.6125 807.332 23.3375 807.657C23.0625 807.982 22.8625 808.469 22.7375 809.119L21.725 814.294C21.25 816.694 20.475 818.457 19.4 819.582C18.325 820.707 16.875 821.269 15.05 821.269C12.7 821.269 10.8625 820.394 9.5375 818.644C8.2125 816.919 7.55 814.419 7.55 811.144ZM7.55 835.462C7.55 832.987 8.025 830.837 8.975 829.012C9.95 827.187 11.3125 825.774 13.0625 824.774C14.8375 823.799 16.925 823.312 19.325 823.312C21.725 823.312 23.7875 823.787 25.5125 824.737C27.2625 825.712 28.6 827.087 29.525 828.862C30.475 830.662 30.95 832.774 30.95 835.199C30.95 837.599 30.4875 839.662 29.5625 841.387C28.6625 843.112 27.3625 844.424 25.6625 845.324C23.9625 846.249 21.925 846.712 19.55 846.712H17.3375V829.949C15.8875 830.224 14.7875 830.824 14.0375 831.749C13.3125 832.674 12.95 833.899 12.95 835.424C12.95 836.649 13.1375 837.599 13.5125 838.274C13.9125 838.974 14.5375 839.474 15.3875 839.774V846.674C12.9375 846.199 11.0125 844.974 9.6125 842.999C8.2375 841.024 7.55 838.512 7.55 835.462ZM21.8375 830.062V840.112C23.0875 839.887 24.0125 839.362 24.6125 838.537C25.2375 837.737 25.55 836.637 25.55 835.237C25.55 833.862 25.2375 832.737 24.6125 831.862C23.9875 830.987 23.0625 830.387 21.8375 830.062ZM8 852.175H23.75V848.8H30.5V855.7H26V857.275C27.625 857.85 28.825 858.788 29.6 860.088C30.4 861.387 30.8 862.837 30.8 864.438V866.35H24.8V864.138C24.8 862.288 24.2875 860.95 23.2625 860.125C22.2375 859.325 20.9 858.925 19.25 858.925H8V852.175ZM8 880.127H30.5V887.027H8V880.127ZM32.4125 883.577C32.4125 882.552 32.775 881.677 33.5 880.952C34.225 880.227 35.1 879.865 36.125 879.865C37.15 879.865 38.025 880.227 38.75 880.952C39.475 881.677 39.8375 882.552 39.8375 883.577C39.8375 884.602 39.475 885.477 38.75 886.202C38.025 886.927 37.15 887.29 36.125 887.29C35.1 887.29 34.225 886.927 33.5 886.202C32.775 885.477 32.4125 884.602 32.4125 883.577ZM8 893.535H23.75V890.16H30.5V897.06H26.75V898.635C28.05 899.535 29.0625 900.635 29.7875 901.935C30.5375 903.26 30.9125 904.948 30.9125 906.998C30.9125 910.198 30.05 912.648 28.325 914.348C26.6 916.073 24.2875 916.935 21.3875 916.935H8V910.035H20.0375C21.5875 910.035 22.7625 909.623 23.5625 908.798C24.3625 907.998 24.7625 906.81 24.7625 905.235C24.7625 903.66 24.3625 902.46 23.5625 901.635C22.7625 900.835 21.5875 900.435 20.0375 900.435H8V893.535ZM8 928.967C8 927.217 8.4375 925.854 9.3125 924.879C10.2125 923.929 11.575 923.454 13.4 923.454H25.1V919.704H30.5V923.529H37.25V930.279H30.5V935.229H25.1V930.354H13.4V935.754H8V928.967ZM7.55 949.851C7.55 947.376 8.025 945.226 8.975 943.401C9.95 941.576 11.3125 940.164 13.0625 939.164C14.8375 938.189 16.925 937.701 19.325 937.701C21.725 937.701 23.7875 938.176 25.5125 939.126C27.2625 940.101 28.6 941.476 29.525 943.251C30.475 945.051 30.95 947.164 30.95 949.589C30.95 951.989 30.4875 954.051 29.5625 955.776C28.6625 957.501 27.3625 958.814 25.6625 959.714C23.9625 960.639 21.925 961.101 19.55 961.101H17.3375V944.339C15.8875 944.614 14.7875 945.214 14.0375 946.139C13.3125 947.064 12.95 948.289 12.95 949.814C12.95 951.039 13.1375 951.989 13.5125 952.664C13.9125 953.364 14.5375 953.864 15.3875 954.164V961.064C12.9375 960.589 11.0125 959.364 9.6125 957.389C8.2375 955.414 7.55 952.901 7.55 949.851ZM21.8375 944.451V954.501C23.0875 954.276 24.0125 953.751 24.6125 952.926C25.2375 952.126 25.55 951.026 25.55 949.626C25.55 948.251 25.2375 947.126 24.6125 946.251C23.9875 945.376 23.0625 944.776 21.8375 944.451ZM8 966.565H23.75V963.19H30.5V970.09H26V971.665C27.625 972.24 28.825 973.177 29.6 974.477C30.4 975.777 30.8 977.227 30.8 978.827V980.74H24.8V978.527C24.8 976.677 24.2875 975.34 23.2625 974.515C22.2375 973.715 20.9 973.315 19.25 973.315H8V966.565ZM8 986.151H25.1V982.326H30.5V986.226H34.1C35.95 986.226 37.3125 986.701 38.1875 987.651C39.0625 988.626 39.5 990.001 39.5 991.776V998.301H34.1V992.976H30.5V997.851H25.1V993.051H8V986.151ZM7.5875 1008.31C7.5875 1005.61 8.225 1003.5 9.5 1001.98C10.8 1000.48 12.525 999.726 14.675 999.726C16.9 999.726 18.6125 1000.51 19.8125 1002.09C21.0375 1003.69 21.65 1005.96 21.65 1008.91V1014.95H22.475C24.525 1014.95 25.55 1013.65 25.55 1011.05C25.55 1008.75 24.775 1007.35 23.225 1006.85V1000.03C25.775 1000.55 27.7 1001.74 29 1003.59C30.3 1005.44 30.95 1007.91 30.95 1011.01C30.95 1014.44 30.1875 1017.05 28.6625 1018.85C27.1625 1020.65 24.9625 1021.55 22.0625 1021.55H14.75V1024.78H8V1017.88H11.75V1016.3C10.4 1015.53 9.3625 1014.5 8.6375 1013.23C7.9375 1011.95 7.5875 1010.31 7.5875 1008.31ZM12.7625 1009.36C12.7625 1010.46 12.95 1011.43 13.325 1012.25C13.7 1013.1 14.2125 1013.76 14.8625 1014.24C15.5125 1014.71 16.2375 1014.95 17.0375 1014.95H17.15V1009.21C17.15 1007.29 16.4375 1006.33 15.0125 1006.33C14.2875 1006.33 13.725 1006.59 13.325 1007.11C12.95 1007.66 12.7625 1008.41 12.7625 1009.36ZM7.55 1038.48C7.55 1036.13 8.025 1034.06 8.975 1032.26C9.95 1030.48 11.3125 1029.08 13.0625 1028.06C14.8125 1027.06 16.875 1026.56 19.25 1026.56C21.625 1026.56 23.6875 1027.06 25.4375 1028.06C27.1875 1029.06 28.5375 1030.46 29.4875 1032.26C30.4625 1034.06 30.95 1036.13 30.95 1038.48C30.95 1041.53 30.175 1044.03 28.625 1045.98C27.075 1047.96 24.975 1049.17 22.325 1049.62V1042.72C23.15 1042.42 23.7875 1041.91 24.2375 1041.18C24.7125 1040.48 24.95 1039.58 24.95 1038.48C24.95 1037.01 24.45 1035.8 23.45 1034.85C22.475 1033.92 21.075 1033.46 19.25 1033.46C17.425 1033.46 16.0125 1033.93 15.0125 1034.88C14.0375 1035.83 13.55 1037.03 13.55 1038.48C13.55 1040.86 14.5375 1042.31 16.5125 1042.83V1049.73C13.7375 1049.33 11.55 1048.16 9.95 1046.21C8.35 1044.26 7.55 1041.68 7.55 1038.48ZM7.55 1063.1C7.55 1060.62 8.025 1058.47 8.975 1056.65C9.95 1054.82 11.3125 1053.41 13.0625 1052.41C14.8375 1051.44 16.925 1050.95 19.325 1050.95C21.725 1050.95 23.7875 1051.42 25.5125 1052.37C27.2625 1053.35 28.6 1054.72 29.525 1056.5C30.475 1058.3 30.95 1060.41 30.95 1062.84C30.95 1065.24 30.4875 1067.3 29.5625 1069.02C28.6625 1070.75 27.3625 1072.06 25.6625 1072.96C23.9625 1073.89 21.925 1074.35 19.55 1074.35H17.3375V1057.59C15.8875 1057.86 14.7875 1058.46 14.0375 1059.39C13.3125 1060.31 12.95 1061.54 12.95 1063.06C12.95 1064.29 13.1375 1065.24 13.5125 1065.91C13.9125 1066.61 14.5375 1067.11 15.3875 1067.41V1074.31C12.9375 1073.84 11.0125 1072.61 9.6125 1070.64C8.2375 1068.66 7.55 1066.15 7.55 1063.1ZM21.8375 1057.7V1067.75C23.0875 1067.52 24.0125 1067 24.6125 1066.17C25.2375 1065.37 25.55 1064.27 25.55 1062.87C25.55 1061.5 25.2375 1060.37 24.6125 1059.5C23.9875 1058.62 23.0625 1058.02 21.8375 1057.7ZM7.55 1087.91C7.55 1084.54 8.2625 1081.87 9.6875 1079.92C11.1125 1078 13.1 1076.96 15.65 1076.81V1083.45C14.65 1083.65 13.9125 1084.12 13.4375 1084.87C12.9625 1085.65 12.725 1086.76 12.725 1088.21C12.725 1090.46 13.3125 1091.59 14.4875 1091.59C14.9625 1091.59 15.3375 1091.41 15.6125 1091.06C15.9125 1090.74 16.1375 1090.19 16.2875 1089.41L17.2625 1084.39C18.1625 1079.79 20.3125 1077.49 23.7125 1077.49C25.9125 1077.49 27.6625 1078.37 28.9625 1080.15C30.2875 1081.92 30.95 1084.37 30.95 1087.5C30.95 1090.62 30.275 1093.09 28.925 1094.89C27.575 1096.69 25.675 1097.66 23.225 1097.81V1091.17C24.2 1090.92 24.9 1090.47 25.325 1089.82C25.775 1089.2 26 1088.27 26 1087.05C26 1086.05 25.8625 1085.27 25.5875 1084.72C25.3125 1084.2 24.9 1083.94 24.35 1083.94C23.95 1083.94 23.6125 1084.1 23.3375 1084.42C23.0625 1084.75 22.8625 1085.24 22.7375 1085.89L21.725 1091.06C21.25 1093.46 20.475 1095.22 19.4 1096.35C18.325 1097.47 16.875 1098.04 15.05 1098.04C12.7 1098.04 10.8625 1097.16 9.5375 1095.41C8.2125 1093.69 7.55 1091.19 7.55 1087.91Z" fill="url(#paint6_linear_1247_189)"/>
<g clip-path="url(#clip1_1247_189)">
<mask id="mask2_1247_189" style="mask-type:luminance" maskUnits="userSpaceOnUse" x="7" y="649" width="34" height="34">
<path d="M41 649H7V683H41V649Z" fill="white"/>
<path d="M30.5962 662.051L27.3912 653.975C26.6816 652.187 24.151 652.187 23.4411 653.975L20.2343 662.051C20.2008 662.135 20.1345 662.201 20.0506 662.234L11.9736 665.442C10.1859 666.152 10.1859 668.682 11.9736 669.392L20.0506 672.599C20.1345 672.632 20.2008 672.699 20.2343 672.783L23.441 680.858C24.151 682.646 26.6815 682.646 27.3912 680.858L30.5962 672.783C30.6297 672.698 30.6969 672.632 30.7812 672.599L38.859 669.392C40.6467 668.682 40.6467 666.151 38.859 665.442L30.7812 662.234C30.6969 662.201 30.6297 662.135 30.5962 662.051Z" fill="black"/>
</mask>
<g mask="url(#mask2_1247_189)">
<path d="M25.4169 661.757C26.1992 661.757 26.8334 662.392 26.8335 663.174V666.007H29.6669C30.4492 666.007 31.0834 666.642 31.0835 667.424C31.0833 668.206 30.449 668.841 29.6669 668.841H26.8335V671.674C26.8333 672.456 26.199 673.091 25.4169 673.091C24.6347 673.091 24.0005 672.456 24.0002 671.674V668.841H21.1669C20.3847 668.841 19.7506 668.206 19.7502 667.424C19.7503 666.642 20.3846 666.008 21.1669 666.007H24.0002V663.174C24.0003 662.392 24.6346 661.758 25.4169 661.757ZM15.5998 650.9C16.0731 649.708 17.7608 649.708 18.2339 650.9L20.1044 655.615C20.125 655.666 20.1663 655.706 20.2178 655.727L24.9341 657.6C26.1259 658.073 26.1259 659.76 24.9341 660.233L20.2178 662.106C20.1663 662.127 20.125 662.167 20.1044 662.218L18.2339 666.933C17.7608 668.125 16.0731 668.125 15.5998 666.933L13.728 662.218C13.7074 662.167 13.6661 662.127 13.6145 662.106L8.8997 660.233C7.70791 659.76 7.70791 658.073 8.8997 657.6L13.6145 655.727C13.6661 655.706 13.7074 655.666 13.728 655.615L15.5998 650.9Z" fill="url(#paint7_linear_1247_189)"/>
</g>
<mask id="mask3_1247_189" style="mask-type:luminance" maskUnits="userSpaceOnUse" x="10" y="652" width="31" height="31">
<path d="M30.5962 662.051L27.3912 653.975C26.6816 652.187 24.151 652.187 23.4411 653.975L20.2343 662.051C20.2008 662.135 20.1345 662.201 20.0506 662.234L11.9736 665.442C10.1859 666.152 10.1859 668.682 11.9736 669.392L20.0506 672.599C20.1345 672.632 20.2008 672.699 20.2343 672.783L23.441 680.858C24.151 682.646 26.6815 682.646 27.3912 680.858L30.5962 672.783C30.6297 672.698 30.6969 672.632 30.7812 672.599L38.859 669.392C40.6467 668.682 40.6467 666.151 38.859 665.442L30.7812 662.234C30.6969 662.201 30.6297 662.135 30.5962 662.051Z" fill="white"/>
</mask>
<g mask="url(#mask3_1247_189)">
<g filter="url(#filter1_f_1247_189)">
<path d="M25.4164 661.757C26.1987 661.757 26.8329 662.392 26.833 663.174V666.007H29.6664C30.4487 666.007 31.0829 666.642 31.083 667.424C31.0828 668.206 30.4485 668.841 29.6664 668.841H26.833V671.674C26.8328 672.456 26.1985 673.091 25.4164 673.091C24.6342 673.091 24 672.456 23.9997 671.674V668.841H21.1664C20.3843 668.841 19.7501 668.206 19.7497 667.424C19.7498 666.642 20.3841 666.008 21.1664 666.007H23.9997V663.174C23.9999 662.392 24.6341 661.758 25.4164 661.757ZM15.5993 650.9C16.0726 649.708 17.7604 649.708 18.2334 650.9L20.1039 655.615C20.1245 655.666 20.1658 655.706 20.2173 655.727L24.9336 657.6C26.1254 658.073 26.1254 659.76 24.9336 660.233L20.2173 662.106C20.1658 662.127 20.1245 662.167 20.1039 662.218L18.2334 666.933C17.7604 668.125 16.0726 668.125 15.5993 666.933L13.7275 662.218C13.7069 662.167 13.6656 662.127 13.6141 662.106L8.89921 660.233C7.70742 659.76 7.70742 658.073 8.89921 657.6L13.6141 655.727C13.6656 655.706 13.7069 655.666 13.7275 655.615L15.5993 650.9Z" fill="url(#paint8_linear_1247_189)"/>
</g>
</g>
<path d="M30.5962 662.051L27.3912 653.975C26.6816 652.187 24.151 652.187 23.4411 653.975L20.2343 662.051C20.2008 662.135 20.1345 662.201 20.0506 662.234L11.9736 665.442C10.1859 666.152 10.1859 668.682 11.9736 669.392L20.0506 672.599C20.1345 672.632 20.2008 672.699 20.2343 672.783L23.441 680.858C24.151 682.646 26.6815 682.646 27.3912 680.858L30.5962 672.783C30.6297 672.698 30.6969 672.632 30.7812 672.599L38.859 669.392C40.6467 668.682 40.6467 666.151 38.859 665.442L30.7812 662.234C30.6969 662.201 30.6297 662.135 30.5962 662.051Z" fill="url(#paint9_linear_1247_189)"/>
<path d="M23.4412 653.975C24.1509 652.187 26.6811 652.187 27.3908 653.975L30.5963 662.05C30.6299 662.135 30.6975 662.201 30.7818 662.234L38.8585 665.441C40.6462 666.151 40.6462 668.682 38.8585 669.392L30.7818 672.599L30.7223 672.63C30.6659 672.666 30.6215 672.72 30.5963 672.783L27.3908 680.858L27.319 681.02C26.5502 682.592 24.2817 682.592 23.513 681.02L23.4412 680.858L20.2342 672.783C20.2008 672.699 20.1342 672.633 20.0502 672.599L11.9736 669.392C10.1859 668.682 10.1859 666.151 11.9736 665.441L20.0502 662.234C20.1342 662.201 20.2008 662.134 20.2342 662.05L23.4412 653.975ZM26.4045 654.368C26.0498 653.474 24.7842 653.473 24.4289 654.366L21.222 662.443C21.0982 662.754 20.867 663.009 20.5732 663.163L20.4431 663.222L12.3665 666.429C11.4726 666.784 11.4726 668.049 12.3665 668.405L20.4431 671.611C20.754 671.735 21.0091 671.966 21.1625 672.26L21.222 672.39L24.4289 680.467C24.7842 681.36 26.0484 681.359 26.4031 680.466L29.6086 672.39L29.6694 672.259C29.8251 671.962 30.0819 671.733 30.3889 671.611L38.4669 668.405C39.3608 668.05 39.3608 666.784 38.4669 666.429L30.3889 663.222C30.0821 663.1 29.8249 662.872 29.6694 662.575L29.6086 662.443L26.4045 654.368Z" fill="url(#paint10_linear_1247_189)"/>
</g>
</g>
<defs>
<filter id="filter0_f_1247_189" x="11.917" y="309.006" width="31.0776" height="31.0847" filterUnits="userSpaceOnUse" color-interpolation-filters="sRGB">
<feFlood flood-opacity="0" result="BackgroundImageFix"/>
<feBlend mode="normal" in="SourceGraphic" in2="BackgroundImageFix" result="shape"/>
<feGaussianBlur stdDeviation="2" result="effect1_foregroundBlur_1247_189"/>
</filter>
<filter id="filter1_f_1247_189" x="4.00537" y="646.006" width="31.0776" height="31.0847" filterUnits="userSpaceOnUse" color-interpolation-filters="sRGB">
<feFlood flood-opacity="0" result="BackgroundImageFix"/>
<feBlend mode="normal" in="SourceGraphic" in2="BackgroundImageFix" result="shape"/>
<feGaussianBlur stdDeviation="2" result="effect1_foregroundBlur_1247_189"/>
</filter>
<linearGradient id="paint0_linear_1247_189" x1="28" y1="69.5" x2="-47.5" y2="156.5" gradientUnits="userSpaceOnUse">
<stop stop-color="#D5D5D5"/>
<stop offset="1" stop-color="#999999"/>
</linearGradient>
<linearGradient id="paint1_linear_1247_189" x1="27.4552" y1="313.006" x2="27.4552" y2="331.125" gradientUnits="userSpaceOnUse">
<stop stop-color="#575757"/>
<stop offset="1" stop-color="#151515"/>
</linearGradient>
<linearGradient id="paint2_linear_1247_189" x1="27.4557" y1="313.006" x2="27.4557" y2="331.125" gradientUnits="userSpaceOnUse">
<stop stop-color="#575757"/>
<stop offset="1" stop-color="#151515"/>
</linearGradient>
<linearGradient id="paint3_linear_1247_189" x1="21.5835" y1="312" x2="21.5835" y2="348.833" gradientUnits="userSpaceOnUse">
<stop stop-color="#E3E3E5" stop-opacity="0.6"/>
<stop offset="1" stop-color="#BBBBC0" stop-opacity="0.6"/>
</linearGradient>
<linearGradient id="paint4_linear_1247_189" x1="21.5846" y1="315.634" x2="21.5846" y2="331.125" gradientUnits="userSpaceOnUse">
<stop stop-color="white"/>
<stop offset="1" stop-color="white" stop-opacity="0"/>
</linearGradient>
<linearGradient id="paint5_linear_1247_189" x1="27.5" y1="434" x2="27.5" y2="563" gradientUnits="userSpaceOnUse">
<stop stop-color="#D5D5D5"/>
<stop offset="1" stop-color="#999999"/>
</linearGradient>
<linearGradient id="paint6_linear_1247_189" x1="27.5" y1="769" x2="27.5" y2="1194" gradientUnits="userSpaceOnUse">
<stop stop-color="#D5D5D5"/>
<stop offset="1" stop-color="#999999"/>
</linearGradient>
<linearGradient id="paint7_linear_1247_189" x1="19.5448" y1="650.006" x2="19.5448" y2="668.125" gradientUnits="userSpaceOnUse">
<stop stop-color="#575757"/>
<stop offset="1" stop-color="#151515"/>
</linearGradient>
<linearGradient id="paint8_linear_1247_189" x1="19.5443" y1="650.006" x2="19.5443" y2="668.125" gradientUnits="userSpaceOnUse">
<stop stop-color="#575757"/>
<stop offset="1" stop-color="#151515"/>
</linearGradient>
<linearGradient id="paint9_linear_1247_189" x1="25.4165" y1="649" x2="25.4165" y2="685.833" gradientUnits="userSpaceOnUse">
<stop stop-color="#E3E3E5" stop-opacity="0.6"/>
<stop offset="1" stop-color="#BBBBC0" stop-opacity="0.6"/>
</linearGradient>
<linearGradient id="paint10_linear_1247_189" x1="25.4154" y1="652.634" x2="25.4154" y2="668.125" gradientUnits="userSpaceOnUse">
<stop stop-color="white"/>
<stop offset="1" stop-color="white" stop-opacity="0"/>
</linearGradient>
<clipPath id="clip0_1247_189">
<rect width="34" height="34" fill="white" transform="matrix(-1 0 0 1 40 312)"/>
</clipPath>
<clipPath id="clip1_1247_189">
<rect width="34" height="34" fill="white" transform="translate(7 649)"/>
</clipPath>
</defs>
</svg>
