<svg width="201" height="200" viewBox="0 0 201 200" fill="none" xmlns="http://www.w3.org/2000/svg">
<path fill-rule="evenodd" clip-rule="evenodd" d="M168.535 108.439H176.132V96.7721H168.535V108.439ZM176.109 92.1911L181.938 92.1926V113.883C181.938 117.481 181.56 118.09 180.612 119.072C179.856 119.867 178.643 120.247 176.523 120.247L167.98 120.23L165.347 117.312L165.339 116.085H176.107L176.097 113.115L168.751 113.111C166.515 113.111 165.392 112.695 164.444 111.785C163.233 110.535 162.739 107.8 162.739 102.689C162.739 97.5403 163.345 94.7296 164.593 93.4439C165.539 92.5351 166.752 92.1567 168.836 92.1567L173.188 92.1926L176.107 94.8256L176.109 92.1911ZM152.548 98.7845L152.549 96.8495H150.448H150.356H148.728H148.663H145.433V113.017H139.643V92.194L145.414 92.1926V94.8399L148.332 92.2069H150.026C150.293 92.1782 150.577 92.1711 150.886 92.1711H153.423C155.204 92.1711 156.339 92.5495 157.136 93.3464C158.006 94.1777 158.347 95.2771 158.347 98.3444V113.036H152.556L152.552 98.8031L152.548 98.7845ZM122.233 113.017C120.111 113.017 119.015 112.676 118.105 111.73C116.743 110.369 116.213 108.474 116.213 102.606C116.213 96.7004 116.743 94.8442 118.105 93.4439C118.975 92.5351 120.111 92.194 122.233 92.194H129.313C131.435 92.194 132.531 92.5351 133.441 93.4439C134.803 94.8442 135.333 96.7004 135.333 102.606C135.333 108.511 134.803 110.367 133.441 111.73C132.533 112.676 131.435 113.017 129.313 113.017H122.233ZM121.967 108.431H129.564V96.7692H121.967V108.431ZM107.16 86.4363H114.054L104.15 98.9665L114.47 113.096H107.157L99.3093 101.992L97.446 101.984V113.095H91.2396V86.4349H97.446V96.7549H99.305L107.16 86.4363ZM39.1737 117.249H50.0169L55.647 124.272L54.6795 126.66H40.6716L41.0156 124.272L37.7132 119.112L39.1737 117.249ZM46.8335 85.8558L52.7187 85.8472L79.1666 117.137L77.1112 126.649H65.7764L66.4816 123.968L41.7681 94.7253L46.8335 85.8558ZM57.3341 73.3542L69.5748 83.0393L68.0081 84.6676L70.1295 87.6432V90.8252L64.0278 95.8332L53.7651 83.627H47.7909L50.1961 79.1879L57.3341 73.3542ZM31.7992 103.899L40.405 96.5212L51.8286 110.081L48.585 115.047H38.05L30.7629 124.478L29.1003 126.647H19.6617V115.076L28.4624 103.9L31.7992 103.899Z" fill="white"/>
</svg>
