<svg width="201" height="200" viewBox="0 0 201 200" fill="none" xmlns="http://www.w3.org/2000/svg">
<g clip-path="url(#clip0_74_17)">
<path d="M201.133 99.4829V95.996H196.871V90.5751L196.728 90.62L192.724 91.8644L192.645 91.8888V95.9962H186.327V93.708C186.327 92.6425 186.561 91.8272 187.024 91.2835C187.482 90.7462 188.139 90.4731 188.976 90.4731C189.578 90.4731 190.201 90.6171 190.828 90.9012L190.986 90.9725V87.3003L190.912 87.2727C190.327 87.0591 189.531 86.9515 188.544 86.9515C187.301 86.9515 186.172 87.2263 185.187 87.771C184.201 88.3165 183.426 89.0952 182.882 90.0853C182.341 91.0742 182.067 92.2164 182.067 93.4803V95.996H179.099V99.4829H182.067V114.173H186.327V99.4829H192.645V108.818C192.645 112.663 194.43 114.611 197.951 114.611C198.529 114.611 199.138 114.542 199.76 114.407C200.392 114.269 200.823 114.13 201.077 113.983L201.133 113.949V110.43L200.96 110.546C200.729 110.703 200.441 110.831 200.103 110.926C199.764 111.023 199.481 111.071 199.262 111.071C198.437 111.071 197.827 110.846 197.448 110.4C197.066 109.95 196.871 109.164 196.871 108.064V99.4829H201.133ZM169.585 111.072C168.038 111.072 166.819 110.551 165.96 109.525C165.095 108.493 164.657 107.023 164.657 105.155C164.657 103.228 165.095 101.719 165.96 100.67C166.82 99.6269 168.028 99.0978 169.55 99.0978C171.027 99.0978 172.203 99.6032 173.045 100.601C173.892 101.603 174.322 103.1 174.322 105.05C174.322 107.024 173.918 108.54 173.121 109.554C172.33 110.56 171.14 111.072 169.585 111.072ZM169.774 95.5581C166.824 95.5581 164.481 96.4363 162.81 98.1685C161.14 99.9008 160.294 102.298 160.294 105.294C160.294 108.14 161.12 110.429 162.75 112.097C164.38 113.765 166.598 114.611 169.343 114.611C172.202 114.611 174.499 113.72 176.169 111.964C177.839 110.21 178.685 107.835 178.685 104.909C178.685 102.018 177.891 99.7121 176.325 98.0555C174.757 96.3982 172.553 95.5581 169.774 95.5581ZM153.425 95.5581C151.418 95.5581 149.758 96.0796 148.49 97.1078C147.214 98.1422 146.567 99.4988 146.567 101.14C146.567 101.994 146.706 102.752 146.981 103.395C147.258 104.04 147.686 104.608 148.254 105.084C148.819 105.557 149.69 106.052 150.844 106.556C151.814 106.962 152.538 107.305 152.998 107.575C153.447 107.84 153.766 108.107 153.946 108.366C154.121 108.62 154.21 108.968 154.21 109.397C154.21 110.618 153.31 111.212 151.457 111.212C150.77 111.212 149.987 111.066 149.128 110.779C148.276 110.496 147.472 110.082 146.743 109.55L146.566 109.421V113.589L146.631 113.619C147.234 113.902 147.994 114.14 148.89 114.328C149.784 114.516 150.596 114.611 151.302 114.611C153.48 114.611 155.233 114.087 156.513 113.053C157.801 112.011 158.453 110.623 158.453 108.924C158.453 107.699 158.102 106.649 157.41 105.801C156.722 104.961 155.528 104.189 153.863 103.507C152.537 102.966 151.687 102.517 151.336 102.173C150.998 101.84 150.827 101.369 150.827 100.772C150.827 100.244 151.039 99.8203 151.473 99.4773C151.912 99.1327 152.522 98.9574 153.287 98.9574C153.996 98.9574 154.723 99.0713 155.445 99.2945C156.167 99.5178 156.801 99.8168 157.33 100.183L157.504 100.303V96.3504L157.437 96.3213C156.949 96.1086 156.305 95.9265 155.523 95.7789C154.745 95.6321 154.039 95.5581 153.425 95.5581ZM135.46 111.072C133.914 111.072 132.695 110.551 131.836 109.525C130.971 108.493 130.534 107.024 130.534 105.155C130.534 103.228 130.972 101.719 131.837 100.67C132.696 99.6269 133.903 99.0978 135.426 99.0978C136.903 99.0978 138.079 99.6032 138.921 100.601C139.768 101.603 140.197 103.1 140.197 105.05C140.197 107.024 139.793 108.54 138.997 109.554C138.205 110.56 137.016 111.072 135.46 111.072ZM135.65 95.5581C132.699 95.5581 130.356 96.4363 128.686 98.1685C127.016 99.9008 126.169 102.298 126.169 105.294C126.169 108.142 126.996 110.429 128.626 112.097C130.256 113.765 132.474 114.611 135.219 114.611C138.078 114.611 140.375 113.72 142.045 111.964C143.715 110.21 144.561 107.835 144.561 104.909C144.561 102.018 143.767 99.7121 142.2 98.0555C140.633 96.3982 138.429 95.5581 135.65 95.5581ZM119.702 99.1438V95.996H115.494V114.172H119.702V104.874C119.702 103.293 120.055 101.995 120.751 101.013C121.439 100.044 122.355 99.5529 123.473 99.5529C123.852 99.5529 124.278 99.6164 124.738 99.742C125.194 99.8669 125.525 100.002 125.72 100.145L125.897 100.275V95.9649L125.828 95.9352C125.436 95.766 124.882 95.6807 124.18 95.6807C123.123 95.6807 122.177 96.0259 121.366 96.7056C120.654 97.3031 120.14 98.1223 119.747 99.1438H119.702ZM107.957 95.5581C106.026 95.5581 104.304 95.9787 102.839 96.8079C101.372 97.6389 100.236 98.8254 99.464 100.334C98.6951 101.839 98.3047 103.597 98.3047 105.558C98.3047 107.275 98.6832 108.851 99.4314 110.24C100.18 111.631 101.239 112.72 102.581 113.475C103.92 114.229 105.468 114.611 107.181 114.611C109.182 114.611 110.889 114.205 112.258 113.404L112.313 113.372V109.454L112.137 109.586C111.516 110.045 110.823 110.411 110.078 110.675C109.334 110.939 108.656 111.072 108.061 111.072C106.41 111.072 105.084 110.547 104.122 109.512C103.157 108.476 102.669 107.02 102.669 105.189C102.669 103.347 103.178 101.854 104.183 100.753C105.185 99.6547 106.513 99.0978 108.131 99.0978C109.514 99.0978 110.862 99.5736 112.137 100.513L112.313 100.644V96.5163L112.256 96.4837C111.777 96.2108 111.122 95.9854 110.31 95.8145C109.5 95.644 108.709 95.5581 107.957 95.5581ZM95.4062 95.9962H91.1978V114.172H95.4062V95.9962ZM93.3451 88.253C92.6524 88.253 92.0483 88.4926 91.552 88.9673C91.0536 89.4433 90.8008 90.0427 90.8008 90.7501C90.8008 91.4463 91.0505 92.0347 91.5442 92.4981C92.0347 92.9602 92.6407 93.1944 93.3452 93.1944C94.0496 93.1944 94.6579 92.9602 95.1542 92.4989C95.6537 92.0347 95.9071 91.4465 95.9071 90.7501C95.9071 90.0674 95.6605 89.4742 95.1748 88.9865C94.6894 88.4997 94.0736 88.253 93.3451 88.253ZM82.8447 94.6551V114.172H87.1396V88.8094H81.1953L73.6396 107.648L66.3073 88.8094H60.1209V114.172H64.157V94.6532H64.2956L72.0383 114.172H75.0842L82.7061 94.6551H82.8447Z" fill="white"/>
<path d="M20.2643 100.45H0.466515V80.3361H20.2643V100.45Z" fill="white"/>
<path d="M42.1181 100.45H22.3207V80.3361H42.1181V100.45Z" fill="white"/>
<path d="M20.2637 122.664H0.466515V102.551H20.2637V122.664Z" fill="white"/>
<path d="M42.1181 122.664H22.3207V102.551H42.1181V122.664Z" fill="white"/>
</g>
<defs>
<clipPath id="clip0_74_17">
<rect width="200" height="200" fill="white" transform="translate(0.799927)"/>
</clipPath>
</defs>
</svg>
