<svg width="67" height="17" viewBox="0 0 67 17" fill="none" xmlns="http://www.w3.org/2000/svg">
    <g clip-path="url(#clip0_94_335)">
        <path
            d="M13.6769 12.7499C14.0414 13.0564 14.0826 13.6 13.7375 13.9283C12.6534 14.9599 11.2879 15.6609 9.80298 15.9372C8.03484 16.2662 6.20704 15.9725 4.6319 15.1064C3.05677 14.2403 1.83207 12.8554 1.16707 11.1885C0.502075 9.52165 0.438057 7.67615 0.985957 5.9674C1.10827 5.57108 1.55551 5.40308 1.93248 5.57606C2.05904 5.63414 2.1861 5.69237 2.31303 5.74957C2.59247 5.87549 2.72458 6.20527 2.62471 6.49504C2.19545 7.82573 2.24369 9.26393 2.76116 10.563C3.27863 11.8621 4.23309 12.9412 5.46088 13.6152C6.68868 14.2893 8.11333 14.5162 9.49055 14.2573C10.5838 14.0517 11.5931 13.5501 12.4118 12.8149C12.7667 12.4962 13.3119 12.4429 13.6769 12.7499Z"
            fill="url(#paint0_linear_94_335)" />
        <path
            d="M13.6769 12.7499C14.0414 13.0564 14.0826 13.6 13.7375 13.9283C12.6534 14.9599 11.2879 15.6609 9.80298 15.9372C8.03484 16.2662 6.20704 15.9725 4.6319 15.1064C3.05677 14.2403 1.83207 12.8554 1.16707 11.1885C0.502075 9.52165 0.438057 7.67615 0.985957 5.9674C1.10827 5.57108 1.55551 5.40308 1.93248 5.57606C2.05904 5.63414 2.1861 5.69237 2.31303 5.74957C2.59247 5.87549 2.72458 6.20527 2.62471 6.49504C2.19545 7.82573 2.24369 9.26393 2.76116 10.563C3.27863 11.8621 4.23309 12.9412 5.46088 13.6152C6.68868 14.2893 8.11333 14.5162 9.49055 14.2573C10.5838 14.0517 11.5931 13.5501 12.4118 12.8149C12.7667 12.4962 13.3119 12.4429 13.6769 12.7499Z"
            stroke="url(#paint1_linear_94_335)" />
        <path
            d="M13.6769 12.7499C14.0414 13.0564 14.0826 13.6 13.7375 13.9283C12.6534 14.9599 11.2879 15.6609 9.80298 15.9372C8.03484 16.2662 6.20704 15.9725 4.6319 15.1064C3.05677 14.2403 1.83207 12.8554 1.16707 11.1885C0.502075 9.52165 0.438057 7.67615 0.985957 5.9674C1.10827 5.57108 1.55551 5.40308 1.93248 5.57606C2.05904 5.63414 2.1861 5.69237 2.31303 5.74957C2.59247 5.87549 2.72458 6.20527 2.62471 6.49504C2.19545 7.82573 2.24369 9.26393 2.76116 10.563C3.27863 11.8621 4.23309 12.9412 5.46088 13.6152C6.68868 14.2893 8.11333 14.5162 9.49055 14.2573C10.5838 14.0517 11.5931 13.5501 12.4118 12.8149C12.7667 12.4962 13.3119 12.4429 13.6769 12.7499Z"
            stroke="url(#paint2_linear_94_335)" stroke-opacity="0.2" />
        <path
            d="M15.7636 10.7048C15.7343 10.801 15.6168 10.8296 15.539 10.7658C15.1972 10.4856 14.8501 10.2115 14.502 9.94557C14.3434 9.8244 14.2721 9.62159 14.3083 9.42528C14.5178 8.28871 14.3946 7.1134 13.95 6.04124C13.4633 4.86756 12.6163 3.87783 11.5307 3.21409C10.445 2.55034 9.17641 2.2467 7.90697 2.34673C6.74395 2.43837 5.63497 2.86453 4.71304 3.5702C4.55845 3.68852 4.35155 3.71894 4.17487 3.63719C3.9285 3.5232 3.68646 3.41067 3.44304 3.30055C3.12287 3.1557 3.03808 2.7359 3.30453 2.50677C4.4377 1.53229 5.83385 0.901898 7.32675 0.699883C9.06195 0.46508 10.8257 0.822803 12.3312 1.71486C13.8367 2.60692 14.9953 3.98082 15.6185 5.61306C16.2416 7.2453 16.2928 9.03985 15.7636 10.7048Z"
            fill="url(#paint3_linear_94_335)" />
        <path
            d="M9.53614 5.18164C10.6286 5.18164 11.3588 5.91577 11.3588 7.37252V8.85219C11.3588 9.40389 11.3592 10.1718 11.372 10.7845L12.0202 10.9168V11.4903H11.3983C11.3985 11.4942 11.3988 11.498 11.3991 11.5018H9.30617C9.30617 11.498 9.30616 11.4942 9.30617 11.4903H8.66207V10.9168L9.31454 10.7735C9.32475 10.1622 9.34064 9.40138 9.34064 8.85219V7.51583C9.34064 6.7072 9.13937 6.4204 8.63338 6.4204C8.32452 6.46101 8.02715 6.56383 7.75931 6.72253C7.68773 6.76495 7.61875 6.81139 7.55245 6.86108V8.82356C7.55245 9.36803 7.55267 10.1668 7.56441 10.7926L8.16187 10.9168V11.4903H4.8326V10.9168L5.50359 10.7696C5.51549 10.1494 5.53408 9.37424 5.53408 8.84066V8.11235C5.53408 7.41839 5.53408 7.15448 5.49383 6.64978L4.72339 6.53509V6.03617L7.21885 5.18164L7.43168 5.31919L7.5116 6.24746C8.18393 5.46045 8.79964 5.18164 9.53614 5.18164Z"
            fill="#1D1D1D" />
        <path
            d="M26.1187 3.74191C26.5767 3.72771 27.0325 3.81088 27.457 3.98607C27.8815 4.16126 28.2652 4.42461 28.5834 4.7592C28.9209 5.139 29.1811 5.58282 29.3489 6.06509C29.5167 6.54737 29.5888 7.05857 29.5611 7.56926V13.2394H26.8006V7.97784C26.814 7.74903 26.7808 7.51988 26.703 7.30468C26.6253 7.08947 26.5047 6.89285 26.3487 6.72708C26.198 6.58137 26.02 6.4679 25.8252 6.39341C25.6304 6.31892 25.4229 6.28494 25.2149 6.29348C24.9864 6.28196 24.7579 6.31904 24.5443 6.40232C24.3307 6.4856 24.1365 6.61326 23.9743 6.77711C23.6457 7.1708 23.4833 7.68018 23.5225 8.19464V13.2394H20.7948V4.0004H23.5225V4.83425C23.8344 4.45078 24.2341 4.15071 24.6867 3.96029C25.1393 3.76987 25.6309 3.69489 26.1187 3.74191Z"
            fill="black" />
        <path
            d="M38.007 4.0003H40.7346V13.2393H38.007V12.4054C37.6655 12.7853 37.2451 13.0833 36.7762 13.278C36.3073 13.4727 35.8016 13.5592 35.2957 13.5311C34.7129 13.5352 34.1362 13.4105 33.6056 13.1658C33.075 12.921 32.6032 12.562 32.223 12.1136C31.3688 11.1731 30.9091 9.93188 30.9413 8.65315C30.9091 7.37442 31.3688 6.13321 32.223 5.19269C32.6032 4.74434 33.075 4.38532 33.6056 4.14054C34.1362 3.89576 34.7129 3.77108 35.2957 3.77516C35.8024 3.74637 36.3091 3.83331 36.7783 4.02957C37.2475 4.22583 37.6674 4.52641 38.007 4.90919V4.0003ZM34.277 10.2625C34.482 10.4673 34.7265 10.627 34.995 10.7317C35.2636 10.8365 35.5505 10.8839 35.838 10.8712C36.1266 10.8831 36.4145 10.8353 36.6843 10.7306C36.9541 10.626 37.2 10.4667 37.4072 10.2625C37.6137 10.0405 37.7734 9.77816 37.8766 9.49141C37.9797 9.20465 38.0241 8.89955 38.007 8.59478C38.0241 8.29001 37.9797 7.98491 37.8766 7.69815C37.7734 7.41139 37.6137 7.14902 37.4072 6.92709C37.2 6.72286 36.9541 6.56356 36.6843 6.45892C36.4145 6.35427 36.1266 6.30645 35.838 6.31838C35.5505 6.30562 35.2636 6.35309 34.995 6.45781C34.7265 6.56254 34.482 6.72228 34.277 6.92709C34.0688 7.14787 33.9081 7.41007 33.8048 7.69712C33.7016 7.98416 33.6581 8.28982 33.6772 8.59478C33.6581 8.89974 33.7016 9.20539 33.8048 9.49244C33.9081 9.77949 34.0688 10.0417 34.277 10.2625Z"
            fill="black" />
        <path
            d="M45.4587 5.65145C45.6148 5.07816 45.9866 4.59005 46.4939 4.29228C47.0055 3.97465 47.5949 3.80991 48.1946 3.81699V6.96058C47.5526 6.84005 46.8894 6.96163 46.3296 7.30246C46.036 7.48287 45.7986 7.74368 45.6445 8.05491C45.4905 8.36613 45.4261 8.71516 45.4587 9.06187V13.2311H42.731V4.00044H45.4587V5.65145Z"
            fill="black" />
        <path
            d="M55.7942 0.314819H58.5218V13.2394H55.7942V12.4056C55.4538 12.7868 55.0336 13.0858 54.5644 13.2806C54.0953 13.4754 53.589 13.5611 53.083 13.5312C52.5001 13.5353 51.9234 13.4106 51.3928 13.1659C50.8622 12.9211 50.3905 12.5621 50.0103 12.1137C49.1612 11.1705 48.7049 9.9304 48.7368 8.65326C48.7049 7.37612 49.1612 6.13602 50.0103 5.19281C50.3905 4.74446 50.8622 4.38544 51.3928 4.14066C51.9234 3.89588 52.5001 3.7712 53.083 3.77527C53.5898 3.74527 54.0968 3.83165 54.5662 4.02799C55.0356 4.22433 55.4553 4.52557 55.7942 4.9093V0.314819ZM52.0642 10.2626C52.494 10.6546 53.0515 10.8715 53.6293 10.8715C54.2072 10.8715 54.7646 10.6546 55.1944 10.2626C55.4026 10.0418 55.5633 9.7796 55.6666 9.49255C55.7698 9.20551 55.8133 8.89985 55.7942 8.59489C55.8133 8.28994 55.7698 7.98428 55.6666 7.69723C55.5633 7.41018 55.4026 7.14798 55.1944 6.9272C54.7646 6.53519 54.2072 6.31832 53.6293 6.31832C53.0515 6.31832 52.494 6.53519 52.0642 6.9272C51.8577 7.14913 51.698 7.41151 51.5948 7.69826C51.4917 7.98502 51.4473 8.29012 51.4644 8.59489C51.4473 8.89966 51.4917 9.20476 51.5948 9.49152C51.698 9.77828 51.8577 10.0407 52.0642 10.2626Z"
            fill="black" />
        <path
            d="M26.1187 3.74191C26.5767 3.72771 27.0325 3.81088 27.457 3.98607C27.8815 4.16126 28.2652 4.42461 28.5834 4.7592C28.9209 5.139 29.1811 5.58282 29.3489 6.06509C29.5167 6.54737 29.5888 7.05857 29.5611 7.56926V13.2394H26.8006V7.97784C26.814 7.74903 26.7808 7.51988 26.703 7.30468C26.6253 7.08947 26.5047 6.89285 26.3487 6.72708C26.198 6.58137 26.02 6.4679 25.8252 6.39341C25.6304 6.31892 25.4229 6.28494 25.2149 6.29348C24.9864 6.28196 24.7579 6.31904 24.5443 6.40232C24.3307 6.4856 24.1365 6.61326 23.9743 6.77711C23.6457 7.1708 23.4833 7.68018 23.5225 8.19464V13.2394H20.7948V4.0004H23.5225V4.83425C23.8344 4.45078 24.2341 4.15071 24.6867 3.96029C25.1393 3.76987 25.6309 3.69489 26.1187 3.74191Z"
            stroke="#666666" stroke-miterlimit="10" />
        <path
            d="M38.007 4.0003H40.7346V13.2393H38.007V12.4054C37.6655 12.7853 37.2451 13.0833 36.7762 13.278C36.3073 13.4727 35.8016 13.5592 35.2957 13.5311C34.7129 13.5352 34.1362 13.4105 33.6056 13.1658C33.075 12.921 32.6032 12.562 32.223 12.1136C31.3688 11.1731 30.9091 9.93188 30.9413 8.65315C30.9091 7.37442 31.3688 6.13321 32.223 5.19269C32.6032 4.74434 33.075 4.38532 33.6056 4.14054C34.1362 3.89576 34.7129 3.77108 35.2957 3.77516C35.8024 3.74637 36.3091 3.83331 36.7783 4.02957C37.2475 4.22583 37.6674 4.52641 38.007 4.90919V4.0003ZM34.277 10.2625C34.482 10.4673 34.7265 10.627 34.995 10.7317C35.2636 10.8365 35.5505 10.8839 35.838 10.8712C36.1266 10.8831 36.4145 10.8353 36.6843 10.7306C36.9541 10.626 37.2 10.4667 37.4072 10.2625C37.6137 10.0405 37.7734 9.77816 37.8766 9.49141C37.9797 9.20465 38.0241 8.89955 38.007 8.59478C38.0241 8.29001 37.9797 7.98491 37.8766 7.69815C37.7734 7.41139 37.6137 7.14902 37.4072 6.92709C37.2 6.72286 36.9541 6.56356 36.6843 6.45892C36.4145 6.35427 36.1266 6.30645 35.838 6.31838C35.5505 6.30562 35.2636 6.35309 34.995 6.45781C34.7265 6.56254 34.482 6.72228 34.277 6.92709C34.0688 7.14787 33.9081 7.41007 33.8048 7.69712C33.7016 7.98416 33.6581 8.28982 33.6772 8.59478C33.6581 8.89974 33.7016 9.20539 33.8048 9.49244C33.9081 9.77949 34.0688 10.0417 34.277 10.2625Z"
            stroke="#666666" stroke-miterlimit="10" />
        <path
            d="M45.4587 5.65145C45.6148 5.07816 45.9866 4.59005 46.4939 4.29228C47.0055 3.97465 47.5949 3.80991 48.1946 3.81699V6.96058C47.5526 6.84005 46.8894 6.96163 46.3296 7.30246C46.036 7.48287 45.7986 7.74368 45.6445 8.05491C45.4905 8.36613 45.4261 8.71516 45.4587 9.06187V13.2311H42.731V4.00044H45.4587V5.65145Z"
            stroke="#666666" stroke-miterlimit="10" />
        <path
            d="M55.7942 0.314819H58.5218V13.2394H55.7942V12.4056C55.4538 12.7868 55.0336 13.0858 54.5644 13.2806C54.0953 13.4754 53.589 13.5611 53.083 13.5312C52.5001 13.5353 51.9234 13.4106 51.3928 13.1659C50.8622 12.9211 50.3905 12.5621 50.0103 12.1137C49.1612 11.1705 48.7049 9.9304 48.7368 8.65326C48.7049 7.37612 49.1612 6.13602 50.0103 5.19281C50.3905 4.74446 50.8622 4.38544 51.3928 4.14066C51.9234 3.89588 52.5001 3.7712 53.083 3.77527C53.5898 3.74527 54.0968 3.83165 54.5662 4.02799C55.0356 4.22433 55.4553 4.52557 55.7942 4.9093V0.314819ZM52.0642 10.2626C52.494 10.6546 53.0515 10.8715 53.6293 10.8715C54.2072 10.8715 54.7646 10.6546 55.1944 10.2626C55.4026 10.0418 55.5633 9.7796 55.6666 9.49255C55.7698 9.20551 55.8133 8.89985 55.7942 8.59489C55.8133 8.28994 55.7698 7.98428 55.6666 7.69723C55.5633 7.41018 55.4026 7.14798 55.1944 6.9272C54.7646 6.53519 54.2072 6.31832 53.6293 6.31832C53.0515 6.31832 52.494 6.53519 52.0642 6.9272C51.8577 7.14913 51.698 7.41151 51.5948 7.69826C51.4917 7.98502 51.4473 8.29012 51.4644 8.59489C51.4473 8.89966 51.4917 9.20476 51.5948 9.49152C51.698 9.77828 51.8577 10.0407 52.0642 10.2626Z"
            stroke="#666666" stroke-miterlimit="10" />
        <path
            d="M26.1187 3.74191C26.5767 3.72771 27.0325 3.81088 27.457 3.98607C27.8815 4.16126 28.2652 4.42461 28.5834 4.7592C28.9209 5.139 29.1811 5.58282 29.3489 6.06509C29.5167 6.54737 29.5888 7.05857 29.5611 7.56926V13.2394H26.8006V7.97784C26.814 7.74903 26.7808 7.51988 26.703 7.30468C26.6253 7.08947 26.5047 6.89285 26.3487 6.72708C26.198 6.58137 26.02 6.4679 25.8252 6.39341C25.6304 6.31892 25.4229 6.28494 25.2149 6.29348C24.9864 6.28196 24.7579 6.31904 24.5443 6.40232C24.3307 6.4856 24.1365 6.61326 23.9743 6.77711C23.6457 7.1708 23.4833 7.68018 23.5225 8.19464V13.2394H20.7948V4.0004H23.5225V4.83425C23.8344 4.45078 24.2341 4.15071 24.6867 3.96029C25.1393 3.76987 25.6309 3.69489 26.1187 3.74191Z"
            fill="url(#paint4_linear_94_335)" />
        <path
            d="M38.007 4.0003H40.7346V13.2393H38.007V12.4054C37.6655 12.7853 37.2451 13.0833 36.7762 13.278C36.3073 13.4727 35.8016 13.5592 35.2957 13.5311C34.7129 13.5352 34.1362 13.4105 33.6056 13.1658C33.075 12.921 32.6032 12.562 32.223 12.1136C31.3688 11.1731 30.9091 9.93188 30.9413 8.65315C30.9091 7.37442 31.3688 6.13321 32.223 5.19269C32.6032 4.74434 33.075 4.38532 33.6056 4.14054C34.1362 3.89576 34.7129 3.77108 35.2957 3.77516C35.8024 3.74637 36.3091 3.83331 36.7783 4.02957C37.2475 4.22583 37.6674 4.52641 38.007 4.90919V4.0003ZM34.277 10.2625C34.482 10.4673 34.7265 10.627 34.995 10.7317C35.2636 10.8365 35.5505 10.8839 35.838 10.8712C36.1266 10.8831 36.4145 10.8353 36.6843 10.7306C36.9541 10.626 37.2 10.4667 37.4072 10.2625C37.6137 10.0405 37.7734 9.77816 37.8766 9.49141C37.9797 9.20465 38.0241 8.89955 38.007 8.59478C38.0241 8.29001 37.9797 7.98491 37.8766 7.69815C37.7734 7.41139 37.6137 7.14902 37.4072 6.92709C37.2 6.72286 36.9541 6.56356 36.6843 6.45892C36.4145 6.35427 36.1266 6.30645 35.838 6.31838C35.5505 6.30562 35.2636 6.35309 34.995 6.45781C34.7265 6.56254 34.482 6.72228 34.277 6.92709C34.0688 7.14787 33.9081 7.41007 33.8048 7.69712C33.7016 7.98416 33.6581 8.28982 33.6772 8.59478C33.6581 8.89974 33.7016 9.20539 33.8048 9.49244C33.9081 9.77949 34.0688 10.0417 34.277 10.2625Z"
            fill="url(#paint5_linear_94_335)" />
        <path
            d="M45.4587 5.65145C45.6148 5.07816 45.9866 4.59005 46.4939 4.29228C47.0055 3.97465 47.5949 3.80991 48.1946 3.81699V6.96058C47.5526 6.84005 46.8894 6.96163 46.3296 7.30246C46.036 7.48287 45.7986 7.74368 45.6445 8.05491C45.4905 8.36613 45.4261 8.71516 45.4587 9.06187V13.2311H42.731V4.00044H45.4587V5.65145Z"
            fill="url(#paint6_linear_94_335)" />
        <path
            d="M55.7942 0.314819H58.5218V13.2394H55.7942V12.4056C55.4538 12.7868 55.0336 13.0858 54.5644 13.2806C54.0953 13.4754 53.589 13.5611 53.083 13.5312C52.5001 13.5353 51.9234 13.4106 51.3928 13.1659C50.8622 12.9211 50.3905 12.5621 50.0103 12.1137C49.1612 11.1705 48.7049 9.9304 48.7368 8.65326C48.7049 7.37612 49.1612 6.13602 50.0103 5.19281C50.3905 4.74446 50.8622 4.38544 51.3928 4.14066C51.9234 3.89588 52.5001 3.7712 53.083 3.77527C53.5898 3.74527 54.0968 3.83165 54.5662 4.02799C55.0356 4.22433 55.4553 4.52557 55.7942 4.9093V0.314819ZM52.0642 10.2626C52.494 10.6546 53.0515 10.8715 53.6293 10.8715C54.2072 10.8715 54.7646 10.6546 55.1944 10.2626C55.4026 10.0418 55.5633 9.7796 55.6666 9.49255C55.7698 9.20551 55.8133 8.89985 55.7942 8.59489C55.8133 8.28994 55.7698 7.98428 55.6666 7.69723C55.5633 7.41018 55.4026 7.14798 55.1944 6.9272C54.7646 6.53519 54.2072 6.31832 53.6293 6.31832C53.0515 6.31832 52.494 6.53519 52.0642 6.9272C51.8577 7.14913 51.698 7.41151 51.5948 7.69826C51.4917 7.98502 51.4473 8.29012 51.4644 8.59489C51.4473 8.89966 51.4917 9.20476 51.5948 9.49152C51.698 9.77828 51.8577 10.0407 52.0642 10.2626Z"
            fill="url(#paint7_linear_94_335)" />
    </g>
    <defs>
        <linearGradient id="paint0_linear_94_335" x1="7.56397" y1="7.3668" x2="7.17498" y2="21.0339"
            gradientUnits="userSpaceOnUse">
            <stop stop-color="#333333" stop-opacity="0.8" />
            <stop offset="0.14" stop-color="#222222" stop-opacity="0.87" />
            <stop offset="0.36" stop-color="#0F0F0F" stop-opacity="0.94" />
            <stop offset="0.63" stop-color="#040404" stop-opacity="0.99" />
            <stop offset="1" />
        </linearGradient>
        <linearGradient id="paint1_linear_94_335" x1="6.50114" y1="13.9428" x2="4.89849" y2="15.2817"
            gradientUnits="userSpaceOnUse">
            <stop stop-opacity="0" />
            <stop offset="1" stop-color="#666666" />
        </linearGradient>
        <linearGradient id="paint2_linear_94_335" x1="12.3946" y1="14.7798" x2="12.1283" y2="13.1777"
            gradientUnits="userSpaceOnUse">
            <stop stop-color="#00F7FB" />
            <stop offset="1" stop-opacity="0" />
        </linearGradient>
        <linearGradient id="paint3_linear_94_335" x1="2.76278" y1="5.74379" x2="16.1373" y2="5.74379"
            gradientUnits="userSpaceOnUse">
            <stop offset="0.18" stop-color="#BA9BC9" />
            <stop offset="1" stop-color="#29ABE2" stop-opacity="0.7" />
        </linearGradient>
        <linearGradient id="paint4_linear_94_335" x1="39.6748" y1="13.8064" x2="39.6494" y2="-0.277215"
            gradientUnits="userSpaceOnUse">
            <stop offset="0.31" />
            <stop offset="1" stop-color="#999999" />
        </linearGradient>
        <linearGradient id="paint5_linear_94_335" x1="39.6748" y1="13.8063" x2="39.6494" y2="-0.277322"
            gradientUnits="userSpaceOnUse">
            <stop offset="0.31" />
            <stop offset="1" stop-color="#999999" />
        </linearGradient>
        <linearGradient id="paint6_linear_94_335" x1="39.6748" y1="13.8064" x2="39.6494" y2="-0.277182"
            gradientUnits="userSpaceOnUse">
            <stop offset="0.31" />
            <stop offset="1" stop-color="#999999" />
        </linearGradient>
        <linearGradient id="paint7_linear_94_335" x1="39.6747" y1="13.8064" x2="39.6494" y2="-0.277209"
            gradientUnits="userSpaceOnUse">
            <stop offset="0.31" />
            <stop offset="1" stop-color="#999999" />
        </linearGradient>
        <clipPath id="clip0_94_335">
            <rect width="67" height="17" fill="white" />
        </clipPath>
    </defs>
</svg>