<svg width="29" height="29" viewBox="0 0 29 29" fill="none" xmlns="http://www.w3.org/2000/svg">
<g id="nard-logo--small-gray">
<g id="Vector">
<path d="M24.3632 22.1687C24.7794 22.5228 24.8314 23.1491 24.4515 23.5418C22.4466 25.6143 19.8414 27.0201 16.991 27.5518C13.8168 28.1439 10.5354 27.6153 7.70766 26.0564C4.87992 24.4975 2.68128 22.005 1.48745 19.0048C0.293619 16.0046 0.178691 12.6829 1.16231 9.60739C1.19725 9.49387 1.23404 9.38096 1.27267 9.26869C1.45115 8.74996 2.04153 8.52635 2.54008 8.75521C2.87251 8.90782 3.20804 9.0632 3.54305 9.21456C4.04589 9.44176 4.28364 10.0353 4.10427 10.5571C3.33364 12.9522 3.42024 15.5407 4.34922 17.8789C5.2782 20.2171 6.99169 22.1593 9.19588 23.3725C11.4001 24.5857 13.9577 24.9942 16.4301 24.5281C18.5763 24.1235 20.5423 23.0817 22.0777 21.5498C22.4664 21.1619 23.0897 21.0985 23.5113 21.4505C23.7977 21.6897 24.082 21.9294 24.3632 22.1687Z" fill="url(#paint0_linear_1258_96)"/>
<path d="M24.3632 22.1687C24.7794 22.5228 24.8314 23.1491 24.4515 23.5418C22.4466 25.6143 19.8414 27.0201 16.991 27.5518C13.8168 28.1439 10.5354 27.6153 7.70766 26.0564C4.87992 24.4975 2.68128 22.005 1.48745 19.0048C0.293619 16.0046 0.178691 12.6829 1.16231 9.60739C1.19725 9.49387 1.23404 9.38096 1.27267 9.26869C1.45115 8.74996 2.04153 8.52635 2.54008 8.75521C2.87251 8.90782 3.20804 9.0632 3.54305 9.21456C4.04589 9.44176 4.28364 10.0353 4.10427 10.5571C3.33364 12.9522 3.42024 15.5407 4.34922 17.8789C5.2782 20.2171 6.99169 22.1593 9.19588 23.3725C11.4001 24.5857 13.9577 24.9942 16.4301 24.5281C18.5763 24.1235 20.5423 23.0817 22.0777 21.5498C22.4664 21.1619 23.0897 21.0985 23.5113 21.4505C23.7977 21.6897 24.082 21.9294 24.3632 22.1687Z" stroke="url(#paint1_linear_1258_96)"/>
<path d="M24.3632 22.1687C24.7794 22.5228 24.8314 23.1491 24.4515 23.5418C22.4466 25.6143 19.8414 27.0201 16.991 27.5518C13.8168 28.1439 10.5354 27.6153 7.70766 26.0564C4.87992 24.4975 2.68128 22.005 1.48745 19.0048C0.293619 16.0046 0.178691 12.6829 1.16231 9.60739C1.19725 9.49387 1.23404 9.38096 1.27267 9.26869C1.45115 8.74996 2.04153 8.52635 2.54008 8.75521C2.87251 8.90782 3.20804 9.0632 3.54305 9.21456C4.04589 9.44176 4.28364 10.0353 4.10427 10.5571C3.33364 12.9522 3.42024 15.5407 4.34922 17.8789C5.2782 20.2171 6.99169 22.1593 9.19588 23.3725C11.4001 24.5857 13.9577 24.9942 16.4301 24.5281C18.5763 24.1235 20.5423 23.0817 22.0777 21.5498C22.4664 21.1619 23.0897 21.0985 23.5113 21.4505C23.7977 21.6897 24.082 21.9294 24.3632 22.1687Z" stroke="url(#paint2_linear_1258_96)" stroke-opacity="0.2"/>
</g>
<path id="Vector_2" d="M27.8488 18.1339C27.7964 18.307 27.5851 18.3584 27.4454 18.2435C26.7634 17.683 26.0699 17.1362 25.3751 16.6081C25.2164 16.4875 25.1446 16.2848 25.1854 16.0898C25.6299 13.9643 25.425 11.7514 24.5931 9.74019C23.7193 7.62772 22.1988 5.84634 20.2497 4.65168C18.3007 3.45702 16.0233 2.9105 13.7443 3.09054C11.5719 3.26217 9.50447 4.08564 7.81105 5.4494C7.65911 5.57176 7.45124 5.60164 7.27419 5.51972C6.57201 5.19484 5.89356 4.87575 5.19863 4.56916C4.87755 4.4275 4.79185 4.00907 5.0478 3.76897C7.15437 1.79287 9.82867 0.51634 12.7027 0.12643C15.8178 -0.296185 18.9842 0.347672 21.6869 1.95326C24.3896 3.55885 26.4696 6.03169 27.5883 8.96952C28.7071 11.9074 28.7989 15.1373 27.8488 18.1339Z" fill="url(#paint3_linear_1258_96)"/>
<path id="n-Union" d="M16.5122 8.19324C18.4735 8.19324 19.7843 9.51458 19.7843 12.1365V14.7998C19.7843 15.7928 19.785 17.1749 19.8079 18.2776L20.9717 18.5159V19.548H19.8552C19.8556 19.555 19.8561 19.5619 19.8566 19.5688H16.0993C16.0993 19.5619 16.0993 19.555 16.0993 19.548H14.943V18.5159L16.1144 18.2579C16.1327 17.1576 16.1612 15.7882 16.1612 14.7998V12.3945C16.1612 10.9391 15.7999 10.4228 14.8915 10.4228C14.337 10.4959 13.8032 10.681 13.3223 10.9666C13.1938 11.043 13.07 11.1266 12.951 11.216V14.7482C12.951 15.7282 12.9514 17.1658 12.9724 18.2923L14.045 18.5159V19.548H8.06819V18.5159L9.27279 18.2508C9.29415 17.1347 9.32753 15.7394 9.32753 14.779V13.4681C9.32753 12.2191 9.32752 11.7441 9.25526 10.8357L7.87213 10.6293V9.73127L12.3521 8.19324L12.7342 8.44081L12.8776 10.1116C14.0846 8.69506 15.19 8.19324 16.5122 8.19324Z" fill="#DDDDDD"/>
</g>
<defs>
<linearGradient id="paint0_linear_1258_96" x1="12.9714" y1="12.1261" x2="12.2695" y2="36.7251" gradientUnits="userSpaceOnUse">
<stop stop-color="#333333" stop-opacity="0.8"/>
<stop offset="0.14" stop-color="#222222" stop-opacity="0.87"/>
<stop offset="0.36" stop-color="#0F0F0F" stop-opacity="0.94"/>
<stop offset="0.63" stop-color="#040404" stop-opacity="0.99"/>
<stop offset="1"/>
</linearGradient>
<linearGradient id="paint1_linear_1258_96" x1="11.0634" y1="23.962" x2="8.18016" y2="26.3647" gradientUnits="userSpaceOnUse">
<stop stop-opacity="0"/>
<stop offset="1" stop-color="#666666"/>
</linearGradient>
<linearGradient id="paint2_linear_1258_96" x1="21.6437" y1="25.4686" x2="21.1631" y2="22.5854" gradientUnits="userSpaceOnUse">
<stop stop-color="#00F7FB"/>
<stop offset="1" stop-opacity="0"/>
</linearGradient>
<linearGradient id="paint3_linear_1258_96" x1="4.50926" y1="9.20481" x2="28.5198" y2="9.20481" gradientUnits="userSpaceOnUse">
<stop offset="0.18" stop-color="#A4A4A4"/>
<stop offset="1" stop-color="#E3E3E3" stop-opacity="0.7"/>
</linearGradient>
</defs>
</svg>
