<svg width="16" height="16" viewBox="0 0 16 16" fill="none" xmlns="http://www.w3.org/2000/svg">
<g id="nard-logo--small-light">
<g id="Vector">
<path d="M13.5599 12.1202C13.9244 12.4268 13.9655 12.9704 13.6205 13.2987C12.5364 14.3303 11.1709 15.0313 9.68594 15.3076C7.9178 15.6365 6.09 15.3429 4.51487 14.4767C2.93974 13.6106 1.71503 12.2258 1.05004 10.5589C0.38504 8.89201 0.321022 7.04651 0.868922 5.33776C0.991232 4.94144 1.43848 4.77344 1.81544 4.94642C1.94201 5.0045 2.06907 5.06273 2.196 5.11993C2.47543 5.24585 2.60754 5.57563 2.50768 5.8654C2.07841 7.19609 2.12665 8.63429 2.64412 9.93339C3.16159 11.2325 4.11605 12.3116 5.34385 12.9856C6.57165 13.6596 7.99629 13.8866 9.37351 13.6276C10.4668 13.4221 11.4761 12.9204 12.2948 12.1852C12.6496 11.8666 13.1948 11.8132 13.5599 12.1202Z" fill="url(#paint0_linear_1252_357)"/>
<path d="M13.5599 12.1202C13.9244 12.4268 13.9655 12.9704 13.6205 13.2987C12.5364 14.3303 11.1709 15.0313 9.68594 15.3076C7.9178 15.6365 6.09 15.3429 4.51487 14.4767C2.93974 13.6106 1.71503 12.2258 1.05004 10.5589C0.38504 8.89201 0.321022 7.04651 0.868922 5.33776C0.991232 4.94144 1.43848 4.77344 1.81544 4.94642C1.94201 5.0045 2.06907 5.06273 2.196 5.11993C2.47543 5.24585 2.60754 5.57563 2.50768 5.8654C2.07841 7.19609 2.12665 8.63429 2.64412 9.93339C3.16159 11.2325 4.11605 12.3116 5.34385 12.9856C6.57165 13.6596 7.99629 13.8866 9.37351 13.6276C10.4668 13.4221 11.4761 12.9204 12.2948 12.1852C12.6496 11.8666 13.1948 11.8132 13.5599 12.1202Z" stroke="url(#paint1_linear_1252_357)"/>
<path d="M13.5599 12.1202C13.9244 12.4268 13.9655 12.9704 13.6205 13.2987C12.5364 14.3303 11.1709 15.0313 9.68594 15.3076C7.9178 15.6365 6.09 15.3429 4.51487 14.4767C2.93974 13.6106 1.71503 12.2258 1.05004 10.5589C0.38504 8.89201 0.321022 7.04651 0.868922 5.33776C0.991232 4.94144 1.43848 4.77344 1.81544 4.94642C1.94201 5.0045 2.06907 5.06273 2.196 5.11993C2.47543 5.24585 2.60754 5.57563 2.50768 5.8654C2.07841 7.19609 2.12665 8.63429 2.64412 9.93339C3.16159 11.2325 4.11605 12.3116 5.34385 12.9856C6.57165 13.6596 7.99629 13.8866 9.37351 13.6276C10.4668 13.4221 11.4761 12.9204 12.2948 12.1852C12.6496 11.8666 13.1948 11.8132 13.5599 12.1202Z" stroke="url(#paint2_linear_1252_357)" stroke-opacity="0.2"/>
</g>
<path id="Vector_2" d="M15.6465 10.0751C15.6173 10.1714 15.4998 10.2 15.422 10.1362C15.0802 9.85592 14.7331 9.58182 14.385 9.31593C14.2263 9.19476 14.155 8.99196 14.1912 8.79564C14.4007 7.65908 14.2776 6.48376 13.833 5.4116C13.3463 4.23792 12.4993 3.2482 11.4136 2.58445C10.328 1.9207 9.05938 1.61706 7.78994 1.71709C6.62691 1.80873 5.51794 2.2349 4.596 2.94056C4.44141 3.05888 4.23451 3.0893 4.05783 3.00755C3.81146 2.89356 3.56943 2.78103 3.32601 2.67091C3.00583 2.52606 2.92105 2.10626 3.18749 1.87713C4.32066 0.90265 5.71681 0.27226 7.20971 0.0702441C8.94491 -0.164559 10.7087 0.193165 12.2142 1.08522C13.7197 1.97728 14.8782 3.35118 15.5014 4.98342C16.1246 6.61567 16.1757 8.41021 15.6465 10.0751Z" fill="url(#paint3_linear_1252_357)"/>
<path id="n-Union" d="M9.41911 4.552C10.5116 4.552 11.2418 5.28613 11.2418 6.74288V8.22255C11.2418 8.77426 11.2421 9.54219 11.2549 10.1548L11.9032 10.2872V10.8607H11.2812C11.2815 10.8645 11.2818 10.8684 11.282 10.8722H9.18913C9.18913 10.8684 9.18913 10.8645 9.18913 10.8607H8.54504V10.2872L9.1975 10.1439C9.20771 9.53255 9.22361 8.77174 9.22361 8.22255V6.8862C9.2236 6.07756 9.02233 5.79076 8.51634 5.79076C8.20748 5.83137 7.91011 5.93419 7.64227 6.09289C7.57069 6.13531 7.50171 6.18175 7.43542 6.23144V8.19392C7.43542 8.73839 7.43564 9.53712 7.44737 10.163L8.04483 10.2872V10.8607H4.71556V10.2872L5.38656 10.1399C5.39846 9.51981 5.41705 8.7446 5.41705 8.21102V7.48271C5.41705 6.78875 5.41704 6.52484 5.37679 6.02014L4.60635 5.90545V5.40653L7.10181 4.552L7.31465 4.68955L7.39456 5.61782C8.0669 4.83081 8.68261 4.552 9.41911 4.552Z" fill="#1D1D1D"/>
</g>
<defs>
<linearGradient id="paint0_linear_1252_357" x1="7.44694" y1="6.73716" x2="7.05794" y2="20.4043" gradientUnits="userSpaceOnUse">
<stop stop-color="#333333" stop-opacity="0.8"/>
<stop offset="0.14" stop-color="#222222" stop-opacity="0.87"/>
<stop offset="0.36" stop-color="#0F0F0F" stop-opacity="0.94"/>
<stop offset="0.63" stop-color="#040404" stop-opacity="0.99"/>
<stop offset="1"/>
</linearGradient>
<linearGradient id="paint1_linear_1252_357" x1="6.3841" y1="13.3131" x2="4.78145" y2="14.6521" gradientUnits="userSpaceOnUse">
<stop stop-opacity="0"/>
<stop offset="1" stop-color="#666666"/>
</linearGradient>
<linearGradient id="paint2_linear_1252_357" x1="12.2776" y1="14.1502" x2="12.0113" y2="12.548" gradientUnits="userSpaceOnUse">
<stop stop-color="#00F7FB"/>
<stop offset="1" stop-opacity="0"/>
</linearGradient>
<linearGradient id="paint3_linear_1252_357" x1="2.64574" y1="5.11415" x2="16.0203" y2="5.11415" gradientUnits="userSpaceOnUse">
<stop offset="0.18" stop-color="#BA9BC9"/>
<stop offset="1" stop-color="#29ABE2" stop-opacity="0.7"/>
</linearGradient>
</defs>
</svg>
