<svg width="26" height="26" viewBox="0 0 26 26" fill="none" xmlns="http://www.w3.org/2000/svg">
<g id="nard-logo_s">
<g id="Vector">
<path d="M21.8314 19.4822C22.2561 19.8366 22.3091 20.4726 21.917 20.8628C20.1291 22.6427 17.8247 23.8504 15.3072 24.3119C12.4571 24.8344 9.51075 24.368 6.97173 22.9924C4.43271 21.6167 2.45856 19.4173 1.38663 16.7699C0.314691 14.1225 0.211498 11.1914 1.09468 8.4775C1.11592 8.40967 1.13793 8.34209 1.1607 8.27476C1.3348 7.75985 1.91938 7.5392 2.41473 7.76297C2.68938 7.88705 2.96613 8.01272 3.24246 8.13535C3.6868 8.33254 3.89676 8.85664 3.73625 9.31552C3.04431 11.429 3.12207 13.7132 3.9562 15.7764C4.79033 17.8397 6.32886 19.5535 8.30799 20.624C10.2871 21.6946 12.5836 22.0551 14.8036 21.6438C16.6998 21.2925 18.4393 20.3968 19.8079 19.0803C20.1989 18.7042 20.8127 18.6411 21.2318 18.9856C21.4331 19.1511 21.6331 19.3167 21.8314 19.4822Z" fill="url(#paint0_linear_1281_930)"/>
<path d="M21.8314 19.4822C22.2561 19.8366 22.3091 20.4726 21.917 20.8628C20.1291 22.6427 17.8247 23.8504 15.3072 24.3119C12.4571 24.8344 9.51075 24.368 6.97173 22.9924C4.43271 21.6167 2.45856 19.4173 1.38663 16.7699C0.314691 14.1225 0.211498 11.1914 1.09468 8.4775C1.11592 8.40967 1.13793 8.34209 1.1607 8.27476C1.3348 7.75985 1.91938 7.5392 2.41473 7.76297C2.68938 7.88705 2.96613 8.01272 3.24246 8.13535C3.6868 8.33254 3.89676 8.85664 3.73625 9.31552C3.04431 11.429 3.12207 13.7132 3.9562 15.7764C4.79033 17.8397 6.32886 19.5535 8.30799 20.624C10.2871 21.6946 12.5836 22.0551 14.8036 21.6438C16.6998 21.2925 18.4393 20.3968 19.8079 19.0803C20.1989 18.7042 20.8127 18.6411 21.2318 18.9856C21.4331 19.1511 21.6331 19.3167 21.8314 19.4822Z" stroke="url(#paint1_linear_1281_930)"/>
<path d="M21.8314 19.4822C22.2561 19.8366 22.3091 20.4726 21.917 20.8628C20.1291 22.6427 17.8247 23.8504 15.3072 24.3119C12.4571 24.8344 9.51075 24.368 6.97173 22.9924C4.43271 21.6167 2.45856 19.4173 1.38663 16.7699C0.314691 14.1225 0.211498 11.1914 1.09468 8.4775C1.11592 8.40967 1.13793 8.34209 1.1607 8.27476C1.3348 7.75985 1.91938 7.5392 2.41473 7.76297C2.68938 7.88705 2.96613 8.01272 3.24246 8.13535C3.6868 8.33254 3.89676 8.85664 3.73625 9.31552C3.04431 11.429 3.12207 13.7132 3.9562 15.7764C4.79033 17.8397 6.32886 19.5535 8.30799 20.624C10.2871 21.6946 12.5836 22.0551 14.8036 21.6438C16.6998 21.2925 18.4393 20.3968 19.8079 19.0803C20.1989 18.7042 20.8127 18.6411 21.2318 18.9856C21.4331 19.1511 21.6331 19.3167 21.8314 19.4822Z" stroke="url(#paint2_linear_1281_930)" stroke-opacity="0.2"/>
</g>
<path id="Vector_2" d="M24.9155 16.0017C24.8681 16.1554 24.6805 16.2012 24.5554 16.1001C23.9528 15.6133 23.3401 15.1382 22.7262 14.6791C22.5648 14.5584 22.4918 14.3533 22.5328 14.156C22.9204 12.2933 22.7336 10.3564 21.9922 8.5949C21.2076 6.73082 19.8424 5.1589 18.0923 4.10471C16.3423 3.05053 14.2974 2.56827 12.2511 2.72714C10.3103 2.87782 8.46292 3.59791 6.94671 4.79045C6.79553 4.90936 6.59098 4.93864 6.4159 4.85899C5.82169 4.58869 5.246 4.32301 4.65854 4.06691C4.33392 3.92541 4.24801 3.50206 4.51013 3.26396C6.39107 1.55543 8.76591 0.451542 11.3159 0.111564C14.1129 -0.261358 16.956 0.306791 19.3828 1.72359C21.8095 3.14038 23.6771 5.32246 24.6816 7.91485C25.6861 10.5072 25.7686 13.3574 24.9155 16.0017Z" fill="url(#paint3_linear_1281_930)"/>
<path id="n-Union" d="M14.877 7.22998C16.6381 7.22998 17.815 8.39595 17.815 10.7096V13.0597C17.815 13.9359 17.8156 15.1556 17.8362 16.1286L18.8812 16.3388V17.2496H17.8787C17.8791 17.2558 17.8795 17.2619 17.8799 17.2679H14.5063C14.5063 17.2619 14.5063 17.2558 14.5063 17.2496H13.4681V16.3388L14.5198 16.1112C14.5363 15.1403 14.5619 13.9319 14.5619 13.0597V10.9372C14.5619 9.65293 14.2374 9.19741 13.4218 9.19741C12.9239 9.26191 12.4446 9.42522 12.0129 9.67728C11.8975 9.74464 11.7863 9.8184 11.6794 9.89732V13.0142C11.6794 13.8789 11.6798 15.1475 11.6987 16.1415L12.6618 16.3388V17.2496H7.29518V16.3388L8.37678 16.1049C8.39597 15.12 8.42593 13.8888 8.42593 13.0414V11.8846C8.42593 10.7825 8.42592 10.3633 8.36104 9.56173L7.11914 9.37957V8.58717L11.1417 7.22998L11.4848 7.44844L11.6136 8.92276C12.6973 7.6728 13.6898 7.22998 14.877 7.22998Z" fill="#060606"/>
</g>
<defs>
<linearGradient id="paint0_linear_1281_930" x1="11.698" y1="10.7001" x2="11.0893" y2="32.4072" gradientUnits="userSpaceOnUse">
<stop stop-color="#333333" stop-opacity="0.8"/>
<stop offset="0.14" stop-color="#222222" stop-opacity="0.87"/>
<stop offset="0.36" stop-color="#0F0F0F" stop-opacity="0.94"/>
<stop offset="0.63" stop-color="#040404" stop-opacity="0.99"/>
<stop offset="1"/>
</linearGradient>
<linearGradient id="paint1_linear_1281_930" x1="9.98482" y1="21.1442" x2="7.433" y2="23.3081" gradientUnits="userSpaceOnUse">
<stop stop-opacity="0"/>
<stop offset="1" stop-color="#666666"/>
</linearGradient>
<linearGradient id="paint2_linear_1281_930" x1="19.4848" y1="22.4737" x2="19.0677" y2="19.9271" gradientUnits="userSpaceOnUse">
<stop stop-color="#00F7FB"/>
<stop offset="1" stop-opacity="0"/>
</linearGradient>
<linearGradient id="paint3_linear_1281_930" x1="3.959" y1="8.12247" x2="25.5179" y2="8.12247" gradientUnits="userSpaceOnUse">
<stop offset="0.18" stop-color="#BA9BC9"/>
<stop offset="1" stop-color="#29ABE2" stop-opacity="0.7"/>
</linearGradient>
</defs>
</svg>
