<svg width="1049" height="1047" viewBox="0 0 1049 1047" fill="none" xmlns="http://www.w3.org/2000/svg">
<g opacity="0.18">
<path d="M915.787 848.6C922.212 854.12 922.998 863.798 917.367 870.125C840.147 956.894 736.187 1015.69 621.72 1037.05C502.242 1059.33 378.732 1039.44 272.296 980.76C165.86 922.083 83.1033 828.265 38.1676 715.338C-6.76817 602.411 -11.0941 477.384 25.9291 361.621C29.396 350.359 33.347 339.254 37.7707 328.337C40.964 320.456 50.0766 316.965 57.8299 320.456C83.3564 331.949 109.692 344.469 135.636 355.765C143.629 359.245 147.309 368.567 144.155 376.694C141.561 383.379 139.113 390.246 136.664 397.367C107.658 487.518 110.918 584.951 145.884 672.961C180.851 760.971 245.347 834.075 328.313 879.739C411.278 925.402 507.546 940.78 600.609 923.236C688.625 906.643 768.589 861.579 828.307 795.206C834.001 788.877 843.686 787.934 850.247 793.357C872.463 811.719 894.412 830.237 915.787 848.6Z" fill="url(#paint0_linear_1235_385)" stroke="#D7D7D7"/>
<path d="M454.457 5.25391C571.597 -10.6381 690.669 13.5737 792.301 73.9502C893.934 134.327 972.146 227.316 1014.22 337.79C1056.29 448.264 1059.74 569.723 1024.01 682.408L1024.01 682.414C1022.15 688.544 1014.64 690.423 1009.62 686.298C982.609 664.096 955.115 642.463 927.589 621.625C924.253 619.099 922.732 614.837 923.642 610.744C941.792 529.114 934.413 443.81 902.406 366.429C869.477 286.818 812.174 219.684 738.721 174.662C665.269 129.64 579.443 109.044 493.558 115.829C410.018 122.429 330.599 154.605 266.07 207.893C262.905 210.506 258.53 211.123 254.813 209.407C223.247 194.833 193.054 180.54 161.701 166.961C154.927 164.027 153.138 155.246 158.388 150.103C238.808 71.3097 342.611 20.4277 454.457 5.25391Z" fill="url(#paint1_linear_1235_385)" stroke="#D7D7D7"/>
<path d="M603.699 308.891C640.493 308.891 671.137 321.281 692.59 345.923C714.05 370.574 726.367 407.548 726.367 456.815V557.06L726.369 571.713C726.381 607.279 726.476 651.657 727.231 687.979L727.24 688.378L727.631 688.458L771.05 697.344V735.29H728.999L729.035 735.824C729.041 735.905 729.046 735.986 729.052 736.067H588.658V735.29H545.14V697.337L588.83 687.726L589.216 687.641L589.223 687.246C589.913 645.832 590.988 594.275 590.988 557.06V466.528L590.979 463.984C590.772 437.961 587.35 420.07 579.833 408.604C572.036 396.711 559.896 391.816 542.697 391.816H542.664L542.632 391.82C521.692 394.581 501.531 401.568 483.372 412.355C478.521 415.237 473.842 418.377 469.35 421.752L469.15 421.901V555.117C469.15 592 469.151 646.117 469.944 688.522L469.952 688.921L470.342 689.002L510.337 697.342V735.29H286.369V697.337L331.302 687.452L331.687 687.367L331.694 686.974C332.498 644.967 333.771 592.44 333.771 556.282V506.938C333.771 459.924 333.771 442.032 331.05 407.818L331.019 407.423L330.626 407.364L278.986 399.657V366.641L447.046 308.942L461.014 318.003L466.405 380.648L466.508 381.841L467.284 380.93C489.971 354.305 511.678 336.3 533.902 324.949C556.122 313.601 578.884 308.891 603.699 308.891Z" fill="url(#paint2_linear_1235_385)" stroke="#D7D7D7"/>
</g>
<defs>
<linearGradient id="paint0_linear_1235_385" x1="-22.866" y1="368.087" x2="381.498" y2="873.828" gradientUnits="userSpaceOnUse">
<stop stop-color="#D1BF5C"/>
<stop offset="1" stop-color="#1E1E1E" stop-opacity="0.9"/>
</linearGradient>
<linearGradient id="paint1_linear_1235_385" x1="123.522" y1="51.1925" x2="505.622" y2="540.971" gradientUnits="userSpaceOnUse">
<stop stop-color="#D1BF5C"/>
<stop offset="1" stop-color="#1E1E1E" stop-opacity="0.9"/>
</linearGradient>
<linearGradient id="paint2_linear_1235_385" x1="265.783" y1="339.912" x2="506.345" y2="613.585" gradientUnits="userSpaceOnUse">
<stop stop-color="#D1BF5C"/>
<stop offset="1" stop-color="#1E1E1E" stop-opacity="0.9"/>
</linearGradient>
</defs>
</svg>
