<svg width="514" height="513" viewBox="0 0 514 513" fill="none" xmlns="http://www.w3.org/2000/svg">
<mask id="mask0_1235_278" style="mask-type:alpha" maskUnits="userSpaceOnUse" x="52" y="48" width="426" height="425">
<path d="M468.06 324.801C467.59 326.354 467.045 327.882 466.428 329.382C466.301 329.692 465.91 329.786 465.653 329.572C452.824 318.922 439.696 308.577 426.566 298.685C426.407 298.565 426.334 298.362 426.381 298.168C434.463 264.34 431.659 228.821 418.363 196.677C405.026 164.431 381.816 137.24 352.066 119.004C322.315 100.769 287.552 92.4266 252.765 95.1748C218.085 97.9146 185.159 111.537 158.682 134.093C158.534 134.22 158.325 134.249 158.148 134.167C142.723 127.069 128.195 120.123 112.785 113.627C112.462 113.491 112.375 113.072 112.619 112.82C145.793 78.5051 189.556 56.3481 236.865 49.9299C284.415 43.479 332.749 53.307 374.003 77.8151C415.258 102.323 447.006 140.069 464.084 184.913C481.161 229.757 482.562 279.06 468.06 324.801Z" fill="#2D2D2F"/>
<path d="M427.922 395.535C428.336 395.893 428.385 396.516 428.032 396.933C396.401 434.277 352.852 459.58 304.723 468.558C256.27 477.596 206.183 469.528 163.02 445.732C119.856 421.936 86.2956 383.89 68.0727 338.094C49.8497 292.298 48.0955 241.596 63.1096 194.65C65.0291 188.414 67.3146 182.297 69.9542 176.331C70.1762 175.829 70.7619 175.603 71.2639 175.825C84.7095 181.747 98.851 188.632 112.585 194.411C113.104 194.629 113.341 195.23 113.116 195.746C111.246 200.024 109.631 204.448 108.016 209.146C96.2534 245.705 97.5753 285.218 111.756 320.909C125.936 356.6 152.091 386.246 185.736 404.764C219.382 423.282 258.421 429.518 296.161 422.404C333.576 415.35 367.403 395.61 391.946 366.53C392.3 366.11 392.927 366.05 393.351 366.398C405.118 376.065 416.734 385.869 427.922 395.535Z" fill="url(#paint0_linear_1235_278)" shape-rendering="crispEdges"/>
<path d="M427.922 395.535C428.336 395.893 428.385 396.516 428.032 396.933C396.401 434.277 352.852 459.58 304.723 468.558C256.27 477.596 206.183 469.528 163.02 445.732C119.856 421.936 86.2956 383.89 68.0727 338.094C49.8497 292.298 48.0955 241.596 63.1096 194.65C65.0291 188.414 67.3146 182.297 69.9542 176.331C70.1762 175.829 70.7619 175.603 71.2639 175.825C84.7095 181.747 98.851 188.632 112.585 194.411C113.104 194.629 113.341 195.23 113.116 195.746C111.246 200.024 109.631 204.448 108.016 209.146C96.2534 245.705 97.5753 285.218 111.756 320.909C125.936 356.6 152.091 386.246 185.736 404.764C219.382 423.282 258.421 429.518 296.161 422.404C333.576 415.35 367.403 395.61 391.946 366.53C392.3 366.11 392.927 366.05 393.351 366.398C405.118 376.065 416.734 385.869 427.922 395.535Z" stroke="url(#paint1_linear_1235_278)" shape-rendering="crispEdges"/>
<path d="M427.922 395.535C428.336 395.893 428.385 396.516 428.032 396.933C396.401 434.277 352.852 459.58 304.723 468.558C256.27 477.596 206.183 469.528 163.02 445.732C119.856 421.936 86.2956 383.89 68.0727 338.094C49.8497 292.298 48.0955 241.596 63.1096 194.65C65.0291 188.414 67.3146 182.297 69.9542 176.331C70.1762 175.829 70.7619 175.603 71.2639 175.825C84.7095 181.747 98.851 188.632 112.585 194.411C113.104 194.629 113.341 195.23 113.116 195.746C111.246 200.024 109.631 204.448 108.016 209.146C96.2534 245.705 97.5753 285.218 111.756 320.909C125.936 356.6 152.091 386.246 185.736 404.764C219.382 423.282 258.421 429.518 296.161 422.404C333.576 415.35 367.403 395.61 391.946 366.53C392.3 366.11 392.927 366.05 393.351 366.398C405.118 376.065 416.734 385.869 427.922 395.535Z" stroke="url(#paint2_linear_1235_278)" stroke-opacity="0.2" shape-rendering="crispEdges"/>
<path d="M297.414 173.063C327.352 173.064 347.363 193.232 347.363 233.254V273.906C347.363 289.064 347.364 310.163 347.714 326.994L365.483 330.631V346.388H348.445C348.453 346.494 348.458 346.599 348.466 346.703H291.111C291.111 346.599 291.112 346.494 291.112 346.388H273.464V330.631L291.343 326.697C291.623 309.901 292.057 288.996 292.057 273.906V237.193C292.057 214.976 286.542 207.098 272.676 207.098C264.211 208.213 256.061 211.038 248.721 215.398C246.76 216.563 244.869 217.832 243.053 219.196V273.119C243.053 288.077 243.054 310.02 243.376 327.215L259.755 330.631V346.388H168.523V330.631L186.906 326.586C187.232 309.549 187.747 288.252 187.747 273.592V253.58C187.747 234.515 187.747 227.266 186.644 213.4L165.529 210.249V196.541L233.914 173.063L239.744 176.845L241.938 202.349C260.363 180.726 277.232 173.063 297.414 173.063Z" fill="#232326"/>
</mask>
<g mask="url(#mask0_1235_278)">
<g filter="url(#filter0_d_1235_278)">
<path d="M427.922 395.535C428.336 395.893 428.385 396.516 428.032 396.933C396.401 434.277 352.852 459.58 304.723 468.558C256.27 477.596 206.183 469.528 163.02 445.732C119.856 421.936 86.2956 383.89 68.0727 338.094C49.8497 292.298 48.0955 241.596 63.1096 194.65C65.0291 188.414 67.3146 182.297 69.9542 176.331C70.1762 175.829 70.7619 175.603 71.2639 175.825C84.7095 181.747 98.851 188.632 112.585 194.411C113.104 194.629 113.341 195.23 113.116 195.746C111.246 200.024 109.631 204.448 108.016 209.146C96.2534 245.705 97.5753 285.218 111.756 320.909C125.936 356.6 152.091 386.246 185.736 404.764C219.382 423.282 258.421 429.518 296.161 422.404C333.576 415.35 367.403 395.61 391.946 366.53C392.3 366.11 392.927 366.05 393.351 366.398C405.118 376.065 416.734 385.869 427.922 395.535Z" fill="url(#paint3_linear_1235_278)" shape-rendering="crispEdges"/>
<path d="M427.922 395.535C428.336 395.893 428.385 396.516 428.032 396.933C396.401 434.277 352.852 459.58 304.723 468.558C256.27 477.596 206.183 469.528 163.02 445.732C119.856 421.936 86.2956 383.89 68.0727 338.094C49.8497 292.298 48.0955 241.596 63.1096 194.65C65.0291 188.414 67.3146 182.297 69.9542 176.331C70.1762 175.829 70.7619 175.603 71.2639 175.825C84.7095 181.747 98.851 188.632 112.585 194.411C113.104 194.629 113.341 195.23 113.116 195.746C111.246 200.024 109.631 204.448 108.016 209.146C96.2534 245.705 97.5753 285.218 111.756 320.909C125.936 356.6 152.091 386.246 185.736 404.764C219.382 423.282 258.421 429.518 296.161 422.404C333.576 415.35 367.403 395.61 391.946 366.53C392.3 366.11 392.927 366.05 393.351 366.398C405.118 376.065 416.734 385.869 427.922 395.535Z" stroke="url(#paint4_linear_1235_278)" shape-rendering="crispEdges"/>
<path d="M427.922 395.535C428.336 395.893 428.385 396.516 428.032 396.933C396.401 434.277 352.852 459.58 304.723 468.558C256.27 477.596 206.183 469.528 163.02 445.732C119.856 421.936 86.2956 383.89 68.0727 338.094C49.8497 292.298 48.0955 241.596 63.1096 194.65C65.0291 188.414 67.3146 182.297 69.9542 176.331C70.1762 175.829 70.7619 175.603 71.2639 175.825C84.7095 181.747 98.851 188.632 112.585 194.411C113.104 194.629 113.341 195.23 113.116 195.746C111.246 200.024 109.631 204.448 108.016 209.146C96.2534 245.705 97.5753 285.218 111.756 320.909C125.936 356.6 152.091 386.246 185.736 404.764C219.382 423.282 258.421 429.518 296.161 422.404C333.576 415.35 367.403 395.61 391.946 366.53C392.3 366.11 392.927 366.05 393.351 366.398C405.118 376.065 416.734 385.869 427.922 395.535Z" stroke="url(#paint5_linear_1235_278)" stroke-opacity="0.2" shape-rendering="crispEdges"/>
</g>
<g filter="url(#filter1_d_1235_278)">
<path d="M468.06 324.801C467.59 326.354 467.045 327.882 466.428 329.382C466.301 329.692 465.91 329.786 465.653 329.572C452.824 318.922 439.696 308.577 426.566 298.685C426.407 298.565 426.334 298.362 426.381 298.168C434.463 264.34 431.659 228.821 418.363 196.677C405.026 164.431 381.816 137.24 352.066 119.004C322.315 100.769 287.552 92.4266 252.765 95.1748C218.085 97.9146 185.159 111.537 158.682 134.093C158.534 134.22 158.325 134.249 158.148 134.167C142.723 127.069 128.195 120.123 112.785 113.627C112.462 113.491 112.375 113.072 112.619 112.82C145.793 78.5051 189.556 56.3481 236.865 49.9299C284.415 43.479 332.749 53.307 374.003 77.8151C415.258 102.323 447.006 140.069 464.084 184.913C481.161 229.757 482.562 279.06 468.06 324.801Z" fill="#2D2D2F"/>
</g>
<path d="M297.414 173.064C327.352 173.064 347.363 193.232 347.364 233.254V273.907C347.364 289.064 347.364 310.163 347.714 326.994L365.484 330.631V346.388H348.446C348.453 346.494 348.459 346.599 348.466 346.703H291.112C291.112 346.599 291.112 346.494 291.113 346.388H273.464V330.631L291.343 326.698C291.623 309.901 292.057 288.996 292.057 273.907V237.194C292.057 214.977 286.542 207.098 272.676 207.098C264.211 208.214 256.061 211.038 248.721 215.399C246.76 216.563 244.869 217.832 243.053 219.197V273.119C243.053 288.077 243.055 310.021 243.376 327.215L259.755 330.631V346.388H168.524V330.631L186.906 326.586C187.233 309.549 187.747 288.252 187.747 273.592V253.58C187.747 234.515 187.747 227.266 186.644 213.401L165.53 210.249V196.541L233.914 173.064L239.744 176.845L241.939 202.349C260.363 180.727 277.232 173.064 297.414 173.064Z" fill="#232326"/>
<mask id="mask1_1235_278" style="mask-type:alpha" maskUnits="userSpaceOnUse" x="52" y="48" width="427" height="425">
<path d="M427.923 395.535C428.336 395.893 428.385 396.516 428.032 396.933C396.401 434.277 352.853 459.58 304.723 468.558C256.271 477.596 206.184 469.528 163.02 445.732C119.857 421.936 86.2961 383.89 68.0732 338.094C49.8502 292.298 48.0959 241.596 63.1101 194.65C65.0296 188.414 67.3151 182.297 69.9547 176.331C70.1767 175.829 70.7624 175.604 71.2644 175.825C84.71 181.747 98.8515 188.632 112.586 194.411C113.104 194.629 113.342 195.23 113.116 195.746C111.247 200.024 109.632 204.448 108.017 209.146C96.2539 245.705 97.5758 285.218 111.756 320.909C125.936 356.6 152.091 386.246 185.737 404.764C219.382 423.282 258.422 429.518 296.162 422.404C333.577 415.35 367.403 395.61 391.946 366.53C392.301 366.11 392.927 366.05 393.351 366.398C405.118 376.065 416.734 385.869 427.923 395.535Z" fill="url(#paint6_linear_1235_278)" shape-rendering="crispEdges"/>
<path d="M427.923 395.535C428.336 395.893 428.385 396.516 428.032 396.933C396.401 434.277 352.853 459.58 304.723 468.558C256.271 477.596 206.184 469.528 163.02 445.732C119.857 421.936 86.2961 383.89 68.0732 338.094C49.8502 292.298 48.0959 241.596 63.1101 194.65C65.0296 188.414 67.3151 182.297 69.9547 176.331C70.1767 175.829 70.7624 175.604 71.2644 175.825C84.71 181.747 98.8515 188.632 112.586 194.411C113.104 194.629 113.342 195.23 113.116 195.746C111.247 200.024 109.632 204.448 108.017 209.146C96.2539 245.705 97.5758 285.218 111.756 320.909C125.936 356.6 152.091 386.246 185.737 404.764C219.382 423.282 258.422 429.518 296.162 422.404C333.577 415.35 367.403 395.61 391.946 366.53C392.301 366.11 392.927 366.05 393.351 366.398C405.118 376.065 416.734 385.869 427.923 395.535Z" stroke="url(#paint7_linear_1235_278)" shape-rendering="crispEdges"/>
<path d="M427.923 395.535C428.336 395.893 428.385 396.516 428.032 396.933C396.401 434.277 352.853 459.58 304.723 468.558C256.271 477.596 206.184 469.528 163.02 445.732C119.857 421.936 86.2961 383.89 68.0732 338.094C49.8502 292.298 48.0959 241.596 63.1101 194.65C65.0296 188.414 67.3151 182.297 69.9547 176.331C70.1767 175.829 70.7624 175.604 71.2644 175.825C84.71 181.747 98.8515 188.632 112.586 194.411C113.104 194.629 113.342 195.23 113.116 195.746C111.247 200.024 109.632 204.448 108.017 209.146C96.2539 245.705 97.5758 285.218 111.756 320.909C125.936 356.6 152.091 386.246 185.737 404.764C219.382 423.282 258.422 429.518 296.162 422.404C333.577 415.35 367.403 395.61 391.946 366.53C392.301 366.11 392.927 366.05 393.351 366.398C405.118 376.065 416.734 385.869 427.923 395.535Z" stroke="url(#paint8_linear_1235_278)" stroke-opacity="0.2" shape-rendering="crispEdges"/>
<path d="M468.06 324.801C467.59 326.354 467.046 327.882 466.429 329.382C466.301 329.692 465.911 329.786 465.653 329.572C452.824 318.922 439.696 308.577 426.567 298.685C426.408 298.565 426.335 298.362 426.381 298.168C434.464 264.34 431.66 228.821 418.364 196.677C405.026 164.432 381.817 137.24 352.066 119.004C322.315 100.769 287.552 92.4267 252.766 95.1749C218.086 97.9146 185.16 111.537 158.683 134.093C158.534 134.22 158.325 134.249 158.148 134.167C142.724 127.069 128.196 120.123 112.786 113.627C112.463 113.491 112.376 113.072 112.62 112.82C145.793 78.5051 189.557 56.3481 236.866 49.9299C284.416 43.479 332.749 53.307 374.004 77.8151C415.258 102.323 447.007 140.069 464.084 184.913C481.161 229.757 482.563 279.06 468.06 324.801Z" fill="#2D2D2F"/>
</mask>
<g mask="url(#mask1_1235_278)">
<g style="mix-blend-mode:color-dodge" filter="url(#filter2_f_1235_278)">
<path d="M38.2608 233.02L62.1734 250.634C63.4709 251.59 65.2916 251.35 66.2971 250.091L140.825 156.746C141.189 156.29 141.412 155.738 141.467 155.157L149.833 66.7603C150.099 63.9542 146.699 62.3638 144.715 64.3665L43.7976 166.264C43.352 166.714 43.0602 167.294 42.964 167.919L39.2822 191.856L37.0451 230.431C36.9864 231.444 37.4438 232.418 38.2608 233.02Z" fill="#D9D9D9"/>
</g>
</g>
<g filter="url(#filter3_f_1235_278)">
<path d="M99.4997 71.4897C51.4394 78.0416 4.24685 190.212 26.3578 227.935C48.4687 265.659 227.426 265.986 248.327 218.428C269.227 170.869 147.56 64.9379 99.4997 71.4897Z" fill="#59C0F7" fill-opacity="0.63"/>
</g>
</g>
<mask id="mask2_1235_278" style="mask-type:alpha" maskUnits="userSpaceOnUse" x="165" y="173" width="201" height="174">
<path d="M297.414 173.063C327.352 173.064 347.363 193.232 347.363 233.254V273.906C347.363 289.064 347.364 310.163 347.714 326.994L365.483 330.631V346.388H348.445C348.453 346.494 348.458 346.599 348.466 346.703H291.111C291.111 346.599 291.112 346.494 291.112 346.388H273.464V330.631L291.343 326.697C291.623 309.901 292.057 288.996 292.057 273.906V237.193C292.057 214.976 286.542 207.098 272.676 207.098C264.211 208.213 256.061 211.038 248.721 215.398C246.76 216.563 244.869 217.832 243.053 219.196V273.119C243.053 288.077 243.054 310.02 243.376 327.215L259.755 330.631V346.388H168.523V330.631L186.906 326.586C187.232 309.549 187.747 288.252 187.747 273.592V253.58C187.747 234.515 187.747 227.266 186.644 213.4L165.529 210.249V196.541L233.914 173.063L239.744 176.845L241.938 202.349C260.363 180.726 277.232 173.063 297.414 173.063Z" fill="#232326"/>
</mask>
<g mask="url(#mask2_1235_278)">
<g filter="url(#filter4_f_1235_278)">
<path d="M140.803 202.043L161.867 213.457C162.632 213.871 163.541 213.933 164.355 213.626L230.568 188.639C231.498 188.288 232.194 187.5 232.426 186.533L240.086 154.661C240.618 152.45 238.591 150.474 236.394 151.062L146.56 175.094C145.632 175.342 144.879 176.02 144.535 176.917L141.546 184.706C141.47 184.905 141.415 185.111 141.383 185.321L139.267 198.945C139.073 200.198 139.687 201.439 140.803 202.043Z" fill="#D9D9D9"/>
</g>
<g filter="url(#filter5_dd_1235_278)">
<path d="M297.414 173.063C327.352 173.064 347.363 193.232 347.363 233.254V273.906C347.363 289.064 347.364 310.163 347.714 326.994L365.483 330.631V346.388H348.445C348.453 346.494 348.458 346.599 348.466 346.703H291.111C291.111 346.599 291.112 346.494 291.112 346.388H273.464V330.631L291.343 326.697C291.623 309.901 292.057 288.996 292.057 273.906V237.193C292.057 214.976 286.542 207.098 272.676 207.098C264.211 208.213 256.061 211.038 248.721 215.398C246.76 216.563 244.869 217.832 243.053 219.196V273.119C243.053 288.077 243.054 310.02 243.376 327.215L259.755 330.631V346.388H168.523V330.631L186.906 326.586C187.232 309.549 187.747 288.252 187.747 273.592V253.58C187.747 234.515 187.747 227.266 186.644 213.4L165.529 210.249V196.541L233.914 173.063L239.744 176.845L241.938 202.349C260.363 180.726 277.232 173.063 297.414 173.063Z" fill="#232326" fill-opacity="0.04" shape-rendering="crispEdges"/>
</g>
</g>
<defs>
<filter id="filter0_d_1235_278" x="0.799999" y="128.04" width="463.667" height="384.825" filterUnits="userSpaceOnUse" color-interpolation-filters="sRGB">
<feFlood flood-opacity="0" result="BackgroundImageFix"/>
<feColorMatrix in="SourceAlpha" type="matrix" values="0 0 0 0 0 0 0 0 0 0 0 0 0 0 0 0 0 0 127 0" result="hardAlpha"/>
<feOffset dx="-8" dy="-3.5"/>
<feGaussianBlur stdDeviation="21.85"/>
<feComposite in2="hardAlpha" operator="out"/>
<feColorMatrix type="matrix" values="0 0 0 0 0 0 0 0 0 0 0 0 0 0 0 0 0 0 1 0"/>
<feBlend mode="normal" in2="BackgroundImageFix" result="effect1_dropShadow_1235_278"/>
<feBlend mode="normal" in="SourceGraphic" in2="effect1_dropShadow_1235_278" result="shape"/>
</filter>
<filter id="filter1_d_1235_278" x="60.7792" y="0.799999" width="452.921" height="369.088" filterUnits="userSpaceOnUse" color-interpolation-filters="sRGB">
<feFlood flood-opacity="0" result="BackgroundImageFix"/>
<feColorMatrix in="SourceAlpha" type="matrix" values="0 0 0 0 0 0 0 0 0 0 0 0 0 0 0 0 0 0 127 0" result="hardAlpha"/>
<feOffset dx="-8" dy="-3.5"/>
<feGaussianBlur stdDeviation="21.85"/>
<feComposite in2="hardAlpha" operator="out"/>
<feColorMatrix type="matrix" values="0 0 0 0 0 0 0 0 0 0 0 0 0 0 0 0 0 0 1 0"/>
<feBlend mode="normal" in2="BackgroundImageFix" result="effect1_dropShadow_1235_278"/>
<feBlend mode="normal" in="SourceGraphic" in2="effect1_dropShadow_1235_278" result="shape"/>
</filter>
<filter id="filter2_f_1235_278" x="11.14" y="37.5691" width="164.608" height="239.55" filterUnits="userSpaceOnUse" color-interpolation-filters="sRGB">
<feFlood flood-opacity="0" result="BackgroundImageFix"/>
<feBlend mode="normal" in="SourceGraphic" in2="BackgroundImageFix" result="shape"/>
<feGaussianBlur stdDeviation="12.95" result="effect1_foregroundBlur_1235_278"/>
</filter>
<filter id="filter3_f_1235_278" x="-50.25" y="0.199127" width="371.968" height="326.056" filterUnits="userSpaceOnUse" color-interpolation-filters="sRGB">
<feFlood flood-opacity="0" result="BackgroundImageFix"/>
<feBlend mode="normal" in="SourceGraphic" in2="BackgroundImageFix" result="shape"/>
<feGaussianBlur stdDeviation="35.5" result="effect1_foregroundBlur_1235_278"/>
</filter>
<filter id="filter4_f_1235_278" x="113.332" y="125.057" width="152.74" height="114.662" filterUnits="userSpaceOnUse" color-interpolation-filters="sRGB">
<feFlood flood-opacity="0" result="BackgroundImageFix"/>
<feBlend mode="normal" in="SourceGraphic" in2="BackgroundImageFix" result="shape"/>
<feGaussianBlur stdDeviation="12.95" result="effect1_foregroundBlur_1235_278"/>
</filter>
<filter id="filter5_dd_1235_278" x="144.529" y="159.563" width="241.954" height="234.24" filterUnits="userSpaceOnUse" color-interpolation-filters="sRGB">
<feFlood flood-opacity="0" result="BackgroundImageFix"/>
<feColorMatrix in="SourceAlpha" type="matrix" values="0 0 0 0 0 0 0 0 0 0 0 0 0 0 0 0 0 0 127 0" result="hardAlpha"/>
<feOffset dy="7.5"/>
<feGaussianBlur stdDeviation="10.5"/>
<feComposite in2="hardAlpha" operator="out"/>
<feColorMatrix type="matrix" values="0 0 0 0 0 0 0 0 0 0 0 0 0 0 0 0 0 0 1 0"/>
<feBlend mode="normal" in2="BackgroundImageFix" result="effect1_dropShadow_1235_278"/>
<feColorMatrix in="SourceAlpha" type="matrix" values="0 0 0 0 0 0 0 0 0 0 0 0 0 0 0 0 0 0 127 0" result="hardAlpha"/>
<feOffset dy="27"/>
<feGaussianBlur stdDeviation="10.05"/>
<feComposite in2="hardAlpha" operator="out"/>
<feColorMatrix type="matrix" values="0 0 0 0 0 0 0 0 0 0 0 0 0 0 0 0 0 0 0.14 0"/>
<feBlend mode="normal" in2="effect1_dropShadow_1235_278" result="effect2_dropShadow_1235_278"/>
<feBlend mode="normal" in="SourceGraphic" in2="effect2_dropShadow_1235_278" result="shape"/>
</filter>
<linearGradient id="paint0_linear_1235_278" x1="243.367" y1="233.096" x2="232.653" y2="608.581" gradientUnits="userSpaceOnUse">
<stop stop-color="#333333" stop-opacity="0.8"/>
<stop offset="0.14" stop-color="#222222" stop-opacity="0.87"/>
<stop offset="0.36" stop-color="#0F0F0F" stop-opacity="0.94"/>
<stop offset="0.63" stop-color="#040404" stop-opacity="0.99"/>
<stop offset="1" stop-color="#131316"/>
</linearGradient>
<linearGradient id="paint1_linear_1235_278" x1="214.242" y1="413.763" x2="170.232" y2="450.438" gradientUnits="userSpaceOnUse">
<stop stop-opacity="0"/>
<stop offset="1" stop-color="#666666"/>
</linearGradient>
<linearGradient id="paint2_linear_1235_278" x1="375.743" y1="436.76" x2="368.407" y2="392.749" gradientUnits="userSpaceOnUse">
<stop stop-color="#00F7FB"/>
<stop offset="1" stop-opacity="0"/>
</linearGradient>
<linearGradient id="paint3_linear_1235_278" x1="243.367" y1="233.096" x2="232.653" y2="608.581" gradientUnits="userSpaceOnUse">
<stop stop-color="#333333" stop-opacity="0.8"/>
<stop offset="0.14" stop-color="#222222" stop-opacity="0.87"/>
<stop offset="0.36" stop-color="#0F0F0F" stop-opacity="0.94"/>
<stop offset="0.63" stop-color="#040404" stop-opacity="0.99"/>
<stop offset="1" stop-color="#131316"/>
</linearGradient>
<linearGradient id="paint4_linear_1235_278" x1="214.242" y1="413.763" x2="170.232" y2="450.438" gradientUnits="userSpaceOnUse">
<stop stop-opacity="0"/>
<stop offset="1" stop-color="#666666"/>
</linearGradient>
<linearGradient id="paint5_linear_1235_278" x1="375.743" y1="436.76" x2="368.407" y2="392.749" gradientUnits="userSpaceOnUse">
<stop stop-color="#00F7FB"/>
<stop offset="1" stop-opacity="0"/>
</linearGradient>
<linearGradient id="paint6_linear_1235_278" x1="243.368" y1="233.096" x2="232.653" y2="608.581" gradientUnits="userSpaceOnUse">
<stop stop-color="#333333" stop-opacity="0.8"/>
<stop offset="0.14" stop-color="#222222" stop-opacity="0.87"/>
<stop offset="0.36" stop-color="#0F0F0F" stop-opacity="0.94"/>
<stop offset="0.63" stop-color="#040404" stop-opacity="0.99"/>
<stop offset="1" stop-color="#131316"/>
</linearGradient>
<linearGradient id="paint7_linear_1235_278" x1="214.243" y1="413.763" x2="170.232" y2="450.438" gradientUnits="userSpaceOnUse">
<stop stop-opacity="0"/>
<stop offset="1" stop-color="#666666"/>
</linearGradient>
<linearGradient id="paint8_linear_1235_278" x1="375.743" y1="436.76" x2="368.408" y2="392.749" gradientUnits="userSpaceOnUse">
<stop stop-color="#00F7FB"/>
<stop offset="1" stop-opacity="0"/>
</linearGradient>
</defs>
</svg>
