<svg width="32" height="32" viewBox="0 0 32 32" fill="none" xmlns="http://www.w3.org/2000/svg">
  <g>
    <rect width="32" height="32" />
    <path id="Path" d="M11.844 1.536C11.844 1.536 10.556 0.464 10.556 0.464C10.1967 0.164397 9.7438 0.000210762 9.276 0C9.276 0 2 0 2 0C0.895431 0 0 0.895431 0 2C0 2 0 18 0 18C0 19.1046 0.895431 20 2 20C2 20 26 20 26 20C27.1046 20 28 19.1046 28 18C28 18 28 4 28 4C28 2.89543 27.1046 2 26 2C26 2 13.124 2 13.124 2C12.6562 1.99979 12.2033 1.8356 11.844 1.536C11.844 1.536 11.844 1.536 11.844 1.536Z" fill="#546E7A" fill-rule="evenodd" transform="translate(2 6)" />
    <g id="Group" transform="translate(16 12)">
      <path id="Path" d="M1.30329 0L2.43174 1.95425L1.12845 2.70656L0 0.752302L1.30329 0L1.30329 0Z" fill="#CFD8DC" transform="translate(8.376 5.844)" />
      <path id="Path" d="M15.046 0L15.046 1.5046L0 1.5046L0 0L15.046 0L15.046 0Z" fill="#CFD8DC" transform="translate(0 14.495)" />
      <path id="Path" d="M6.03431 1.3033C6.03431 1.3033 2.91418 3.15985 2.91418 3.15985C1.51655 3.99137 1.09084 5.80501 1.94368 7.16601C1.94368 7.16601 2.03037 7.296 2.03037 7.296L2.46309 7.91168L1.23179 8.77713C1.23179 8.77713 0.799061 8.16145 0.799061 8.16145C-0.670402 6.07163 -0.0505731 3.17301 2.14498 1.8668C2.14498 1.8668 5.28202 0 5.28202 0L6.03431 1.3033L6.03431 1.3033Z" fill="#CFD8DC" transform="translate(0.09 4.134)" />
      <path id="Path" d="M5.30561 0L6.05791 1.30299L0.752302 4.36621L0 3.06322L5.30561 0L5.30561 0Z" fill="#CFD8DC" transform="translate(8.007 8.148)" />
      <path id="Path" d="M0 5.26611L4.51381 5.26611L6.01841 5.26611C6.01841 5.26611 6.01841 3.00921 6.01841 3.00921C6.01841 1.3473 4.67115 0 3.00921 0C1.34727 0 0 1.3473 0 3.00921C0 3.00921 0 5.26611 0 5.26611L0 5.26611Z" fill="#CFD8DC" transform="translate(0 10.734)" />
      <path id="Path" d="M4.52404 1.39587L0.777955 3.55878L0 2.21133L3.71742 0L4.52404 1.39587L4.52404 1.39587Z" fill="#CFD8DC" transform="translate(6.878 4.528)" />
      <path id="Path" d="M1.89226 0.201921C2.61191 -0.213557 3.53235 0.032646 3.94792 0.752185C3.94792 0.752185 5.37534 3.22508 5.37534 3.22508L1.65716 5.43644C1.65716 5.43644 0.201812 2.91505 0.201812 2.91505C-0.213527 2.19556 0.0327539 1.27576 0.752075 0.860185C0.752075 0.860185 1.89226 0.201921 1.89226 0.201921C1.89226 0.201921 1.89226 0.201921 1.89226 0.201921Z" fill="#CFD8DC" transform="translate(4.467 0)" />
    </g>
  </g>
</svg>