<svg width="201" height="200" viewBox="0 0 201 200" fill="none" xmlns="http://www.w3.org/2000/svg">
<g clip-path="url(#clip0_74_19)">
<mask id="mask0_74_19" style="mask-type:luminance" maskUnits="userSpaceOnUse" x="1" y="77" width="198" height="42">
<path d="M198.8 77.9808H1.46649V118.02H198.8V77.9808Z" fill="white"/>
</mask>
<g mask="url(#mask0_74_19)">
<path d="M161.336 91.6899C161.336 87.9788 155.465 87.9788 155.465 91.6899C155.465 95.401 161.336 95.401 161.336 91.6899ZM155.982 116.24H160.744C160.888 116.24 161.012 116.127 161.012 115.981V97.5453C161.012 97.406 160.895 97.2864 160.744 97.2864H155.982C155.837 97.2864 155.713 97.3993 155.713 97.5453V115.981C155.713 116.121 155.83 116.24 155.982 116.24ZM90.7277 97.552C90.7277 97.4126 90.8518 97.2931 90.9964 97.2931H95.7096C95.8613 97.2931 95.9783 97.406 95.9783 97.552V115.988C95.9783 116.127 95.8613 116.247 95.7096 116.247H90.9964C90.8518 116.247 90.7277 116.134 90.7277 115.988V114.6C89.067 116.068 87.1308 116.101 85.4012 116.127H85.105C82.2798 116.127 79.8818 115.278 78.1661 113.664C76.3608 111.965 75.403 109.475 75.403 106.468C75.403 100.685 79.2548 96.9478 85.2083 96.9478H85.2979C87.1791 96.9478 89.1153 97.1338 90.7139 98.342V97.5587L90.7277 97.552ZM89.7079 109.801C90.5072 108.904 90.8587 107.703 90.8587 106.402C90.8587 104.032 89.3427 101.555 85.7113 101.555C82.714 101.555 80.7018 103.527 80.7018 106.461C80.7018 109.396 82.714 111.401 85.7113 111.401C87.241 111.401 88.8121 110.796 89.7079 109.801ZM152.84 116.24C152.991 116.24 153.109 116.127 153.109 115.981V111.859C153.109 111.719 152.991 111.6 152.84 111.6C152.358 111.6 150.82 111.6 150.504 111.586C149.126 111.527 148.513 110.883 148.513 109.482V102.438H152.84C152.984 102.438 153.109 102.325 153.109 102.179V97.5984C153.109 97.459 152.984 97.3396 152.84 97.3396H148.547V93.3297C148.547 93.1903 148.429 93.0708 148.278 93.0708H143.517C143.372 93.0708 143.248 93.1836 143.248 93.3297V109.482C143.248 113.777 145.777 116.24 150.201 116.24H151.083H152.84ZM177.453 110.332C177.357 110.232 177.191 110.225 177.081 110.312C176.151 111.035 174.986 111.447 173.842 111.447C170.955 111.447 168.943 109.455 168.943 106.607C168.943 103.759 170.962 101.768 173.842 101.768C174.979 101.768 176.144 102.179 177.081 102.903C177.191 102.989 177.349 102.983 177.453 102.883L180.506 99.8026C180.609 99.6964 180.602 99.5303 180.499 99.4308C178.535 97.6582 176.509 96.8948 173.78 96.8948C167.606 96.8948 163.61 100.705 163.61 106.607C163.61 112.509 167.599 116.32 173.78 116.32C176.509 116.32 178.535 115.556 180.499 113.784C180.609 113.684 180.609 113.518 180.506 113.412L177.453 110.332ZM76.6502 92.7256V88.2908C76.6502 88.1116 76.4986 87.9656 76.3125 87.9656H59.1824C58.9964 87.9656 58.8448 88.1116 58.8448 88.2908V115.915C58.8448 116.094 58.9964 116.234 59.1824 116.234H63.8061C63.9921 116.234 64.1437 116.088 64.1437 115.915V104.642C64.1437 104.463 64.2953 104.317 64.4813 104.317H73.1084C73.2944 104.317 73.446 104.171 73.446 103.998V99.5636C73.446 99.3843 73.2944 99.2448 73.1084 99.2448H64.4813C64.2953 99.2448 64.1437 99.0988 64.1437 98.9262V93.3695C64.1437 93.1903 64.2953 93.0509 64.4813 93.0509H76.3194C76.5054 93.0509 76.6571 92.9049 76.6571 92.7256M135.227 97.552C135.227 97.4126 135.352 97.2931 135.496 97.2931H140.209C140.361 97.2931 140.478 97.406 140.478 97.552V115.988C140.478 116.127 140.361 116.247 140.209 116.247H135.496C135.352 116.247 135.227 116.134 135.227 115.988V114.6C133.567 116.068 131.63 116.101 129.901 116.127H129.604C126.779 116.127 124.382 115.278 122.666 113.664C120.86 111.965 119.902 109.475 119.902 106.468C119.902 100.685 123.754 96.9478 129.708 96.9478H129.798C131.679 96.9478 133.615 97.1338 135.214 98.342V97.5587L135.227 97.552ZM134.208 109.801C135.007 108.904 135.358 107.703 135.358 106.402C135.358 104.032 133.842 101.555 130.211 101.555C127.213 101.555 125.201 103.527 125.201 106.461C125.201 109.396 127.213 111.401 130.211 111.401C131.74 111.401 133.311 110.796 134.208 109.801ZM182.001 112.908C181.925 113.014 181.932 113.153 182.029 113.246C184.839 115.948 187.927 116.32 190.579 116.32C194.329 116.32 197.139 114.946 198.283 112.556C198.634 111.825 198.814 111.035 198.814 110.199C198.814 105.353 194.445 104.456 190.641 104.224C187.603 104.038 187.603 103.016 187.603 102.684C187.603 101.456 189.657 101.323 190.538 101.323C192.247 101.323 193.509 101.721 194.577 102.604C194.694 102.697 194.858 102.69 194.955 102.584L197.643 99.5901C197.739 99.4839 197.725 99.3179 197.615 99.225C195.651 97.645 193.556 97.001 190.462 97.001C188.505 97.001 186.576 97.4657 185.164 98.269C183.337 99.3112 182.373 100.891 182.373 102.836C182.373 106.209 185.184 108.267 190.29 108.639C193.177 108.798 193.55 109.601 193.55 110.285C193.55 111.294 192.158 111.825 190.779 111.825H190.663C188.436 111.786 186.293 110.996 184.867 109.701C184.75 109.595 184.564 109.608 184.468 109.734L182.001 112.921V112.908ZM109.525 97.0806C114.384 97.0806 117.649 100.679 117.649 106.036V115.981C117.649 116.121 117.532 116.24 117.381 116.24H112.619C112.474 116.24 112.351 116.127 112.351 115.981V106.07C112.351 103.985 111.296 101.768 108.34 101.768H108.243C105.984 101.808 104.074 103.719 104.074 105.95V115.981C104.074 116.121 103.957 116.24 103.806 116.24H99.0864C98.9418 116.24 98.8172 116.127 98.8172 115.981V97.5852C98.8172 97.4458 98.9341 97.3262 99.0864 97.3262H103.648C103.793 97.3262 103.916 97.4391 103.916 97.5852V99.225C105.701 97.7445 107.458 97.0806 109.525 97.0806Z" fill="white"/>
<path d="M36.45 103.712C36.5396 103.752 36.6498 103.726 36.7049 103.646L42.7066 94.7566C42.7824 94.6438 42.7135 94.511 42.5826 94.4645C33.9418 91.6098 25.8522 97.0935 13.5181 97.3922C13.2011 97.3922 12.8703 97.7507 13.0908 98.1424L26.4103 117.846C26.6033 118.178 27.065 117.973 27.0098 117.667L24.1433 105.193C24.1226 105.08 24.1916 104.98 24.3018 104.947C25.3424 104.582 32.8807 102.126 36.45 103.719M50.8376 82.654L45.9039 90.0032C45.8006 90.1559 45.5938 90.2289 45.4284 90.1493C34.0382 84.659 20.8909 94.7566 9.29406 92.3467C9.1838 92.3268 9.08734 92.2671 9.03221 92.1807C9.02532 92.1674 3.41636 83.8955 1.549 81.1338C1.30783 80.7885 1.60413 80.2973 2.07958 80.3769C3.0925 80.596 7.45426 81.5254 10.8444 81.7578C28.4431 82.6673 37.9797 72.5498 50.7342 82.1362C50.8996 82.2557 50.9409 82.4748 50.8307 82.6408" fill="white"/>
</g>
</g>
<defs>
<clipPath id="clip0_74_19">
<rect width="197.334" height="40.0387" fill="white" transform="translate(1.46649 77.9808)"/>
</clipPath>
</defs>
</svg>
