<svg width="201" height="200" viewBox="0 0 201 200" fill="none" xmlns="http://www.w3.org/2000/svg">
<path d="M84.9062 108.6C85.111 110.136 86.647 111.16 88.4902 110.955C88.3366 110.085 88.1574 109.214 87.9782 108.344C87.799 107.474 87.6198 106.603 87.4662 105.733C85.8278 105.938 84.7014 107.166 84.9062 108.6Z" fill="white"/>
<path d="M91.8695 70.4046C90.5383 69.6878 89.1047 69.6878 87.7735 70.1998C85.623 71.0191 85.0086 73.6815 86.647 75.3199C87.7735 76.4463 89.8215 76.5487 91.3575 76.0367C92.3815 75.6271 93.2007 74.8079 93.4055 73.6815C93.5079 72.2479 93.0983 71.1215 91.8695 70.4046Z" fill="white"/>
<path d="M112.35 93.035C112.188 92.2563 112.023 91.4681 111.838 90.6799C113.476 90.2703 115.114 91.2944 115.422 92.728C115.626 94.1616 114.602 95.4928 112.964 95.8C112.74 94.9035 112.546 93.976 112.35 93.035Z" fill="white"/>
<path d="M112.657 130.821C111.223 131.333 109.79 131.333 108.458 130.616C107.23 130.002 106.82 128.875 106.922 127.339C107.23 125.599 108.97 124.677 110.711 124.677C111.838 124.677 112.964 124.984 113.681 125.701C115.319 127.339 114.807 130.002 112.657 130.821Z" fill="white"/>
<path d="M110.814 69.9949C109.278 69.9949 107.639 70.9165 107.434 72.5549C107.332 73.2717 107.434 74.0909 107.844 74.7054C108.663 75.9342 110.199 76.4462 111.838 76.0366C113.681 75.627 114.705 73.7837 114.09 71.9405C113.476 70.6093 112.042 69.9949 110.814 69.9949Z" fill="white"/>
<path fill-rule="evenodd" clip-rule="evenodd" d="M130.37 51.8719C134.569 51.8719 138.05 55.3536 138.05 59.552V140.653C138.05 144.852 134.569 148.333 130.37 148.333H69.954C65.7556 148.333 62.274 144.852 62.274 140.653V59.552C62.274 55.3536 65.7556 51.8719 69.954 51.8719H130.37ZM85.2117 130.106H74.3573C74.2549 130.106 74.1525 130.208 74.1525 130.311V136.045C74.1525 136.148 74.2549 136.25 74.3573 136.25H97.4998C97.6022 136.25 97.7046 136.148 97.7046 136.045V130.311C97.7046 130.208 97.6022 130.106 97.4998 130.106H89.103C88.4886 130.106 87.8742 130.004 87.3622 129.799C86.3381 129.389 85.8261 128.263 86.0309 127.239C86.2357 126.317 87.0549 125.703 88.1814 125.703H97.4998C97.6022 125.703 97.7046 125.6 97.7046 125.498V119.866C97.7046 119.764 97.6022 119.661 97.4998 119.661H85.3141C83.6757 119.661 82.3445 120.48 81.5253 122.016C80.6037 123.757 80.6037 126.829 82.6517 128.672C83.8805 129.799 85.2117 130.106 85.2117 130.106ZM74.1525 92.1154V97.5426C74.1525 97.645 74.2549 97.7474 74.3573 97.7474H97.4998C97.6022 97.7474 97.7046 97.645 97.7046 97.5426V92.1154C97.7046 92.013 97.6022 91.9106 97.4998 91.9106H74.3573C74.2549 91.9106 74.1525 92.013 74.1525 92.1154ZM91.663 117.306C94.3254 116.692 96.3734 115.156 97.3974 112.493C98.9334 108.295 98.319 104.506 95.8614 100.717H95.759L91.7654 102.458C91.7654 102.497 91.7504 102.536 91.7377 102.57C91.717 102.624 91.7021 102.663 91.7654 102.663C93.5062 104.301 94.223 106.247 93.711 108.602C93.5062 109.728 92.687 110.445 91.5606 110.855C91.5606 110.752 91.535 110.676 91.5094 110.599C91.4838 110.522 91.4582 110.445 91.4582 110.343C91.174 108.467 90.8583 106.56 90.546 104.674C90.2957 103.162 90.0476 101.663 89.8198 100.205C89.7174 99.7955 89.615 99.7955 89.2054 99.7955C87.9366 99.88 87.5761 99.9646 86.9697 100.107C86.8419 100.137 86.7033 100.169 86.5429 100.205C84.0853 100.819 82.3445 102.253 81.4229 104.608C80.3989 107.168 80.6037 109.626 81.5253 112.084C82.3445 114.336 83.8805 116.077 86.1333 116.999C87.9766 117.716 89.8198 117.716 91.663 117.306ZM91.5606 82.1825C93.8134 81.7729 95.6566 80.6465 96.8854 78.7009C97.9094 76.9601 98.319 75.1169 98.319 72.8641C98.319 71.8401 98.1142 70.6113 97.7046 69.4849C96.9878 67.3344 95.6566 65.696 93.6086 64.7744C91.663 63.8528 89.615 63.7504 87.4646 64.16C84.6997 64.672 82.7541 66.208 81.6277 68.8705C80.6037 71.2257 80.5013 73.7857 81.2181 76.3457C81.9349 78.8033 83.4709 80.6465 85.8261 81.6705C87.6694 82.4897 89.615 82.5921 91.5606 82.1825ZM97.7046 84.5378C97.7046 84.4354 97.6022 84.333 97.4998 84.333H74.3573C74.2549 84.333 74.1525 84.4354 74.1525 84.5378V89.965C74.1525 90.0674 74.2549 90.1698 74.3573 90.1698H97.4998C97.6022 90.1698 97.7046 90.0674 97.7046 89.965V84.5378ZM125.967 109.216C126.07 109.216 126.172 109.114 126.172 109.012V103.584C126.172 103.482 126.07 103.379 125.967 103.379H102.825C102.722 103.379 102.62 103.482 102.62 103.584V109.012C102.62 109.114 102.722 109.216 102.825 109.216H125.967ZM126.172 116.794V111.367C126.172 111.264 126.07 111.162 125.967 111.162H102.825C102.722 111.162 102.62 111.264 102.62 111.367V116.794C102.62 116.896 102.722 116.999 102.825 116.999H125.967C126.07 116.999 126.172 116.896 126.172 116.794ZM114.703 100.922C116.956 100 118.492 98.5666 119.209 96.2114C120.028 93.7538 119.721 91.2962 118.594 88.941C117.673 86.6882 116.034 85.0498 113.679 84.333C111.734 83.7186 109.89 83.821 108.047 84.4354C104.77 85.5618 102.927 87.8146 102.313 91.0914C101.698 94.4706 102.415 97.5426 104.361 100.41C104.463 100.563 104.565 100.691 104.668 100.819C104.77 100.947 104.873 101.075 104.975 101.229H105.077L108.866 98.9762C108.866 98.9371 108.881 98.898 108.894 98.8646C108.915 98.8106 108.93 98.7714 108.866 98.7714C107.33 97.4402 106.306 95.4946 106.511 93.2418C106.613 92.1154 107.33 91.1938 108.559 90.6818L111.119 101.229C111.202 101.561 111.285 101.557 111.532 101.543C111.59 101.54 111.656 101.536 111.734 101.536C112.962 101.434 113.679 101.331 114.703 100.922ZM109.685 118.842C107.023 119.047 104.873 120.276 103.439 122.528C102.415 124.167 102.005 126.112 101.903 128.263C101.903 129.287 102.108 130.516 102.517 131.744C103.234 133.792 104.565 135.431 106.613 136.352C108.559 137.274 110.505 137.376 112.553 137.069C115.42 136.66 117.57 135.021 118.697 132.359C119.823 129.696 119.823 126.932 118.902 124.167C117.98 121.607 116.239 119.968 113.679 119.149C112.348 118.74 111.017 118.74 109.685 118.842ZM115.83 70.3041H126.172V64.3648C126.172 64.3648 126.172 64.2624 126.07 64.2624H102.722C102.722 64.2624 102.62 64.2624 102.62 64.3648V68.9729L102.722 69.0753L105.999 70.0993C105.999 70.0993 105.897 70.0993 105.794 70.2017C105.743 70.2529 105.692 70.2785 105.641 70.3041C105.589 70.3297 105.538 70.3553 105.487 70.4065C104.565 70.9185 103.746 71.5329 103.234 72.2497C102.313 73.4785 102.108 75.0145 102.517 76.7553C103.029 79.0081 104.463 80.4417 106.511 81.2609C109.378 82.4897 112.45 82.4897 115.318 81.2609C117.468 80.3393 118.902 78.7009 119.311 76.3457C119.618 74.1953 118.799 72.1473 116.956 71.0209C116.854 70.9697 116.751 70.8929 116.649 70.8161C116.546 70.7393 116.444 70.6625 116.342 70.6113C116.034 70.4065 115.83 70.3041 115.83 70.3041Z" fill="white"/>
<path d="M140.916 147.615L141.633 145.669H142.35V148.331H141.838V146.386L141.224 148.331H140.712L139.995 146.386V148.331H139.483V145.669H140.2L140.916 147.615Z" fill="white"/>
<path d="M137.225 146.079H137.942V148.331H138.454V146.079H139.068V145.669H137.225V146.079Z" fill="white"/>
</svg>
