<svg width="200" height="200" viewBox="0 0 200 200" fill="none" xmlns="http://www.w3.org/2000/svg">
<path d="M106.873 102.205L87.6619 84.298V114.659H93.3529V97.7033L112.564 115.588V85.1473H106.873V102.205Z" fill="white"/>
<path d="M62.7123 84.0052C59.56 84.0046 56.4784 84.9388 53.857 86.6897C51.2357 88.4405 49.1925 90.9294 47.9857 93.8415C46.7789 96.7537 46.4629 99.9583 47.0775 103.05C47.6921 106.142 49.2097 108.982 51.4385 111.211C53.6672 113.44 56.507 114.959 59.5987 115.574C62.6903 116.189 65.895 115.874 68.8074 114.667C71.7198 113.461 74.2091 111.418 75.9604 108.797C77.7118 106.177 78.6466 103.095 78.6466 99.9427C78.6424 95.7177 76.9624 91.6669 73.9751 88.679C70.9878 85.6912 66.9373 84.0103 62.7123 84.0052ZM62.7123 110.151C60.6891 110.171 58.7055 109.59 57.0134 108.48C55.3213 107.371 53.9971 105.784 53.2088 103.92C52.4205 102.057 52.2038 100.001 52.5861 98.0143C52.9684 96.0275 53.9326 94.199 55.3561 92.7612C56.7796 91.3233 58.5983 90.3409 60.5812 89.9387C62.5642 89.5365 64.6219 89.7326 66.4932 90.5022C68.3644 91.2717 69.9648 92.58 71.091 94.2609C72.2173 95.9418 72.8187 97.9194 72.8188 99.9427C72.8264 102.635 71.7673 105.22 69.8732 107.134C67.9792 109.047 65.4044 110.132 62.7123 110.151Z" fill="white"/>
<path d="M37.085 100.207C35.5708 99.052 33.5857 98.1199 30.6177 97.1783C24.8376 95.346 24.8376 93.889 24.8376 93.1796C24.8376 91.5382 26.67 89.8394 29.7334 89.8394C31.6579 89.884 33.5206 90.5279 35.0618 91.6813L35.4594 91.9803L40.0498 88.8787L39.5472 88.2839C38.2931 86.9378 36.7756 85.8639 35.089 85.129C33.4024 84.394 31.5827 84.0137 29.7429 84.0116C26.7908 84.0116 24.0773 84.9659 22.1082 86.6678C21.156 87.4686 20.3864 88.4642 19.8514 89.5875C19.3164 90.7107 19.0283 91.9356 19.0066 93.1796C19.0066 95.7945 20.1486 97.9927 22.4009 99.7105C23.9151 100.865 25.9001 101.797 28.8681 102.739C34.6387 104.574 34.6387 106.028 34.6387 106.725C34.6387 108.366 32.8064 110.065 29.7429 110.065C27.8181 110.022 25.9549 109.378 24.4145 108.223L24.0169 107.924L19.4297 111.039L19.9291 111.63C21.1832 112.98 22.7018 114.057 24.3902 114.794C26.0785 115.531 27.9006 115.913 29.7429 115.915C32.695 115.915 35.4085 114.961 37.3777 113.259C38.3303 112.456 39.0996 111.458 39.6336 110.333C40.1676 109.207 40.4538 107.98 40.4729 106.734C40.4793 104.123 39.3372 101.925 37.085 100.207Z" fill="white"/>
<path d="M137.511 84.123C134.358 84.123 131.277 85.0578 128.656 86.8092C126.035 88.5606 123.992 91.0499 122.786 93.9623C121.58 96.8746 121.264 100.079 121.879 103.171C122.495 106.263 124.013 109.102 126.242 111.331C128.471 113.56 131.311 115.078 134.403 115.692C137.495 116.307 140.7 115.991 143.612 114.784C146.524 113.577 149.013 111.534 150.764 108.913C152.514 106.291 153.449 103.21 153.448 100.057C153.444 95.8321 151.763 91.7811 148.775 88.7936C145.787 85.8062 141.736 84.1264 137.511 84.123ZM137.511 110.266C135.488 110.283 133.505 109.7 131.815 108.589C130.125 107.478 128.802 105.89 128.016 104.026C127.23 102.162 127.015 100.107 127.399 98.121C127.782 96.135 128.747 94.3077 130.172 92.8711C131.596 91.4345 133.414 90.4534 135.397 90.0523C137.38 89.6511 139.437 89.848 141.307 90.6179C143.178 91.3879 144.777 92.6962 145.903 94.3768C147.029 96.0574 147.63 98.0346 147.63 100.057C147.637 102.752 146.576 105.339 144.68 107.253C142.783 109.166 140.205 110.25 137.511 110.266Z" fill="white"/>
<path d="M163.141 99.7933C164.652 100.948 166.64 101.88 169.608 102.822C175.379 104.654 175.379 106.111 175.379 106.811C175.379 108.449 173.546 110.148 170.483 110.148C168.558 110.103 166.696 109.459 165.155 108.306L164.757 108.01L160.167 111.109L160.672 111.703C161.927 113.053 163.447 114.129 165.135 114.866C166.824 115.604 168.647 115.986 170.489 115.988C173.441 115.988 176.152 115.034 178.124 113.332C179.076 112.53 179.845 111.532 180.379 110.407C180.913 109.282 181.2 108.056 181.219 106.811C181.219 104.193 180.077 101.995 177.822 100.277C176.311 99.1221 174.323 98.19 171.358 97.2484C165.587 95.4065 165.587 93.9623 165.587 93.2624C165.587 91.621 167.416 89.9222 170.483 89.9222C172.408 89.9651 174.271 90.6092 175.811 91.7641L176.209 92.0631L180.796 88.9615L180.297 88.3667C179.042 87.0177 177.524 85.9412 175.835 85.204C174.147 84.4669 172.325 84.0849 170.483 84.0817C167.531 84.0817 164.817 85.036 162.848 86.7379C161.896 87.541 161.127 88.5389 160.593 89.6644C160.059 90.7899 159.772 92.0168 159.753 93.2624C159.747 95.8773 160.889 98.0755 163.141 99.7933Z" fill="white"/>
</svg>
